<?xml version="1.0" encoding="UTF-8"?>
<svg version="1.1" xmlns="http://www.w3.org/2000/svg" width="340" height="340">
<path d="M0 0 C112.2 0 224.4 0 340 0 C340 112.2 340 224.4 340 340 C227.8 340 115.6 340 0 340 C0 227.8 0 115.6 0 0 Z " fill="#E0E1E2" transform="translate(0,0)"/>
<path d="M0 0 C1.97119141 -0.34057617 1.97119141 -0.34057617 4.3515625 -0.29296875 C5.62773437 -0.2784668 5.62773437 -0.2784668 6.9296875 -0.26367188 C7.81914062 -0.23853516 8.70859375 -0.21339844 9.625 -0.1875 C10.97078125 -0.16719727 10.97078125 -0.16719727 12.34375 -0.14648438 C14.56309789 -0.11106925 16.78125188 -0.06168461 19 0 C19.12375 0.928125 19.2475 1.85625 19.375 2.8125 C19.81533082 6.13925235 19.81533082 6.13925235 22 9 C22.24723816 11.37716675 22.24723816 11.37716675 22.24291992 14.21826172 C22.24599655 15.28301727 22.24907318 16.34777283 22.25224304 17.4447937 C22.24505753 18.59480865 22.23787201 19.74482361 22.23046875 20.9296875 C22.22978142 22.70341232 22.22978142 22.70341232 22.2290802 24.51296997 C22.22605687 27.01630658 22.2181682 29.51964129 22.20581055 32.02294922 C22.18760644 35.85260702 22.18530053 39.68202229 22.18554688 43.51171875 C22.18062957 45.94271042 22.17480033 48.37370045 22.16796875 50.8046875 C22.16685593 51.95065399 22.1657431 53.09662048 22.16459656 54.27731323 C22.15821671 55.34837311 22.15183685 56.41943298 22.14526367 57.52294922 C22.13954597 58.93167801 22.13954597 58.93167801 22.13371277 60.36886597 C21.9998536 63.00288072 21.58438424 65.43152838 21 68 C20.67 68 20.34 68 20 68 C20 66.35 20 64.7 20 63 C18.515 62.505 18.515 62.505 17 62 C17.061875 63.0725 17.12375 64.145 17.1875 65.25 C17 69 17 69 14 73 C13.67 69.37 13.34 65.74 13 62 C12.34 65.96 11.68 69.92 11 74 C10.67 74 10.34 74 10 74 C9.92420617 69.37657653 9.9722325 64.90630727 10.5 60.3125 C11.18479011 53.59775253 11.05242918 46.88452069 10.96289062 40.14379883 C10.90624483 34.02768663 11.26329166 28.07208824 12 22 C8.9890638 24.0072908 8.36983503 24.83884224 7 28 C5.76078698 25.02588876 4.69941596 22.14737182 4 19 C4.99 18.67 5.98 18.34 7 18 C6.835 17.195625 6.67 16.39125 6.5 15.5625 C5.90752652 11.34112648 5.91493291 7.25335455 6 3 C5.34 3 4.68 3 4 3 C4 2.34 4 1.68 4 1 C3.01 1.495 3.01 1.495 2 2 C1.48883717 4.08101338 1.48883717 4.08101338 1.3125 6.5625 C1.22613281 7.38878906 1.13976562 8.21507812 1.05078125 9.06640625 C0.92369896 12.12337174 0.92369896 12.12337174 1.49072266 15.61499023 C2.07572815 20.12251324 2.12731954 24.55390654 2.09765625 29.09375 C2.0962413 29.92588013 2.09482635 30.75801025 2.09336853 31.61535645 C2.08782167 34.2436093 2.07527945 36.87177338 2.0625 39.5 C2.05747812 41.29426959 2.05291642 43.08854054 2.04882812 44.8828125 C2.03786972 49.25524195 2.02064248 53.62760598 2 58 C1.01 58.495 1.01 58.495 0 59 C-0.2888467 53.11436433 -0.57350028 47.22854521 -0.85449219 41.3425293 C-0.95038228 39.34573064 -1.04736128 37.34898394 -1.14550781 35.35229492 C-2.68324294 4.02486442 -2.68324294 4.02486442 0 0 Z " fill="#D9D5CE" transform="translate(158,55)"/>
<path d="M0 0 C6.0546875 -0.1953125 6.0546875 -0.1953125 8 0 C8.66 0.66 9.32 1.32 10 2 C10.66 1.67 11.32 1.34 12 1 C11.814375 2.11375 11.62875 3.2275 11.4375 4.375 C10.68319343 7.82568861 10.68319343 7.82568861 12 10 C12.09812904 11.87556072 12.13078084 13.75468759 12.1328125 15.6328125 C12.13571289 17.40954346 12.13571289 17.40954346 12.13867188 19.22216797 C12.13416016 20.51010254 12.12964844 21.79803711 12.125 23.125 C12.12306641 24.44258301 12.12113281 25.76016602 12.11914062 27.11767578 C12.06977539 42.08668134 11.5578252 57.04257007 11 72 C10.67 72 10.34 72 10 72 C9.67 68.37 9.34 64.74 9 61 C8.34 64.96 7.68 68.92 7 73 C6.67 73 6.34 73 6 73 C5.92420617 68.37657653 5.9722325 63.90630727 6.5 59.3125 C7.18479011 52.59775253 7.05242918 45.88452069 6.96289062 39.14379883 C6.90624483 33.02768663 7.26329166 27.07208824 8 21 C4.9890638 23.0072908 4.36983503 23.83884224 3 27 C1.76078698 24.02588876 0.69941596 21.14737182 0 18 C0.99 17.67 1.98 17.34 3 17 C2.835 16.195625 2.67 15.39125 2.5 14.5625 C1.90752652 10.34112648 1.91493291 6.25335455 2 2 C1.34 2 0.68 2 0 2 C0 1.34 0 0.68 0 0 Z " fill="#B0AAA1" transform="translate(162,56)"/>
<path d="M0 0 C4.875 0.875 4.875 0.875 6 2 C10.47745239 2.74622098 10.47745239 2.74622098 15 3 C17.66666667 3 20.33333333 3 23 3 C23.33 3.66 23.66 4.32 24 5 C23.67 5.66 23.34 6.32 23 7 C29.6 7.33 36.2 7.66 43 8 C39.29329628 10.47113581 36.34807819 10.34788589 32.05078125 10.4140625 C31.27816452 10.43342865 30.50554779 10.4527948 29.70951843 10.4727478 C27.2439576 10.53248479 24.77834993 10.57890486 22.3125 10.625 C20.6399537 10.66318525 18.96742695 10.70223731 17.29492188 10.7421875 C13.19677353 10.83818133 9.09853312 10.92223377 5 11 C5 10.34 5 9.68 5 9 C4.236875 8.87625 3.47375 8.7525 2.6875 8.625 C0 8 0 8 -3 6 C-2.34 5.67 -1.68 5.34 -1 5 C-0.34 5.33 0.32 5.66 1 6 C0.67 4.02 0.34 2.04 0 0 Z " fill="#827A70" transform="translate(141,277)"/>
<path d="M0 0 C2.40067106 2.40067106 2.55784921 3.77221955 3.1875 7.0625 C3.36667969 7.96097656 3.54585937 8.85945313 3.73046875 9.78515625 C3.81941406 10.51605469 3.90835938 11.24695313 4 12 C3.67 12.33 3.34 12.66 3 13 C2.93599283 16.04406642 2.93389591 19.06609972 2.97265625 22.109375 C2.98530856 23.99739396 2.99766907 25.8854149 3.00976562 27.7734375 C3.03454859 30.76015308 3.06246376 33.74676724 3.09594727 36.73339844 C3.12620639 39.60873047 3.14394796 42.48393419 3.16015625 45.359375 C3.17361588 46.24913025 3.1870755 47.1388855 3.20094299 48.05560303 C3.21918604 52.57629098 2.93646416 55.83767654 1 60 C1 61.216875 1 62.43375 1 63.6875 C1 64.780625 1 65.87375 1 67 C0.01 67.99 0.01 67.99 -1 69 C-0.99777939 68.25719788 -0.99555878 67.51439575 -0.99327087 66.74908447 C-0.97322549 59.74544754 -0.95800417 52.74182056 -0.94818783 45.73816299 C-0.94297149 42.13760402 -0.9358965 38.53706876 -0.92456055 34.93652344 C-0.9136873 31.46115638 -0.90771374 27.98581214 -0.90512276 24.51042938 C-0.90237862 22.54065702 -0.89457362 20.57089381 -0.88670349 18.60113525 C-0.88662796 17.40019226 -0.88655243 16.19924927 -0.88647461 14.96191406 C-0.884254 13.90490295 -0.88203339 12.84789185 -0.87974548 11.7588501 C-0.90191326 9.06739959 -0.90191326 9.06739959 -1.56568909 6.79925537 C-2.21076123 4.1268622 -1.14096061 2.41615188 0 0 Z " fill="#C7C2BA" transform="translate(174,57)"/>
<path d="M0 0 C2.31 0 4.62 0 7 0 C8.82972576 6.97110394 9.83502639 13.90620669 8 21 C7.01 21.66 6.02 22.32 5 23 C3.80767387 25.05003955 3.80767387 25.05003955 3 27 C1.76078698 24.02588876 0.69941596 21.14737182 0 18 C0.99 17.67 1.98 17.34 3 17 C2.835 16.195625 2.67 15.39125 2.5 14.5625 C1.90752652 10.34112648 1.91493291 6.25335455 2 2 C1.34 2 0.68 2 0 2 C0 1.34 0 0.68 0 0 Z " fill="#9F9A91" transform="translate(162,56)"/>
<path d="M0 0 C3.1875 -0.36328125 3.1875 -0.36328125 7 -0.3125 C8.8871875 -0.30669922 8.8871875 -0.30669922 10.8125 -0.30078125 C14 0 14 0 16 2 C15.01 2.99 14.02 3.98 13 5 C12.67 3.68 12.34 2.36 12 1 C8.7 1.33 5.4 1.66 2 2 C1.814375 3.485 1.62875 4.97 1.4375 6.5 C1.33308594 7.3353125 1.22867188 8.170625 1.12109375 9.03125 C0.90922287 12.11699656 0.90922287 12.11699656 1.48632812 15.6171875 C2.07560245 20.12441868 2.12732089 24.55370003 2.09765625 29.09375 C2.0962413 29.92588013 2.09482635 30.75801025 2.09336853 31.61535645 C2.08782167 34.2436093 2.07527945 36.87177338 2.0625 39.5 C2.05747812 41.29426959 2.05291642 43.08854054 2.04882812 44.8828125 C2.03786972 49.25524195 2.02064248 53.62760598 2 58 C1.01 58.495 1.01 58.495 0 59 C-0.2888467 53.11436433 -0.57350028 47.22854521 -0.85449219 41.3425293 C-0.95038228 39.34573064 -1.04736128 37.34898394 -1.14550781 35.35229492 C-2.68324294 4.02486442 -2.68324294 4.02486442 0 0 Z " fill="#C8C3BD" transform="translate(158,55)"/>
<path d="M0 0 C4.875 0.875 4.875 0.875 6 2 C8.32817964 2.36760731 10.6618385 2.70241581 13 3 C13 3.99 13 4.98 13 6 C10.69 5.67 8.38 5.34 6 5 C12.35954397 7.48347827 12.35954397 7.48347827 19 9 C19 9.33 19 9.66 19 10 C14.38 10.33 9.76 10.66 5 11 C5 10.34 5 9.68 5 9 C4.236875 8.87625 3.47375 8.7525 2.6875 8.625 C0 8 0 8 -3 6 C-2.34 5.67 -1.68 5.34 -1 5 C-0.34 5.33 0.32 5.66 1 6 C0.67 4.02 0.34 2.04 0 0 Z " fill="#B3B0AA" transform="translate(141,277)"/>
<path d="M0 0 C0.33 0 0.66 0 1 0 C1.08038183 3.53680049 1.01766138 6.60779539 0 10 C-0.185625 10.7425 -0.37125 11.485 -0.5625 12.25 C-0.706875 12.8275 -0.85125 13.405 -1 14 C-1.66 14 -2.32 14 -3 14 C-3 14.763125 -3 15.52625 -3 16.3125 C-3 18.20833333 -3 20.10416667 -3 22 C-3.66 22.66 -4.32 23.32 -5 24 C-5.27441229 25.97159203 -5.27441229 25.97159203 -5.3125 28.1875 C-5.75035206 33.3912033 -7.70502174 36.02912876 -11 40 C-12.42809439 36.22131546 -11.52357306 34.24338075 -9.9375 30.625 C-6.95788843 23.33037671 -4.95458508 15.87039849 -2.96850586 8.25244141 C-2.72624268 7.32866699 -2.48397949 6.40489258 -2.234375 5.453125 C-1.91291504 4.20257324 -1.91291504 4.20257324 -1.58496094 2.92675781 C-1 1 -1 1 0 0 Z " fill="#C5C1BC" transform="translate(158,115)"/>
<path d="M0 0 C2 2 2 2 2.22705078 4.98095703 C2.21657715 6.22731934 2.20610352 7.47368164 2.1953125 8.7578125 C2.1924826 9.42086395 2.18965271 10.08391541 2.18673706 10.76705933 C2.17553435 12.88655583 2.15043051 15.00563104 2.125 17.125 C2.11497028 18.56119182 2.10584441 19.99739025 2.09765625 21.43359375 C2.075595 24.95586628 2.04106494 28.47789203 2 32 C-3.57112222 23.64331667 -1.49336157 9.52017999 0 0 Z " fill="#BAB4AC" transform="translate(172,64)"/>
<path d="M0 0 C1.32 0 2.64 0 4 0 C3.62305374 2.48996898 3.30948842 3.71366532 1.43359375 5.44921875 C-6.49767187 10.36939722 -12.93320067 10.36421749 -22 9 C-22 8.67 -22 8.34 -22 8 C-20.72382813 7.89042969 -19.44765625 7.78085937 -18.1328125 7.66796875 C-16.46347228 7.50853738 -14.79420495 7.34834145 -13.125 7.1875 C-11.86236328 7.08211914 -11.86236328 7.08211914 -10.57421875 6.97460938 C-9.76855469 6.89404297 -8.96289062 6.81347656 -8.1328125 6.73046875 C-7.38918457 6.66239014 -6.64555664 6.59431152 -5.87939453 6.52416992 C-3.60154748 6.10913312 -3.60154748 6.10913312 -2 3 C-2.66 2.67 -3.32 2.34 -4 2 C-3.34 1.67 -2.68 1.34 -2 1 C-1.34 1.33 -0.68 1.66 0 2 C0 1.34 0 0.68 0 0 Z " fill="#D0CAC1" transform="translate(197,276)"/>
<path d="M0 0 C1.8125 1.4375 1.8125 1.4375 3 3 C3 3.66 3 4.32 3 5 C0.03 4.505 0.03 4.505 -3 4 C-3.33 4.66 -3.66 5.32 -4 6 C-6.5625 6.625 -6.5625 6.625 -9 7 C-8.67 6.01 -8.34 5.02 -8 4 C-7.34 4 -6.68 4 -6 4 C-6.33 2.68 -6.66 1.36 -7 0 C-4.26634878 -1.36682561 -2.89333621 -0.84683011 0 0 Z " fill="#BEB8AD" transform="translate(179,262)"/>
<path d="M0 0 C1.26714844 -0.01417969 2.53429687 -0.02835938 3.83984375 -0.04296875 C7.0625 0.1875 7.0625 0.1875 9.0625 2.1875 C8.0725 3.1775 7.0825 4.1675 6.0625 5.1875 C5.7325 3.8675 5.4025 2.5475 5.0625 1.1875 C1.7625 1.5175 -1.5375 1.8475 -4.9375 2.1875 C-5.2675 4.8275 -5.5975 7.4675 -5.9375 10.1875 C-6.5975 9.8575 -7.2575 9.5275 -7.9375 9.1875 C-8.03515625 3.03515625 -8.03515625 3.03515625 -7.9375 1.1875 C-6.00408053 -0.74591947 -2.56270879 0.01300867 0 0 Z " fill="#BFBBB6" transform="translate(164.9375,54.8125)"/>
<path d="M0 0 C2.64 0 5.28 0 8 0 C8.33 0.66 8.66 1.32 9 2 C8.67 2.66 8.34 3.32 8 4 C9.98 4 11.96 4 14 4 C14 4.33 14 4.66 14 5 C8.5610835 5.21755666 4.12919186 5.10428384 -1 3 C-0.67 2.01 -0.34 1.02 0 0 Z " fill="#B1A99C" transform="translate(156,280)"/>
<path d="M0 0 C0.99 0 1.98 0 3 0 C4.83691257 3.78187881 5.15837626 5.94568308 4 10 C-0.73509934 6.6004415 -0.73509934 6.6004415 -1.9375 3.875 C-1.958125 3.25625 -1.97875 2.6375 -2 2 C-1.34 1.34 -0.68 0.68 0 0 Z " fill="#F2EEEC" transform="translate(178,55)"/>
<path d="M0 0 C0.515625 0.309375 1.03125 0.61875 1.5625 0.9375 C4.66665423 2.29059287 7.65115007 2.61359424 11 3 C11 3.99 11 4.98 11 6 C7.7 5.67 4.4 5.34 1 5 C0.67 3.35 0.34 1.7 0 0 Z " fill="#9F968C" transform="translate(143,277)"/>
<path d="M0 0 C1.65 0.33 3.3 0.66 5 1 C4.34 2.32 3.68 3.64 3 5 C1.35 5 -0.3 5 -2 5 C-1.34 3.35 -0.68 1.7 0 0 Z " fill="#E1DCD4" transform="translate(190,278)"/>
<path d="M0 0 C2 3 2 3 1.625 5.1875 C1.41875 5.785625 1.2125 6.38375 1 7 C-0.32 7 -1.64 7 -3 7 C-3.1875 4.625 -3.1875 4.625 -3 2 C-2.01 1.34 -1.02 0.68 0 0 Z " fill="#B0A99C" transform="translate(147,258)"/>
<path d="M0 0 C0.33 0 0.66 0 1 0 C1.36630156 3.93774177 1.30233203 5.56539771 -1 8.875 C-1.66 9.57625 -2.32 10.2775 -3 11 C-2.53199289 6.94393835 -2.12046792 3.53411321 0 0 Z " fill="#CAC9C3" transform="translate(149,144)"/>
<path d="M0 0 C0.33 0 0.66 0 1 0 C0.67 3.63 0.34 7.26 0 11 C-0.99 10.34 -1.98 9.68 -3 9 C-2.67 7.35 -2.34 5.7 -2 4 C-1.34 4 -0.68 4 0 4 C0 2.68 0 1.36 0 0 Z " fill="#ADA89F" transform="translate(165,69)"/>
</svg>
