<?xml version="1.0" encoding="UTF-8"?>
<svg version="1.1" xmlns="http://www.w3.org/2000/svg" width="340" height="340">
<path d="M0 0 C112.2 0 224.4 0 340 0 C340 112.2 340 224.4 340 340 C227.8 340 115.6 340 0 340 C0 227.8 0 115.6 0 0 Z " fill="#E1E3E3" transform="translate(0,0)"/>
<path d="M0 0 C1.70434204 0.0012085 1.70434204 0.0012085 3.44311523 0.00244141 C32.54893763 0.21196882 32.54893763 0.21196882 42.5 5.1875 C42.21362305 7.08251953 42.21362305 7.08251953 41.5 9.1875 C35.51936764 12.12655362 29.77107991 12.81690948 23.1875 13.3125 C21.42032506 13.457957 19.65338226 13.60627026 17.88671875 13.7578125 C17.11545654 13.81727051 16.34419434 13.87672852 15.54956055 13.93798828 C13.30327289 14.14237308 13.30327289 14.14237308 10.5 15.1875 C10.5 15.8475 10.5 16.5075 10.5 17.1875 C3.57 17.1875 -3.36 17.1875 -10.5 17.1875 C-10.5 16.5275 -10.5 15.8675 -10.5 15.1875 C-11.82 15.1875 -13.14 15.1875 -14.5 15.1875 C-14.5 15.8475 -14.5 16.5075 -14.5 17.1875 C-23.45652174 17.81358696 -23.45652174 17.81358696 -27.625 15.3125 C-29.5 13.1875 -29.5 13.1875 -29.5 11.1875 C-30.18707031 11.22230469 -30.87414062 11.25710937 -31.58203125 11.29296875 C-32.48308594 11.32003906 -33.38414062 11.34710938 -34.3125 11.375 C-35.20582031 11.40980469 -36.09914062 11.44460937 -37.01953125 11.48046875 C-39.91647515 11.13831002 -40.72555028 10.43356427 -42.5 8.1875 C-37.67812771 4.16927309 -33.27927256 3.40314946 -27.109375 2.58203125 C-24.52491392 2.32848709 -24.52491392 2.32848709 -22.5 1.1875 C-15.06199451 0.00171747 -7.51252338 -0.00557681 0 0 Z " fill="#9CB5A6" transform="translate(174.5,182.8125)"/>
<path d="M0 0 C7.66644467 -0.12365233 15.23228571 0.35813295 22.875 0.9375 C24.70804688 1.06801758 24.70804688 1.06801758 26.578125 1.20117188 C28.32996094 1.33168945 28.32996094 1.33168945 30.1171875 1.46484375 C31.17534668 1.543396 32.23350586 1.62194824 33.32373047 1.70288086 C36 2 36 2 39 3 C39 3.66 39 4.32 39 5 C32.07 5 25.14 5 18 5 C18 4.34 18 3.68 18 3 C16.68 3 15.36 3 14 3 C14 3.66 14 4.32 14 5 C12.41753293 5.08153933 10.83383727 5.13943557 9.25 5.1875 C7.92742187 5.23970703 7.92742187 5.23970703 6.578125 5.29296875 C3.52389051 4.94589665 2.19435701 4.11745198 0 2 C0 1.34 0 0.68 0 0 Z " fill="#C2CABD" transform="translate(146,195)"/>
<path d="M0 0 C0.845625 0.144375 1.69125 0.28875 2.5625 0.4375 C8.78992186 1.45653267 14.69044585 2.2474335 21 2 C21 2.33 21 2.66 21 3 C29.91 3 38.82 3 48 3 C41.37504012 6.31247994 35.06837414 6.16300236 27.8125 6.125 C26.87720459 6.12089111 25.94190918 6.11678223 24.97827148 6.11254883 C6.37369885 5.96202901 6.37369885 5.96202901 0 2 C0 1.34 0 0.68 0 0 Z " fill="#9B9588" transform="translate(144,286)"/>
<path d="M0 0 C1.53720703 0.01450195 1.53720703 0.01450195 3.10546875 0.02929688 C4.70068359 0.06700195 4.70068359 0.06700195 6.328125 0.10546875 C7.94654297 0.12577148 7.94654297 0.12577148 9.59765625 0.14648438 C12.2583192 0.18180291 14.91796796 0.23112676 17.578125 0.29296875 C17.248125 1.28296875 16.918125 2.27296875 16.578125 3.29296875 C15.81628906 3.18597656 15.05445313 3.07898438 14.26953125 2.96875 C7.88619281 2.22761333 3.44608658 2.31944608 -2.5078125 4.72265625 C-4.421875 5.29296875 -4.421875 5.29296875 -7.484375 4.48046875 C-8.12375 4.08859375 -8.763125 3.69671875 -9.421875 3.29296875 C-6.23351134 0.44902709 -4.23901246 -0.07065021 0 0 Z " fill="#8BA091" transform="translate(171.421875,184.70703125)"/>
<path d="M0 0 C1.79244141 0.00676758 1.79244141 0.00676758 3.62109375 0.01367188 C6.53911647 0.02534397 9.45703037 0.04171674 12.375 0.0625 C12.375 0.3925 12.375 0.7225 12.375 1.0625 C11.7766333 1.08231934 11.1782666 1.10213867 10.56176758 1.12255859 C-4.70668298 1.64143719 -4.70668298 1.64143719 -19.83984375 3.5859375 C-24.07854135 4.31121254 -28.34255319 4.69515693 -32.625 5.0625 C-32.625 4.4025 -32.625 3.7425 -32.625 3.0625 C-21.69692018 0.41860972 -11.22948034 -0.08137305 0 0 Z " fill="#C1CBC4" transform="translate(175.625,182.9375)"/>
<path d="M0 0 C17.21359223 1.10679612 17.21359223 1.10679612 23 4 C22.625 5.9375 22.625 5.9375 22 8 C21.01 8.495 21.01 8.495 20 9 C20 8.34 20 7.68 20 7 C15.02638346 5.24265549 10.2584002 3.67415387 5 3 C5 2.34 5 1.68 5 1 C3.35 1 1.7 1 0 1 C0 0.67 0 0.34 0 0 Z " fill="#B7C6C0" transform="translate(194,184)"/>
<path d="M0 0 C6.6 0 13.2 0 20 0 C13.15581216 3.42209392 6.6175404 3.12849121 -0.875 3.0625 C-1.84953125 3.05798828 -2.8240625 3.05347656 -3.828125 3.04882812 C-6.21881434 3.03710906 -8.6093744 3.02070219 -11 3 C-11 2.67 -11 2.34 -11 2 C-5.555 1.505 -5.555 1.505 0 1 C0 0.67 0 0.34 0 0 Z " fill="#B8B4AA" transform="translate(172,289)"/>
<path d="M0 0 C1.41655793 -0.0272415 2.83327045 -0.04650467 4.25 -0.0625 C5.43335938 -0.07990234 5.43335938 -0.07990234 6.640625 -0.09765625 C8.90691002 -0.00385306 10.8288895 0.36758937 13 1 C13 1.66 13 2.32 13 3 C11.39667209 3.08121924 9.79215974 3.13929134 8.1875 3.1875 C7.29417969 3.22230469 6.40085938 3.25710937 5.48046875 3.29296875 C2.58352485 2.95081002 1.77444972 2.24606427 0 0 Z " fill="#B1B4A7" transform="translate(147,197)"/>
<path d="M0 0 C-2.92811859 2.49432325 -5.13263984 3.71702243 -9 4 C-11.8125 3.0625 -11.8125 3.0625 -14 2 C-14 1.67 -14 1.34 -14 1 C-9.23692563 0.04738513 -4.8333472 -0.08333357 0 0 Z " fill="#7F9B89" transform="translate(176,186)"/>
<path d="M0 0 C4.29 0.66 8.58 1.32 13 2 C12.01 2.99 11.02 3.98 10 5 C6.22372667 4.75896128 3.26973374 3.88638485 0 2 C0 1.34 0 0.68 0 0 Z " fill="#B5B2A8" transform="translate(144,286)"/>
<path d="M0 0 C1.93816735 0.1141866 3.87555099 0.24173423 5.8125 0.375 C6.89144531 0.44460937 7.97039062 0.51421875 9.08203125 0.5859375 C12 1 12 1 15 3 C11.42355152 4.2380014 8.66305234 3.74926071 5 3 C5 2.34 5 1.68 5 1 C3.35 1 1.7 1 0 1 C0 0.67 0 0.34 0 0 Z " fill="#B4BFB8" transform="translate(194,184)"/>
<path d="M0 0 C3.66881155 0.70554068 6.70450534 2.27735506 10 4 C10 4.33 10 4.66 10 5 C2.25 4.125 2.25 4.125 0 3 C0 2.01 0 1.02 0 0 Z " fill="#C9CEC7" transform="translate(125,190)"/>
<path d="M0 0 C-2.475 1.485 -2.475 1.485 -5 3 C-4.01 4.485 -4.01 4.485 -3 6 C-4.65 5.67 -6.3 5.34 -8 5 C-6.19780722 -0.02039417 -5.34443412 -1.60333024 0 0 Z " fill="#D8E1DA" transform="translate(138,188)"/>
<path d="M0 0 C2.97 0 5.94 0 9 0 C9 0.99 9 1.98 9 3 C6.03 2.67 3.06 2.34 0 2 C0 1.34 0 0.68 0 0 Z " fill="#C4CCC3" transform="translate(136,194)"/>
</svg>
