<?xml version="1.0" encoding="UTF-8"?>
<svg version="1.1" xmlns="http://www.w3.org/2000/svg" width="340" height="340">
<path d="M0 0 C112.2 0 224.4 0 340 0 C340 112.2 340 224.4 340 340 C227.8 340 115.6 340 0 340 C0 227.8 0 115.6 0 0 Z " fill="#E2E4E4" transform="translate(0,0)"/>
<path d="M0 0 C1.87220215 0.0012085 1.87220215 0.0012085 3.78222656 0.00244141 C15.63096534 0.08089969 27.12833836 0.85253619 38.5625 4.1875 C38.30639648 6.08276367 38.30639648 6.08276367 37.5625 8.1875 C31.8514952 11.57396216 24.4684114 11.85771692 18 12.375 C17.08669922 12.45685547 16.17339844 12.53871094 15.23242188 12.62304688 C13.00976687 12.82087481 10.78676445 13.00885324 8.5625 13.1875 C9.50351563 13.32027344 10.44453125 13.45304688 11.4140625 13.58984375 C12.65929687 13.76644531 13.90453125 13.94304687 15.1875 14.125 C17.03214844 14.38603516 17.03214844 14.38603516 18.9140625 14.65234375 C21.16196684 14.98206848 23.40347416 15.36770875 25.625 15.84375 C29.09706632 16.25005563 31.58035257 15.68254095 34.9375 14.75 C35.99710937 14.46253906 37.05671875 14.17507812 38.1484375 13.87890625 C38.94507813 13.65074219 39.74171875 13.42257813 40.5625 13.1875 C40.5625 14.8375 40.5625 16.4875 40.5625 18.1875 C39.9025 18.1875 39.2425 18.1875 38.5625 18.1875 C38.80033203 19.12335938 38.80033203 19.12335938 39.04296875 20.078125 C42.86509942 42.95343337 36.7408909 67.11941312 30.84936523 89.09204102 C28.62077196 97.69255338 27.02689615 106.46527888 29.5625 115.1875 C26.52132646 116.95804624 24.43868352 117.39637055 20.9375 117.25 C17.62003853 117.07311667 17.62003853 117.07311667 14.5625 118.1875 C11.7013904 118.28690269 8.86520126 118.3272897 6.00390625 118.3203125 C5.14498276 118.32126923 4.28605927 118.32222595 3.40110779 118.32321167 C1.57607958 118.32389339 -0.24895104 118.32203964 -2.07397461 118.31787109 C-4.83257711 118.31258135 -7.59101236 118.31778557 -10.34960938 118.32421875 C-19.09000439 118.32719501 -27.75060714 118.29367722 -36.4375 117.1875 C-36.4375 116.8575 -36.4375 116.5275 -36.4375 116.1875 C-32.9725 115.6925 -32.9725 115.6925 -29.4375 115.1875 C-29.76500548 108.51316412 -30.39974141 102.60811836 -32.74609375 96.33984375 C-33.70714707 93.34809019 -33.9246102 90.40628587 -34.203125 87.2890625 C-34.55744521 84.1119913 -35.47294191 81.23347291 -36.4375 78.1875 C-37.12768477 75.98000428 -37.81493401 73.77158962 -38.5 71.5625 C-38.84160156 70.47710937 -39.18320313 69.39171875 -39.53515625 68.2734375 C-40.98582926 63.31226141 -41.58862472 58.74516936 -41.75390625 53.57421875 C-41.79580078 52.32705078 -41.83769531 51.07988281 -41.88085938 49.79492188 C-41.92017578 48.50134766 -41.95949219 47.20777344 -42 45.875 C-42.04318359 44.56208984 -42.08636719 43.24917969 -42.13085938 41.89648438 C-42.23677227 38.66025712 -42.33884885 35.42395542 -42.4375 32.1875 C-43.4275 32.1875 -44.4175 32.1875 -45.4375 32.1875 C-45.4375 25.2575 -45.4375 18.3275 -45.4375 11.1875 C-44.4475 11.1875 -43.4575 11.1875 -42.4375 11.1875 C-42.4375 10.5275 -42.4375 9.8675 -42.4375 9.1875 C-43.0975 9.1875 -43.7575 9.1875 -44.4375 9.1875 C-44.4375 8.5275 -44.4375 7.8675 -44.4375 7.1875 C-42.1275 7.1875 -39.8175 7.1875 -37.4375 7.1875 C-37.4375 6.1975 -37.4375 5.2075 -37.4375 4.1875 C-36.29410156 4.05472656 -35.15070313 3.92195312 -33.97265625 3.78515625 C-32.4817438 3.6069969 -30.99085982 3.42859918 -29.5 3.25 C-28.74525391 3.16298828 -27.99050781 3.07597656 -27.21289062 2.98632812 C-23.51562542 2.84425901 -23.51562542 2.84425901 -20.4375 1.1875 C-13.68913809 -0.1776636 -6.86004128 -0.00455514 0 0 Z " fill="#BBB8AB" transform="translate(173.4375,166.8125)"/>
<path d="M0 0 C1.50818047 0.00424484 1.50818047 0.00424484 3.04682922 0.00857544 C6.21494146 0.01964763 9.38275646 0.04472693 12.55078125 0.0703125 C14.71679275 0.08035909 16.88280875 0.08948198 19.04882812 0.09765625 C24.32041156 0.11954425 29.59182516 0.15288958 34.86328125 0.1953125 C34.86328125 0.8553125 34.86328125 1.5153125 34.86328125 2.1953125 C39.81328125 2.6903125 39.81328125 2.6903125 44.86328125 3.1953125 C44.53328125 3.8553125 44.20328125 4.5153125 43.86328125 5.1953125 C41.91381836 5.60595703 41.91381836 5.60595703 39.390625 5.828125 C38.49150391 5.91191406 37.59238281 5.99570313 36.66601562 6.08203125 C35.72048828 6.16066406 34.77496094 6.23929688 33.80078125 6.3203125 C32.85138672 6.40667969 31.90199219 6.49304688 30.92382812 6.58203125 C28.57093033 6.79485618 26.2175953 6.99888281 23.86328125 7.1953125 C24.80429688 7.32808594 25.7453125 7.46085938 26.71484375 7.59765625 C27.96007812 7.77425781 29.2053125 7.95085937 30.48828125 8.1328125 C32.33292969 8.39384766 32.33292969 8.39384766 34.21484375 8.66015625 C36.46274809 8.98988098 38.70425541 9.37552125 40.92578125 9.8515625 C44.39784757 10.25786813 46.88113382 9.69035345 50.23828125 8.7578125 C51.29789062 8.47035156 52.3575 8.18289062 53.44921875 7.88671875 C54.24585938 7.65855469 55.0425 7.43039063 55.86328125 7.1953125 C55.86328125 8.8453125 55.86328125 10.4953125 55.86328125 12.1953125 C55.20328125 12.1953125 54.54328125 12.1953125 53.86328125 12.1953125 C54.0226416 12.92186035 54.18200195 13.6484082 54.34619141 14.39697266 C56.60034255 26.59578305 55.68614182 39.15673945 51.171875 50.640625 C49.29146699 55.748599 48.40202246 60.90126986 47.44140625 66.24609375 C46.86328125 69.1953125 46.86328125 69.1953125 45.86328125 71.1953125 C44.87328125 71.1953125 43.88328125 71.1953125 42.86328125 71.1953125 C42.86328125 68.2253125 42.86328125 65.2553125 42.86328125 62.1953125 C43.52328125 62.1953125 44.18328125 62.1953125 44.86328125 62.1953125 C43.87328125 59.2253125 42.88328125 56.2553125 41.86328125 53.1953125 C42.85328125 53.1953125 43.84328125 53.1953125 44.86328125 53.1953125 C45.35828125 52.2053125 45.35828125 52.2053125 45.86328125 51.1953125 C44.21328125 51.5253125 42.56328125 51.8553125 40.86328125 52.1953125 C40.86328125 51.2053125 40.86328125 50.2153125 40.86328125 49.1953125 C39.21328125 49.5253125 37.56328125 49.8553125 35.86328125 50.1953125 C36.52328125 49.8653125 37.18328125 49.5353125 37.86328125 49.1953125 C38.19328125 48.2053125 38.52328125 47.2153125 38.86328125 46.1953125 C39.35828125 45.2053125 39.35828125 45.2053125 39.86328125 44.1953125 C38.54328125 44.5253125 37.22328125 44.8553125 35.86328125 45.1953125 C35.86328125 44.5353125 35.86328125 43.8753125 35.86328125 43.1953125 C35.20328125 43.1953125 34.54328125 43.1953125 33.86328125 43.1953125 C33.14938265 45.66375495 33.14938265 45.66375495 32.86328125 48.1953125 C32.53947999 49.53099271 32.20670574 50.86454261 31.86328125 52.1953125 C30.87328125 50.8753125 29.88328125 49.5553125 28.86328125 48.1953125 C28.20328125 50.1753125 27.54328125 52.1553125 26.86328125 54.1953125 C25.54328125 54.1953125 24.22328125 54.1953125 22.86328125 54.1953125 C23.35828125 56.6703125 23.35828125 56.6703125 23.86328125 59.1953125 C22.54328125 59.1953125 21.22328125 59.1953125 19.86328125 59.1953125 C19.53328125 58.2053125 19.20328125 57.2153125 18.86328125 56.1953125 C19.52328125 55.8653125 20.18328125 55.5353125 20.86328125 55.1953125 C21.19328125 54.2053125 21.52328125 53.2153125 21.86328125 52.1953125 C23.18328125 52.1953125 24.50328125 52.1953125 25.86328125 52.1953125 C25.53328125 50.5453125 25.20328125 48.8953125 24.86328125 47.1953125 C23.87328125 47.6903125 23.87328125 47.6903125 22.86328125 48.1953125 C21.87328125 48.5253125 20.88328125 48.8553125 19.86328125 49.1953125 C19.53328125 50.1853125 19.20328125 51.1753125 18.86328125 52.1953125 C17.21328125 51.8653125 15.56328125 51.5353125 13.86328125 51.1953125 C14.23828125 49.2578125 14.23828125 49.2578125 14.86328125 47.1953125 C15.52328125 46.8653125 16.18328125 46.5353125 16.86328125 46.1953125 C15.87328125 45.5353125 14.88328125 44.8753125 13.86328125 44.1953125 C13.53328125 43.5353125 13.20328125 42.8753125 12.86328125 42.1953125 C9.99603439 42.76876187 9.00182975 43.056764 6.86328125 45.1953125 C6.53328125 43.5453125 6.20328125 41.8953125 5.86328125 40.1953125 C5.20328125 40.1953125 4.54328125 40.1953125 3.86328125 40.1953125 C3.61578125 40.9996875 3.36828125 41.8040625 3.11328125 42.6328125 C1.86328125 45.1953125 1.86328125 45.1953125 -0.26171875 46.0078125 C-0.88046875 46.0696875 -1.49921875 46.1315625 -2.13671875 46.1953125 C-2.46671875 47.8453125 -2.79671875 49.4953125 -3.13671875 51.1953125 C-3.79671875 51.1953125 -4.45671875 51.1953125 -5.13671875 51.1953125 C-5.46671875 49.8753125 -5.79671875 48.5553125 -6.13671875 47.1953125 C-6.79671875 47.1953125 -7.45671875 47.1953125 -8.13671875 47.1953125 C-8.13671875 46.5353125 -8.13671875 45.8753125 -8.13671875 45.1953125 C-9.62171875 45.6903125 -9.62171875 45.6903125 -11.13671875 46.1953125 C-11.23453038 41.4025427 -10.85136663 36.9298547 -10.13671875 32.1953125 C-10.13671875 30.8753125 -10.13671875 29.5553125 -10.13671875 28.1953125 C-12.11671875 27.8653125 -14.09671875 27.5353125 -16.13671875 27.1953125 C-16.13671875 26.5353125 -16.13671875 25.8753125 -16.13671875 25.1953125 C-15.47671875 25.1953125 -14.81671875 25.1953125 -14.13671875 25.1953125 C-14.13671875 24.2053125 -14.13671875 23.2153125 -14.13671875 22.1953125 C-15.12671875 21.8653125 -16.11671875 21.5353125 -17.13671875 21.1953125 C-17.47005208 19.86197917 -17.80338542 18.52864583 -18.13671875 17.1953125 C-19.12671875 16.8653125 -20.11671875 16.5353125 -21.13671875 16.1953125 C-21.13671875 15.5353125 -21.13671875 14.8753125 -21.13671875 14.1953125 C-22.45671875 14.5253125 -23.77671875 14.8553125 -25.13671875 15.1953125 C-25.46671875 13.2153125 -25.79671875 11.2353125 -26.13671875 9.1953125 C-22.50671875 9.5253125 -18.87671875 9.8553125 -15.13671875 10.1953125 C-14.47671875 8.8753125 -13.81671875 7.5553125 -13.13671875 6.1953125 C-14.31852557 4.80885881 -14.31852557 4.80885881 -17.63671875 4.7578125 C-18.79171875 4.5721875 -19.94671875 4.3865625 -21.13671875 4.1953125 C-21.46671875 3.5353125 -21.79671875 2.8753125 -22.13671875 2.1953125 C-14.67425124 0.60026143 -7.62166392 -0.08286658 0 0 Z " fill="#B1AC9E" transform="translate(158.13671875,172.8046875)"/>
<path d="M0 0 C1.50818047 0.00424484 1.50818047 0.00424484 3.04682922 0.00857544 C6.21494146 0.01964763 9.38275646 0.04472693 12.55078125 0.0703125 C14.71679275 0.08035909 16.88280875 0.08948198 19.04882812 0.09765625 C24.32041156 0.11954425 29.59182516 0.15288958 34.86328125 0.1953125 C34.86328125 0.8553125 34.86328125 1.5153125 34.86328125 2.1953125 C39.81328125 2.6903125 39.81328125 2.6903125 44.86328125 3.1953125 C44.53328125 3.8553125 44.20328125 4.5153125 43.86328125 5.1953125 C41.91381836 5.60595703 41.91381836 5.60595703 39.390625 5.828125 C38.49150391 5.91191406 37.59238281 5.99570313 36.66601562 6.08203125 C35.72048828 6.16066406 34.77496094 6.23929688 33.80078125 6.3203125 C32.85138672 6.40667969 31.90199219 6.49304688 30.92382812 6.58203125 C28.57093033 6.79485618 26.2175953 6.99888281 23.86328125 7.1953125 C38.29855313 9.46058412 38.29855313 9.46058412 52.86328125 10.1953125 C52.86328125 10.8553125 52.86328125 11.5153125 52.86328125 12.1953125 C49.95779243 14.23700735 48.46186079 15.1953125 44.86328125 15.1953125 C44.86328125 16.1853125 44.86328125 17.1753125 44.86328125 18.1953125 C43.37828125 18.6903125 43.37828125 18.6903125 41.86328125 19.1953125 C41.86328125 18.5353125 41.86328125 17.8753125 41.86328125 17.1953125 C40.66703125 17.5665625 39.47078125 17.9378125 38.23828125 18.3203125 C34.17182898 19.36576566 31.78124485 18.78115491 27.86328125 17.1953125 C26.87328125 17.6903125 26.87328125 17.6903125 25.86328125 18.1953125 C23.25440268 18.42985097 20.66472885 18.61582603 18.05078125 18.7578125 C17.33857422 18.80099609 16.62636719 18.84417969 15.89257812 18.88867188 C12.21183128 19.10318349 8.55022427 19.24601702 4.86328125 19.1953125 C4.86328125 18.5353125 4.86328125 17.8753125 4.86328125 17.1953125 C4.20328125 17.1953125 3.54328125 17.1953125 2.86328125 17.1953125 C2.86328125 17.8553125 2.86328125 18.5153125 2.86328125 19.1953125 C0.30129555 19.4451889 -2.25906006 19.67072366 -4.82421875 19.8828125 C-5.54544922 19.95564453 -6.26667969 20.02847656 -7.00976562 20.10351562 C-11.75493458 20.47186207 -14.30554477 19.99103405 -18.13671875 17.1953125 C-19.12671875 16.8653125 -20.11671875 16.5353125 -21.13671875 16.1953125 C-21.13671875 15.5353125 -21.13671875 14.8753125 -21.13671875 14.1953125 C-22.45671875 14.5253125 -23.77671875 14.8553125 -25.13671875 15.1953125 C-25.46671875 13.2153125 -25.79671875 11.2353125 -26.13671875 9.1953125 C-22.50671875 9.5253125 -18.87671875 9.8553125 -15.13671875 10.1953125 C-14.47671875 8.8753125 -13.81671875 7.5553125 -13.13671875 6.1953125 C-14.31852557 4.80885881 -14.31852557 4.80885881 -17.63671875 4.7578125 C-18.79171875 4.5721875 -19.94671875 4.3865625 -21.13671875 4.1953125 C-21.46671875 3.5353125 -21.79671875 2.8753125 -22.13671875 2.1953125 C-14.67425124 0.60026143 -7.62166392 -0.08286658 0 0 Z " fill="#C0B8B0" transform="translate(158.13671875,172.8046875)"/>
<path d="M0 0 C0 1.65 0 3.3 0 5 C-0.66 5 -1.32 5 -2 5 C-1.75552124 6.07350708 -1.75552124 6.07350708 -1.50610352 7.16870117 C-1.00807929 9.95480197 -0.8858165 12.47462208 -0.90234375 15.30078125 C-0.90556641 16.27724609 -0.90878906 17.25371094 -0.91210938 18.25976562 C-0.92467773 19.77086914 -0.92467773 19.77086914 -0.9375 21.3125 C-0.94201172 22.33923828 -0.94652344 23.36597656 -0.95117188 24.42382812 C-0.96291816 26.94927882 -0.97934435 29.47460905 -1 32 C-1.33 32 -1.66 32 -2 32 C-2.19916016 31.09507812 -2.19916016 31.09507812 -2.40234375 30.171875 C-2.57894531 29.37265625 -2.75554687 28.5734375 -2.9375 27.75 C-3.11152344 26.96109375 -3.28554687 26.1721875 -3.46484375 25.359375 C-3.947556 23.23121297 -4.46163178 21.11467158 -5 19 C-5.99 19 -6.98 19 -8 19 C-8.66 19 -9.32 19 -10 19 C-9.67 19.66 -9.34 20.32 -9 21 C-8.01 20.67 -7.02 20.34 -6 20 C-6.33 21.65 -6.66 23.3 -7 25 C-6.01 25.33 -5.02 25.66 -4 26 C-5.32 26 -6.64 26 -8 26 C-8.33 25.34 -8.66 24.68 -9 24 C-9.99 24.99 -10.98 25.98 -12 27 C-12.66 26.67 -13.32 26.34 -14 26 C-14.33 26.99 -14.66 27.98 -15 29 C-15 28.34 -15 27.68 -15 27 C-15.99 27.33 -16.98 27.66 -18 28 C-19.22520264 31.00847418 -19.22520264 31.00847418 -20 34 C-22.475 34.495 -22.475 34.495 -25 35 C-25 33 -25 33 -23.5 31.375 C-23.005 30.92125 -22.51 30.4675 -22 30 C-22.66 30 -23.32 30 -24 30 C-24 28.68 -24 27.36 -24 26 C-23.34 26 -22.68 26 -22 26 C-22 25.34 -22 24.68 -22 24 C-22.66 24 -23.32 24 -24 24 C-24 23.34 -24 22.68 -24 22 C-23.01 21.67 -22.02 21.34 -21 21 C-21.66 20.67 -22.32 20.34 -23 20 C-23 19.34 -23 18.68 -23 18 C-23.66 18 -24.32 18 -25 18 C-25.33 18.66 -25.66 19.32 -26 20 C-26.33 20.33 -26.66 20.66 -27 21 C-27.99 20.67 -28.98 20.34 -30 20 C-30 19.34 -30 18.68 -30 18 C-30.66 18 -31.32 18 -32 18 C-32.33 18.66 -32.66 19.32 -33 20 C-33.66 18.35 -34.32 16.7 -35 15 C-30.545 14.505 -30.545 14.505 -26 14 C-26.33 13.01 -26.66 12.02 -27 11 C-25.453125 11.0309375 -25.453125 11.0309375 -23.875 11.0625 C-20.08680668 11.10129037 -20.08680668 11.10129037 -16.75 10.4375 C-14 10 -14 10 -11 11 C-11 10.01 -11 9.02 -11 8 C-5.25 5 -5.25 5 -3 5 C-3 4.34 -3 3.68 -3 3 C-4.98 3.33 -6.96 3.66 -9 4 C-9.33 3.34 -9.66 2.68 -10 2 C-8.7090864 1.66376204 -7.41723903 1.33110751 -6.125 1 C-5.40570313 0.814375 -4.68640625 0.62875 -3.9453125 0.4375 C-2 0 -2 0 0 0 Z " fill="#C8C4B8" transform="translate(214,180)"/>
<path d="M0 0 C1.60294922 0.01353516 1.60294922 0.01353516 3.23828125 0.02734375 C4.04652344 0.03894531 4.85476562 0.05054688 5.6875 0.0625 C5.6875 0.7225 5.6875 1.3825 5.6875 2.0625 C2.78201118 4.10419485 1.28607954 5.0625 -2.3125 5.0625 C-2.3125 6.0525 -2.3125 7.0425 -2.3125 8.0625 C-3.3025 8.3925 -4.2925 8.7225 -5.3125 9.0625 C-5.3125 8.4025 -5.3125 7.7425 -5.3125 7.0625 C-7.106875 7.619375 -7.106875 7.619375 -8.9375 8.1875 C-13.00395227 9.23295316 -15.3945364 8.64834241 -19.3125 7.0625 C-19.9725 7.3925 -20.6325 7.7225 -21.3125 8.0625 C-23.92137857 8.29703847 -26.5110524 8.48301353 -29.125 8.625 C-29.83720703 8.66818359 -30.54941406 8.71136719 -31.28320312 8.75585938 C-34.96394997 8.97037099 -38.62555698 9.11320452 -42.3125 9.0625 C-42.3125 8.4025 -42.3125 7.7425 -42.3125 7.0625 C-42.9725 7.0625 -43.6325 7.0625 -44.3125 7.0625 C-44.3125 7.7225 -44.3125 8.3825 -44.3125 9.0625 C-46.89531438 9.31177162 -49.47662228 9.53749275 -52.0625 9.75 C-53.15691406 9.85924805 -53.15691406 9.85924805 -54.2734375 9.97070312 C-57.61380996 10.22882282 -59.8403093 10.31692573 -62.828125 8.70703125 C-64.3125 7.0625 -64.3125 7.0625 -64.3125 5.0625 C-65.3025 5.0625 -66.2925 5.0625 -67.3125 5.0625 C-67.3125 4.0725 -67.3125 3.0825 -67.3125 2.0625 C-66.24 2.083125 -65.1675 2.10375 -64.0625 2.125 C-60.54307037 2.23272651 -60.54307037 2.23272651 -58.1875 1.4375 C-55.47783974 0.89556795 -53.75293962 1.91007018 -51.3125 3.0625 C-50.9825 2.4025 -50.6525 1.7425 -50.3125 1.0625 C-49.0440625 1.31 -49.0440625 1.31 -47.75 1.5625 C-44.2114601 2.07719671 -40.88369597 2.12863326 -37.3125 2.0625 C-33.16383309 2.0625 -29.18335606 2.47760523 -25.06640625 2.94140625 C-22.3144143 3.17283448 -22.3144143 3.17283448 -19.671875 2.53125 C-16.45044769 1.89123133 -14.31434174 2.87572536 -11.3125 4.0625 C-11.3125 3.0725 -11.3125 2.0825 -11.3125 1.0625 C-7.47525828 0.15836327 -3.93747726 -0.04326898 0 0 Z " fill="#4B3F3B" transform="translate(205.3125,182.9375)"/>
<path d="M0 0 C0.99 0.33 1.98 0.66 3 1 C3 1.66 3 2.32 3 3 C3.99 3.66 4.98 4.32 6 5 C5.67 5.33 5.34 5.66 5 6 C5.66 6.33 6.32 6.66 7 7 C7.66 5.68 8.32 4.36 9 3 C9.99 3 10.98 3 12 3 C13.9829823 4.9829823 14.79378573 6.51218307 16 9 C16.99 10.485 16.99 10.485 18 12 C17.67 12.66 17.34 13.32 17 14 C17.66 14.33 18.32 14.66 19 15 C19 15.66 19 16.32 19 17 C19.99 16.67 20.98 16.34 22 16 C22 16.99 22 17.98 22 19 C22.66 19 23.32 19 24 19 C23.67 19.99 23.34 20.98 23 22 C19.04 22.495 19.04 22.495 15 23 C16.44754255 24.44754255 18.03962913 24.55733561 20 25 C19.67 25.99 19.34 26.98 19 28 C16.9375 28.6875 16.9375 28.6875 15 29 C14.505 31.475 14.505 31.475 14 34 C13.34 34 12.68 34 12 34 C11.67 32.68 11.34 31.36 11 30 C10.34 30 9.68 30 9 30 C9 29.34 9 28.68 9 28 C8.01 28.33 7.02 28.66 6 29 C5.90218837 24.2072302 6.28535212 19.7345422 7 15 C7 13.68 7 12.36 7 11 C4.03 10.505 4.03 10.505 1 10 C1 9.34 1 8.68 1 8 C1.66 8 2.32 8 3 8 C3 7.01 3 6.02 3 5 C2.01 4.67 1.02 4.34 0 4 C0 2.68 0 1.36 0 0 Z " fill="#A9A79C" transform="translate(141,190)"/>
<path d="M0 0 C1.50818047 0.00424484 1.50818047 0.00424484 3.04682922 0.00857544 C6.21494146 0.01964763 9.38275646 0.04472693 12.55078125 0.0703125 C14.71679275 0.08035909 16.88280875 0.08948198 19.04882812 0.09765625 C24.32041156 0.11954425 29.59182516 0.15288958 34.86328125 0.1953125 C34.86328125 0.8553125 34.86328125 1.5153125 34.86328125 2.1953125 C38.16328125 2.5253125 41.46328125 2.8553125 44.86328125 3.1953125 C44.53328125 3.8553125 44.20328125 4.5153125 43.86328125 5.1953125 C35.13012863 6.81302967 25.83645647 6.3883364 16.98828125 6.3828125 C16.3193988 6.38287292 15.65051636 6.38293335 14.96136475 6.38299561 C5.94399788 6.37146067 -3.02418353 6.11048365 -12.01171875 5.3203125 C-12.93194824 5.24192139 -13.85217773 5.16353027 -14.80029297 5.08276367 C-16.92221095 4.86801882 -19.03263264 4.5438421 -21.13671875 4.1953125 C-21.46671875 3.5353125 -21.79671875 2.8753125 -22.13671875 2.1953125 C-14.67425124 0.60026143 -7.62166392 -0.08286658 0 0 Z " fill="#342925" transform="translate(158.13671875,172.8046875)"/>
<path d="M0 0 C0.66 0 1.32 0 2 0 C2 0.66 2 1.32 2 2 C2.65484375 1.93941406 3.3096875 1.87882813 3.984375 1.81640625 C10.98663453 1.17354344 17.99184389 0.57484003 25 0 C24.67 0.99 24.34 1.98 24 3 C23.07767578 2.98259766 23.07767578 2.98259766 22.13671875 2.96484375 C20.92435547 2.95130859 20.92435547 2.95130859 19.6875 2.9375 C18.88699219 2.92589844 18.08648437 2.91429687 17.26171875 2.90234375 C14.83138666 2.90342145 14.83138666 2.90342145 12 4 C11.26676204 6.01508358 11.26676204 6.01508358 11 8 C10.67 7.34 10.34 6.68 10 6 C9.34 6 8.68 6 8 6 C7.67 6.66 7.34 7.32 7 8 C7.66 8 8.32 8 9 8 C8 11 8 11 6 13 C6.66 13.66 7.32 14.32 8 15 C7.66083005 18.18819752 7.01406317 20.95781049 6 24 C5.34 24 4.68 24 4 24 C4 22.35 4 20.7 4 19 C3.34 19 2.68 19 2 19 C1.67 18.34 1.34 17.68 1 17 C0.34 17 -0.32 17 -1 17 C-1 16.34 -1 15.68 -1 15 C-1.99 14.67 -2.98 14.34 -4 14 C-3.67 13.01 -3.34 12.02 -3 11 C-4.28062485 9.2925002 -5.61767557 7.62626404 -7 6 C-7.33 5.01 -7.66 4.02 -8 3 C-11.12197478 4.3089572 -11.12197478 4.3089572 -13 7 C-13.99 6.67 -14.98 6.34 -16 6 C-15.67 5.67 -15.34 5.34 -15 5 C-15.99 4.34 -16.98 3.68 -18 3 C-14.44266626 2.23540003 -10.9342901 1.72087354 -7.3125 1.375 C-5.88357422 1.23191406 -5.88357422 1.23191406 -4.42578125 1.0859375 C-2 1 -2 1 0 2 C0 1.34 0 0.68 0 0 Z " fill="#9C978A" transform="translate(161,190)"/>
<path d="M0 0 C1.9480957 -0.02416992 1.9480957 -0.02416992 3.93554688 -0.04882812 C12.16175757 -0.05295982 19.44802619 0.88055847 27.3125 3.3125 C26.94604492 5.23095703 26.94604492 5.23095703 26.3125 7.3125 C22.24228263 9.79778812 19.06239551 9.26702646 14.5 8.4375 C13.33855469 8.23382813 12.17710937 8.03015625 10.98046875 7.8203125 C10.10003906 7.65273437 9.21960938 7.48515625 8.3125 7.3125 C8.3125 6.6525 8.3125 5.9925 8.3125 5.3125 C6.75015625 5.43818359 6.75015625 5.43818359 5.15625 5.56640625 C-4.90947792 6.30540307 -14.63662961 6.19178207 -24.6875 5.3125 C-23.6975 4.9825 -22.7075 4.6525 -21.6875 4.3125 C-21.6875 3.6525 -21.6875 2.9925 -21.6875 2.3125 C-14.39211775 -0.01652862 -7.64391704 -0.01868928 0 0 Z " fill="#9C9685" transform="translate(184.6875,167.6875)"/>
<path d="M0 0 C0.99 0.66 1.98 1.32 3 2 C2 5 2 5 -0.75 6.375 C-4 7 -4 7 -6.875 5.625 C-7.57625 5.08875 -8.2775 4.5525 -9 4 C-9 4.99 -9 5.98 -9 7 C-9.99 7.495 -9.99 7.495 -11 8 C-11 8.66 -11 9.32 -11 10 C-10.34 10 -9.68 10 -9 10 C-9.33 10.99 -9.66 11.98 -10 13 C-10.99 13 -11.98 13 -13 13 C-12.27102226 15.96383067 -12.27102226 15.96383067 -10.5 17.4375 C-8.75814029 19.25193719 -8.42144987 20.55559077 -8 23 C-6.68 23.33 -5.36 23.66 -4 24 C-4.33 24.99 -4.66 25.98 -5 27 C-5.66 27 -6.32 27 -7 27 C-7 27.66 -7 28.32 -7 29 C-9.3431213 28.74438677 -11.67843403 28.40729228 -14 28 C-14.33 27.34 -14.66 26.68 -15 26 C-15.99 26.33 -16.98 26.66 -18 27 C-18.81143868 23.93456499 -18.99548742 21.97442874 -18.4375 18.8125 C-18.293125 17.884375 -18.14875 16.95625 -18 16 C-18.66 15.34 -19.32 14.68 -20 14 C-19.01 12.68 -18.02 11.36 -17 10 C-17.33 9.67 -17.66 9.34 -18 9 C-17.67 8.01 -17.34 7.02 -17 6 C-16.01 6.66 -15.02 7.32 -14 8 C-13.67 7.01 -13.34 6.02 -13 5 C-11 3 -11 3 -9.125 2.76953125 C-8.42375 2.78371094 -7.7225 2.79789063 -7 2.8125 C-5.948125 2.82216797 -5.948125 2.82216797 -4.875 2.83203125 C-3 3 -3 3 -1 4 C-0.67 2.68 -0.34 1.36 0 0 Z M-21 22 C-21 22.99 -21 23.98 -21 25 C-20.34 25 -19.68 25 -19 25 C-19.66 26.32 -20.32 27.64 -21 29 C-21.33 27.35 -21.66 25.7 -22 24 C-22.66 24 -23.32 24 -24 24 C-24 24.66 -24 25.32 -24 26 C-26.64 26 -29.28 26 -32 26 C-30 23 -30 23 -28.1875 22.3125 C-25.76407022 21.96629575 -23.44491162 21.93208579 -21 22 Z " fill="#A39B90" transform="translate(186,189)"/>
<path d="M0 0 C0.66 0 1.32 0 2 0 C2.33 1.32 2.66 2.64 3 4 C3.33 3.01 3.66 2.02 4 1 C5.32 1 6.64 1 8 1 C8.53043603 7.63045041 7.01179021 13.03365577 5.08984375 19.3671875 C3.54011596 24.53294678 2.26704561 29.75903862 1 35 C0.01 35 -0.98 35 -2 35 C-2 32.03 -2 29.06 -2 26 C-1.34 26 -0.68 26 0 26 C-0.99 23.03 -1.98 20.06 -3 17 C-2.01 17 -1.02 17 0 17 C0.33 16.34 0.66 15.68 1 15 C-0.65 15.33 -2.3 15.66 -4 16 C-4 15.01 -4 14.02 -4 13 C-5.65 13.33 -7.3 13.66 -9 14 C-8.34 13.67 -7.68 13.34 -7 13 C-6.67 12.01 -6.34 11.02 -6 10 C-5.34 9.01 -4.68 8.02 -4 7 C-3.34 7.66 -2.68 8.32 -2 9 C-1.855625 7.88625 -1.71125 6.7725 -1.5625 5.625 C-1 2 -1 2 0 0 Z " fill="#999686" transform="translate(203,209)"/>
<path d="M0 0 C0 0.99 0 1.98 0 3 C0.66 3.33 1.32 3.66 2 4 C1.01 4 0.02 4 -1 4 C-1.94881455 8.83895418 -1.99022222 11.52200001 0 16 C-0.33 16.99 -0.66 17.98 -1 19 C-1 18.34 -1 17.68 -1 17 C-1.99 17.33 -2.98 17.66 -4 18 C-5.22520264 21.00847418 -5.22520264 21.00847418 -6 24 C-7.65 24.33 -9.3 24.66 -11 25 C-11 23 -11 23 -9.5 21.375 C-9.005 20.92125 -8.51 20.4675 -8 20 C-8.66 20 -9.32 20 -10 20 C-10 18.68 -10 17.36 -10 16 C-9.34 16 -8.68 16 -8 16 C-8 15.34 -8 14.68 -8 14 C-8.66 14 -9.32 14 -10 14 C-10 13.34 -10 12.68 -10 12 C-9.01 11.67 -8.02 11.34 -7 11 C-7.66 10.67 -8.32 10.34 -9 10 C-9 9.34 -9 8.68 -9 8 C-9.66 8 -10.32 8 -11 8 C-11.33 8.66 -11.66 9.32 -12 10 C-12.33 10.33 -12.66 10.66 -13 11 C-13.99 10.67 -14.98 10.34 -16 10 C-16 9.34 -16 8.68 -16 8 C-16.66 8 -17.32 8 -18 8 C-18.33 8.66 -18.66 9.32 -19 10 C-19.66 8.35 -20.32 6.7 -21 5 C-16.545 4.505 -16.545 4.505 -12 4 C-12.33 3.01 -12.66 2.02 -13 1 C-11.88625 1.020625 -10.7725 1.04125 -9.625 1.0625 C-5.88377953 0.9979962 -3.79326366 0 0 0 Z " fill="#C3BCB0" transform="translate(200,190)"/>
<path d="M0 0 C1.60294922 0.01353516 1.60294922 0.01353516 3.23828125 0.02734375 C4.04652344 0.03894531 4.85476562 0.05054688 5.6875 0.0625 C5.6875 0.7225 5.6875 1.3825 5.6875 2.0625 C2.78201118 4.10419485 1.28607954 5.0625 -2.3125 5.0625 C-2.3125 6.0525 -2.3125 7.0425 -2.3125 8.0625 C-3.3025 8.3925 -4.2925 8.7225 -5.3125 9.0625 C-5.3125 8.4025 -5.3125 7.7425 -5.3125 7.0625 C-6.4675 7.454375 -7.6225 7.84625 -8.8125 8.25 C-13.09900681 9.35007697 -15.54203014 8.56494638 -19.49609375 6.79296875 C-21.82144207 5.85782867 -23.83117799 5.99357439 -26.3125 6.0625 C-27.66132408 5.42775925 -28.9971659 4.76401152 -30.3125 4.0625 C-31.3025 4.0625 -32.2925 4.0625 -33.3125 4.0625 C-33.3125 3.4025 -33.3125 2.7425 -33.3125 2.0625 C-32.20841797 2.18818359 -32.20841797 2.18818359 -31.08203125 2.31640625 C-30.10621094 2.41824219 -29.13039062 2.52007812 -28.125 2.625 C-27.16207031 2.72941406 -26.19914063 2.83382812 -25.20703125 2.94140625 C-22.33488624 3.17606461 -22.33488624 3.17606461 -19.65625 2.53125 C-16.44369161 1.88873832 -14.30609015 2.87898761 -11.3125 4.0625 C-11.3125 3.0725 -11.3125 2.0825 -11.3125 1.0625 C-7.47525828 0.15836327 -3.93747726 -0.04326898 0 0 Z " fill="#7F6C64" transform="translate(205.3125,182.9375)"/>
<path d="M0 0 C1.32 0.33 2.64 0.66 4 1 C4 1.99 4 2.98 4 4 C4.99 4.33 5.98 4.66 7 5 C7.66 5.66 8.32 6.32 9 7 C9.33 6.34 9.66 5.68 10 5 C11.32 5 12.64 5 14 5 C14 5.66 14 6.32 14 7 C14.99 7.33 15.98 7.66 17 8 C16.360625 8.12375 15.72125 8.2475 15.0625 8.375 C14.381875 8.58125 13.70125 8.7875 13 9 C12.67 9.66 12.34 10.32 12 11 C9.5 11.6875 9.5 11.6875 7 12 C6.67 11.67 6.34 11.34 6 11 C6.33 13.31 6.66 15.62 7 18 C6.071875 17.690625 6.071875 17.690625 5.125 17.375 C4.42375 17.25125 3.7225 17.1275 3 17 C2.34 17.66 1.68 18.32 1 19 C0.731875 18.030625 0.46375 17.06125 0.1875 16.0625 C-0.204375 15.051875 -0.59625 14.04125 -1 13 C-1.99 12.67 -2.98 12.34 -4 12 C-4 11.01 -4 10.02 -4 9 C-3.01 8.67 -2.02 8.34 -1 8 C-0.67 7.34 -0.34 6.68 0 6 C-0.66 6 -1.32 6 -2 6 C-2.33 5.01 -2.66 4.02 -3 3 C-2.01 3 -1.02 3 0 3 C0 2.01 0 1.02 0 0 Z " fill="#AAA598" transform="translate(177,193)"/>
<path d="M0 0 C0.33 0.66 0.66 1.32 1 2 C2.65 1.67 4.3 1.34 6 1 C5.67 1.99 5.34 2.98 5 4 C4.34 4 3.68 4 3 4 C3.33 4.94875 3.66 5.8975 4 6.875 C5 10 5 10 5 12 C4.34 12 3.68 12 3 12 C3 14.97 3 17.94 3 21 C3.99 21 4.98 21 6 21 C6 23.31 6 25.62 6 28 C3.03 28.33 0.06 28.66 -3 29 C-3.33 28.01 -3.66 27.02 -4 26 C-3.505 25.62875 -3.01 25.2575 -2.5 24.875 C-0.37267611 22.21584514 -0.72323127 20.32122475 -1 17 C-1.33 16.01 -1.66 15.02 -2 14 C-1.34 13.01 -0.68 12.02 0 11 C0.38499891 9.34450469 0.72793135 7.6777567 1 6 C0.34 6 -0.32 6 -1 6 C-0.67 4.02 -0.34 2.04 0 0 Z " fill="#AFAC9C" transform="translate(198,223)"/>
<path d="M0 0 C1.1796875 6.6328125 1.1796875 6.6328125 -0.4375 9.9375 C-1.2109375 10.9584375 -1.2109375 10.9584375 -2 12 C-2.66 11.67 -3.32 11.34 -4 11 C-3.67 9.68 -3.34 8.36 -3 7 C-2.34 7 -1.68 7 -1 7 C-1 5.35 -1 3.7 -1 2 C-1.83402344 2.31195313 -2.66804688 2.62390625 -3.52734375 2.9453125 C-4.65269531 3.33460938 -5.77804688 3.72390625 -6.9375 4.125 C-8.03964844 4.51945313 -9.14179688 4.91390625 -10.27734375 5.3203125 C-14.35122358 6.06412687 -16.66368629 5.58198796 -20.57983398 4.55126953 C-24.85747716 3.57690069 -29.19112855 3.52894412 -33.5625 3.375 C-34.93245117 3.31699219 -34.93245117 3.31699219 -36.33007812 3.2578125 C-38.55319924 3.16469748 -40.77633613 3.07887834 -43 3 C-43 2.67 -43 2.34 -43 2 C-28.63916247 -0.05416833 -14.49101696 -0.2288982 0 0 Z " fill="#D8D6CD" transform="translate(215,178)"/>
<path d="M0 0 C-0.33 0.66 -0.66 1.32 -1 2 C-2.32 1.67 -3.64 1.34 -5 1 C-5.33 2.32 -5.66 3.64 -6 5 C-5.46890625 4.83628906 -4.9378125 4.67257813 -4.390625 4.50390625 C-1.46123236 3.88643623 1.25822936 3.90498075 4.25 3.9375 C5.86648437 3.95103516 5.86648437 3.95103516 7.515625 3.96484375 C8.33546875 3.97644531 9.1553125 3.98804688 10 4 C8 6 8 6 5.296875 6.265625 C-2.79513228 6.22997739 -10.81013375 5.80384315 -18.875 5.125 C-19.85629883 5.04668945 -20.83759766 4.96837891 -21.84863281 4.88769531 C-22.76225586 4.80358398 -23.67587891 4.71947266 -24.6171875 4.6328125 C-25.43815918 4.55949707 -26.25913086 4.48618164 -27.10498047 4.41064453 C-28.04301514 4.20737549 -28.04301514 4.20737549 -29 4 C-29.33 3.34 -29.66 2.68 -30 2 C-20.0529464 -0.5035281 -10.17233107 -0.18974296 0 0 Z " fill="#60504B" transform="translate(166,173)"/>
<path d="M0 0 C1.24072266 0.00322266 2.48144531 0.00644531 3.75976562 0.00976562 C5.03658203 0.01814453 6.31339844 0.02652344 7.62890625 0.03515625 C9.58473633 0.04192383 9.58473633 0.04192383 11.58007812 0.04882812 C14.78390177 0.06056374 17.98762988 0.07698262 21.19140625 0.09765625 C21.19140625 0.42765625 21.19140625 0.75765625 21.19140625 1.09765625 C19.25974609 1.18853516 19.25974609 1.18853516 17.2890625 1.28125 C15.61066466 1.36563872 13.93227989 1.45028755 12.25390625 1.53515625 C10.97870117 1.59413086 10.97870117 1.59413086 9.67773438 1.65429688 C8.86884766 1.69619141 8.05996094 1.73808594 7.2265625 1.78125 C6.10326538 1.83623657 6.10326538 1.83623657 4.95727539 1.89233398 C3.16679299 1.91536688 3.16679299 1.91536688 2.19140625 3.09765625 C0.19182261 3.13846408 -1.80904629 3.14019981 -3.80859375 3.09765625 C-3.80859375 3.75765625 -3.80859375 4.41765625 -3.80859375 5.09765625 C-8.60440403 6.73027252 -12.53343466 7.23155829 -17.5859375 7.1015625 C-20.73954177 7.09602014 -23.70344345 7.56912003 -26.80859375 8.09765625 C-26.80859375 7.43765625 -26.80859375 6.77765625 -26.80859375 6.09765625 C-25.15859375 6.09765625 -23.50859375 6.09765625 -21.80859375 6.09765625 C-21.80859375 5.43765625 -21.80859375 4.77765625 -21.80859375 4.09765625 C-14.48171074 1.14119469 -7.95661244 -0.03666642 0 0 Z " fill="#C7C3BA" transform="translate(166.80859375,166.90234375)"/>
<path d="M0 0 C4.57187518 0.09409197 9.14325521 0.20030419 13.71459961 0.31738281 C15.26725716 0.35548484 16.81999733 0.39036928 18.37280273 0.421875 C20.61471947 0.46793685 22.85607645 0.52585878 25.09765625 0.5859375 C25.78336197 0.59748871 26.46906769 0.60903992 27.17555237 0.62094116 C31.79809177 0.76007254 35.64007431 1.58717587 40 3 C39.34 3.66 38.68 4.32 38 5 C37.01 4.67 36.02 4.34 35 4 C35 4.99 35 5.98 35 7 C33.576875 6.7215625 33.576875 6.7215625 32.125 6.4375 C29.10131207 5.71313368 29.10131207 5.71313368 27 7 C27 6.34 27 5.68 27 5 C20.4 4.67 13.8 4.34 7 4 C7 3.34 7 2.68 7 2 C4.69 1.67 2.38 1.34 0 1 C0 0.67 0 0.34 0 0 Z " fill="#B4ACA2" transform="translate(159,180)"/>
<path d="M0 0 C0.66 0 1.32 0 2 0 C2.33 1.32 2.66 2.64 3 4 C3.33 3.01 3.66 2.02 4 1 C5.32 1 6.64 1 8 1 C8.28571429 9.57142857 8.28571429 9.57142857 6 13 C6 11.02 6 9.04 6 7 C5.01 7 4.02 7 3 7 C2.731875 7.556875 2.46375 8.11375 2.1875 8.6875 C0.89100504 11.21225334 -0.42476323 13.63714484 -2 16 C-2.66 16 -3.32 16 -4 16 C-4 15.01 -4 14.02 -4 13 C-5.65 13.33 -7.3 13.66 -9 14 C-8.34 13.67 -7.68 13.34 -7 13 C-6.67 12.01 -6.34 11.02 -6 10 C-5.34 9.01 -4.68 8.02 -4 7 C-3.34 7.66 -2.68 8.32 -2 9 C-1.855625 7.88625 -1.71125 6.7725 -1.5625 5.625 C-1 2 -1 2 0 0 Z " fill="#AEA89A" transform="translate(203,209)"/>
<path d="M0 0 C2.95857409 -0.05379226 5.91617721 -0.09357093 8.875 -0.125 C9.71675781 -0.14175781 10.55851563 -0.15851563 11.42578125 -0.17578125 C12.23144531 -0.18222656 13.03710938 -0.18867188 13.8671875 -0.1953125 C14.98262939 -0.21102295 14.98262939 -0.21102295 16.12060547 -0.22705078 C18 0 18 0 20 2 C21.93257855 2.36831081 21.93257855 2.36831081 24.1328125 2.4140625 C25.34130859 2.47207031 25.34130859 2.47207031 26.57421875 2.53125 C27.83685547 2.57765625 27.83685547 2.57765625 29.125 2.625 C29.97449219 2.66367187 30.82398438 2.70234375 31.69921875 2.7421875 C33.79911684 2.83656494 35.89952891 2.91937586 38 3 C38 3.33 38 3.66 38 4 C26.78727084 5.88143223 11.33514903 7.56311726 1 2 C0.67 1.34 0.34 0.68 0 0 Z " fill="#A59E91" transform="translate(146,280)"/>
<path d="M0 0 C2.475 0.495 2.475 0.495 5 1 C5 1.66 5 2.32 5 3 C6.32 3.33 7.64 3.66 9 4 C9.12375 4.639375 9.2475 5.27875 9.375 5.9375 C9.58125 6.618125 9.7875 7.29875 10 8 C10.66 8.33 11.32 8.66 12 9 C11.67 9.99 11.34 10.98 11 12 C10.34 11.67 9.68 11.34 9 11 C9 11.66 9 12.32 9 13 C8.34 13 7.68 13 7 13 C7 14.98 7 16.96 7 19 C5.02 18.67 3.04 18.34 1 18 C1 16.02 1 14.04 1 12 C1.99 12 2.98 12 4 12 C4.66 9.69 5.32 7.38 6 5 C4.68 5 3.36 5 2 5 C2 4.34 2 3.68 2 3 C1.34 3 0.68 3 0 3 C0 2.01 0 1.02 0 0 Z " fill="#BEBBB3" transform="translate(132,186)"/>
<path d="M0 0 C0.66 0.33 1.32 0.66 2 1 C1.67 1.99 1.34 2.98 1 4 C1.46019531 4.90492188 1.46019531 4.90492188 1.9296875 5.828125 C3.29754029 8.60376789 3.19824546 10.67369076 3.125 13.75 C3.10695312 14.73484375 3.08890625 15.7196875 3.0703125 16.734375 C3.03550781 17.85585937 3.03550781 17.85585937 3 19 C2.67 19 2.34 19 2 19 C1.67 17.35 1.34 15.7 1 14 C-2.0745356 14.7763932 -2.0745356 14.7763932 -4 17 C-4.33 16.01 -4.66 15.02 -5 14 C-4.67 13.34 -4.34 12.68 -4 12 C-4.66 12 -5.32 12 -6 12 C-6.33 12.66 -6.66 13.32 -7 14 C-6.45276317 10.62537285 -5.9451 8.91765 -4 6 C-3.67 6.99 -3.34 7.98 -3 9 C-2.34 7.02 -1.68 5.04 -1 3 C-2.98 3.99 -2.98 3.99 -5 5 C-5 4.01 -5 3.02 -5 2 C-2.625 0.9375 -2.625 0.9375 0 0 Z " fill="#B3AEA1" transform="translate(209,197)"/>
<path d="M0 0 C0 0.33 0 0.66 0 1 C2.475 1.495 2.475 1.495 5 2 C4.67 2.99 4.34 3.98 4 5 C2.02 4.67 0.04 4.34 -2 4 C-2 3.34 -2 2.68 -2 2 C-3.0415625 2.08378906 -4.083125 2.16757813 -5.15625 2.25390625 C-15.22197792 2.99290307 -24.94912961 2.87928207 -35 2 C-35 1.67 -35 1.34 -35 1 C-11.05089629 -1.92189501 -11.05089629 -1.92189501 0 0 Z " fill="#7E7061" transform="translate(195,171)"/>
<path d="M0 0 C0.66 0 1.32 0 2 0 C2 0.66 2 1.32 2 2 C2.65484375 1.93941406 3.3096875 1.87882813 3.984375 1.81640625 C10.98663453 1.17354344 17.99184389 0.57484003 25 0 C24.67 0.99 24.34 1.98 24 3 C23.06027344 2.98259766 23.06027344 2.98259766 22.1015625 2.96484375 C20.87566406 2.95130859 20.87566406 2.95130859 19.625 2.9375 C18.40683594 2.92009766 18.40683594 2.92009766 17.1640625 2.90234375 C14.95062858 2.85533666 14.95062858 2.85533666 13 4 C7.46153846 4.23076923 7.46153846 4.23076923 5 3 C5.33 5.31 5.66 7.62 6 10 C4 8 4 8 3 5 C1.95550089 8.13349732 2.06576355 8.98968256 3 12 C1.5 10.625 1.5 10.625 0 9 C0 8.34 0 7.68 0 7 C-1.32 7 -2.64 7 -4 7 C-3.67 6.34 -3.34 5.68 -3 5 C-2.01 5 -1.02 5 0 5 C-1.98 4.01 -3.96 3.02 -6 2 C-2.25 0.875 -2.25 0.875 0 2 C0 1.34 0 0.68 0 0 Z " fill="#867B71" transform="translate(161,190)"/>
<path d="M0 0 C0.99 0.33 1.98 0.66 3 1 C2.67 1.99 2.34 2.98 2 4 C1.01 4 0.02 4 -1 4 C-0.27102226 6.96383067 -0.27102226 6.96383067 1.5 8.4375 C3.24185971 10.25193719 3.57855013 11.55559077 4 14 C5.32 14.33 6.64 14.66 8 15 C7.67 15.99 7.34 16.98 7 18 C6.34 18 5.68 18 5 18 C5 18.66 5 19.32 5 20 C3.35 20 1.7 20 0 20 C0.20625 19.21625 0.4125 18.4325 0.625 17.625 C0.74875 16.75875 0.8725 15.8925 1 15 C0.34 14.34 -0.32 13.68 -1 13 C-3.05003413 10.0867936 -2.99168789 8.9168789 -2.625 5.25 C-2.41875 4.1775 -2.2125 3.105 -2 2 C-1.34 2 -0.68 2 0 2 C0 1.34 0 0.68 0 0 Z " fill="#9D998B" transform="translate(174,198)"/>
<path d="M0 0 C-0.99 0.33 -1.98 0.66 -3 1 C-3 1.66 -3 2.32 -3 3 C-4.65 3 -6.3 3 -8 3 C-8 3.66 -8 4.32 -8 5 C-8.99 5.33 -9.98 5.66 -11 6 C-9.68 6.66 -8.36 7.32 -7 8 C-8.32 8 -9.64 8 -11 8 C-11 8.66 -11 9.32 -11 10 C-13.8125 10.6875 -13.8125 10.6875 -17 11 C-18.875 9.5625 -18.875 9.5625 -20 8 C-19.01 8 -18.02 8 -17 8 C-17 7.34 -17 6.68 -17 6 C-17.66 6 -18.32 6 -19 6 C-19 5.34 -19 4.68 -19 4 C-16.69 4 -14.38 4 -12 4 C-12 3.01 -12 2.02 -12 1 C-7.93631321 0.22596442 -4.13574827 -0.0984702 0 0 Z " fill="#D9D6CF" transform="translate(148,170)"/>
<path d="M0 0 C2.00720923 0.28674418 4.0085944 0.61866701 6 1 C5.67 1.99 5.34 2.98 5 4 C4.34 4 3.68 4 3 4 C2.67 4.66 2.34 5.32 2 6 C3.98 6 5.96 6 8 6 C8.33 6.66 8.66 7.32 9 8 C7.41986783 8.25028811 5.83557694 8.47440946 4.25 8.6875 C2.92742187 8.87892578 2.92742187 8.87892578 1.578125 9.07421875 C-1.58306697 8.98321474 -2.77062948 8.19290886 -5 6 C-5 5.34 -5 4.68 -5 4 C-5.99 4 -6.98 4 -8 4 C-8 3.01 -8 2.02 -8 1 C-6.865625 1.020625 -5.73125 1.04125 -4.5625 1.0625 C-1.18424326 1.41577477 -1.18424326 1.41577477 0 0 Z " fill="#594F4B" transform="translate(146,184)"/>
<path d="M0 0 C2.64 0.66 5.28 1.32 8 2 C8 2.66 8 3.32 8 4 C13.61 4 19.22 4 25 4 C25 4.99 25 5.98 25 7 C21.37 6.34 17.74 5.68 14 5 C13.67 5.66 13.34 6.32 13 7 C12.01 6.67 11.02 6.34 10 6 C8.00259872 6.03221615 6.00519822 6.06448933 4.0078125 6.09765625 C1.38529544 5.97010192 -0.6663653 5.16681735 -3 4 C-3.33 4.99 -3.66 5.98 -4 7 C-5.32 6.01 -6.64 5.02 -8 4 C-5.36 3.34 -2.72 2.68 0 2 C0 1.34 0 0.68 0 0 Z " fill="#979187" transform="translate(158,180)"/>
<path d="M0 0 C0 1.65 0 3.3 0 5 C-0.66 5 -1.32 5 -2 5 C-1.835 5.66 -1.67 6.32 -1.5 7 C-0.87816701 10.73099794 -0.93591074 14.21873378 -1 18 C-3.46278801 15.53721199 -3.99771255 13.29323018 -5 10 C-6.32 10.33 -7.64 10.66 -9 11 C-9.66 10.01 -10.32 9.02 -11 8 C-5.25 5 -5.25 5 -3 5 C-3 4.34 -3 3.68 -3 3 C-4.98 3.33 -6.96 3.66 -9 4 C-9.33 3.34 -9.66 2.68 -10 2 C-8.7090864 1.66376204 -7.41723903 1.33110751 -6.125 1 C-5.40570313 0.814375 -4.68640625 0.62875 -3.9453125 0.4375 C-2 0 -2 0 0 0 Z " fill="#CCC4B9" transform="translate(214,180)"/>
<path d="M0 0 C0.98484375 0.10183594 1.9696875 0.20367187 2.984375 0.30859375 C3.73203125 0.39238281 4.4796875 0.47617188 5.25 0.5625 C5.25 0.8925 5.25 1.2225 5.25 1.5625 C4.13625 1.665625 3.0225 1.76875 1.875 1.875 C0.67875 2.101875 -0.5175 2.32875 -1.75 2.5625 C-2.74 4.0475 -2.74 4.0475 -3.75 5.5625 C-7.38 5.2325 -11.01 4.9025 -14.75 4.5625 C-15.08 5.2225 -15.41 5.8825 -15.75 6.5625 C-16.74 6.5625 -17.73 6.5625 -18.75 6.5625 C-18.75 4.9125 -18.75 3.2625 -18.75 1.5625 C-15.78 1.8925 -12.81 2.2225 -9.75 2.5625 C-9.75 1.9025 -9.75 1.2425 -9.75 0.5625 C-6.33860997 -0.53401823 -3.54344419 -0.37965473 0 0 Z " fill="#C6C0BB" transform="translate(146.75,177.4375)"/>
<path d="M0 0 C0.99 0.66 1.98 1.32 3 2 C0.26404432 4.86623928 -2.1813798 6.7271266 -6 8 C-6.33 8.99 -6.66 9.98 -7 11 C-8.65 10.67 -10.3 10.34 -12 10 C-11.625 8.0625 -11.625 8.0625 -11 6 C-10.34 5.67 -9.68 5.34 -9 5 C-8.34 4.01 -7.68 3.02 -7 2 C-7 2.66 -7 3.32 -7 4 C-6.34 4 -5.68 4 -5 4 C-5 3.34 -5 2.68 -5 2 C-2.6875 0.875 -2.6875 0.875 0 0 Z " fill="#A9A798" transform="translate(184,214)"/>
<path d="M0 0 C7.08076251 -0.40850553 13.19925959 1.09579269 20 3 C19.67 4.32 19.34 5.64 19 7 C12.13523882 5.91081033 6.22529789 4.09761199 0 1 C0 0.67 0 0.34 0 0 Z " fill="#B5B6AB" transform="translate(192,168)"/>
<path d="M0 0 C4.29 0 8.58 0 13 0 C13 0.66 13 1.32 13 2 C16.3 2.33 19.6 2.66 23 3 C22.67 3.66 22.34 4.32 22 5 C16.06 4.67 10.12 4.34 4 4 C4 3.01 4 2.02 4 1 C2.68 0.67 1.36 0.34 0 0 Z " fill="#4F403C" transform="translate(180,173)"/>
<path d="M0 0 C2.97 0 5.94 0 9 0 C8.67 0.66 8.34 1.32 8 2 C6.68 1.67 5.36 1.34 4 1 C3.67 2.32 3.34 3.64 3 5 C3.53109375 4.83628906 4.0621875 4.67257813 4.609375 4.50390625 C7.53876764 3.88643623 10.25822936 3.90498075 13.25 3.9375 C14.32765625 3.94652344 15.4053125 3.95554688 16.515625 3.96484375 C17.33546875 3.97644531 18.1553125 3.98804688 19 4 C17 6 17 6 13.734375 6.265625 C12.41953125 6.26046875 11.1046875 6.2553125 9.75 6.25 C8.44546875 6.25515625 7.1409375 6.2603125 5.796875 6.265625 C2.16952464 6.01185975 -0.63032995 5.31856654 -4 4 C-2.68 3.34 -1.36 2.68 0 2 C0 1.34 0 0.68 0 0 Z " fill="#52433D" transform="translate(157,173)"/>
<path d="M0 0 C2.01953125 1.671875 2.01953125 1.671875 4 4 C4.13671875 6.515625 4.13671875 6.515625 3.6875 9.25 C3.03076912 14.14264507 3.17559501 18.14517059 4 23 C3.34 23 2.68 23 2 23 C-0.13480153 15.26134446 -0.20483028 7.99976044 0 0 Z " fill="#CECFC9" transform="translate(132,213)"/>
<path d="M0 0 C0.73605469 0.08378906 1.47210938 0.16757813 2.23046875 0.25390625 C3.20628906 0.35574219 4.18210938 0.45757812 5.1875 0.5625 C6.15042969 0.66691406 7.11335937 0.77132812 8.10546875 0.87890625 C10.95222462 0.9980013 13.23902156 0.64375145 16 0 C16.66 0 17.32 0 18 0 C18 0.99 18 1.98 18 3 C19.32 3 20.64 3 22 3 C22 3.66 22 4.32 22 5 C15.42943209 5.13688683 8.885849 5.26991611 3 2 C2.01 2 1.02 2 0 2 C0 1.34 0 0.68 0 0 Z " fill="#67544C" transform="translate(172,185)"/>
<path d="M0 0 C2.64 0 5.28 0 8 0 C8 0.66 8 1.32 8 2 C5.69 2.66 3.38 3.32 1 4 C0.67 5.98 0.34 7.96 0 10 C-0.99 9.67 -1.98 9.34 -3 9 C-3 8.34 -3 7.68 -3 7 C-3.66 7 -4.32 7 -5 7 C-5.33 7.66 -5.66 8.32 -6 9 C-6.66 7.35 -7.32 5.7 -8 4 C-3.545 3.505 -3.545 3.505 1 3 C0.67 2.01 0.34 1.02 0 0 Z " fill="#B7B1A6" transform="translate(187,191)"/>
<path d="M0 0 C5.28 0.33 10.56 0.66 16 1 C12 4 12 4 8.75 3.6875 C7.8425 3.460625 6.935 3.23375 6 3 C6 3.99 6 4.98 6 6 C6.99 6 7.98 6 9 6 C8.67 6.66 8.34 7.32 8 8 C7.01 7.67 6.02 7.34 5 7 C5 6.34 5 5.68 5 5 C3.68 5.33 2.36 5.66 1 6 C0.67 4.02 0.34 2.04 0 0 Z " fill="#968886" transform="translate(132,182)"/>
<path d="M0 0 C0.33 0.66 0.66 1.32 1 2 C1.99 1.67 2.98 1.34 4 1 C4 1.66 4 2.32 4 3 C4.78375 2.79375 5.5675 2.5875 6.375 2.375 C7.674375 2.189375 7.674375 2.189375 9 2 C9.66 2.66 10.32 3.32 11 4 C5.42639644 6.78680178 -3.01410863 5.06415847 -9 4 C-6.3144406 1.3144406 -3.62378672 0.93950026 0 0 Z " fill="#392A23" transform="translate(175,186)"/>
<path d="M0 0 C0.99 0 1.98 0 3 0 C3.51211281 6.40141012 3.11888494 9.98010898 -1 15 C-1.93826619 11.93312991 -2.01788333 9.54992204 -1.625 6.375 C-1.53476563 5.59898437 -1.44453125 4.82296875 -1.3515625 4.0234375 C-1 2 -1 2 0 0 Z " fill="#878272" transform="translate(206,216)"/>
<path d="M0 0 C0 0.99 0 1.98 0 3 C0.66 3.66 1.32 4.32 2 5 C1.66083005 8.18819752 1.01406317 10.95781049 0 14 C-0.66 14 -1.32 14 -2 14 C-2 12.35 -2 10.7 -2 9 C-2.66 9 -3.32 9 -4 9 C-4.33 8.34 -4.66 7.68 -5 7 C-5.66 7 -6.32 7 -7 7 C-7 6.34 -7 5.68 -7 5 C-6.401875 4.9175 -5.80375 4.835 -5.1875 4.75 C-2.4033704 3.79544128 -1.56688858 2.42867729 0 0 Z " fill="#928D81" transform="translate(167,200)"/>
<path d="M0 0 C0 0.99 0 1.98 0 3 C0.66 3 1.32 3 2 3 C1.34 4.32 0.68 5.64 0 7 C-0.33 5.35 -0.66 3.7 -1 2 C-1.66 2 -2.32 2 -3 2 C-3 2.66 -3 3.32 -3 4 C-5.64 4 -8.28 4 -11 4 C-9 1 -9 1 -7.1875 0.3125 C-4.76407022 -0.03370425 -2.44491162 -0.06791421 0 0 Z M7 0 C5.25 3.875 5.25 3.875 3 5 C2.67 3.68 2.34 2.36 2 1 C4 0 4 0 7 0 Z " fill="#9A9689" transform="translate(165,211)"/>
<path d="M0 0 C0.33 0.99 0.66 1.98 1 3 C1.66 3 2.32 3 3 3 C2.67 3.99 2.34 4.98 2 6 C-5.625 7 -5.625 7 -9 7 C-8.67 6.34 -8.34 5.68 -8 5 C-7.34 5 -6.68 5 -6 5 C-6 4.34 -6 3.68 -6 3 C-6.66 2.67 -7.32 2.34 -8 2 C-5.36 1.34 -2.72 0.68 0 0 Z " fill="#A2A093" transform="translate(162,206)"/>
<path d="M0 0 C0.99 0.33 1.98 0.66 3 1 C3.36548445 2.32488113 3.6937566 3.66018514 4 5 C5.48800372 7.2072358 5.48800372 7.2072358 7 9 C6.34 10.32 5.68 11.64 5 13 C4.34 13 3.68 13 3 13 C1.875 9.25 1.875 9.25 3 7 C2.01 7 1.02 7 0 7 C-0.33 7.66 -0.66 8.32 -1 9 C-2.60031344 5.79937313 -1.03173691 3.27728194 0 0 Z " fill="#A8A397" transform="translate(169,204)"/>
<path d="M0 0 C1.73830078 0.00386719 1.73830078 0.00386719 3.51171875 0.0078125 C4.66285156 0.00523437 5.81398437 0.00265625 7 0 C11.95615366 0.20574997 11.95615366 0.20574997 14.19921875 1.1328125 C14.52921875 2.1228125 14.85921875 3.1128125 15.19921875 4.1328125 C12.55921875 4.1328125 9.91921875 4.1328125 7.19921875 4.1328125 C6.86921875 3.1428125 6.53921875 2.1528125 6.19921875 1.1328125 C3.07724397 2.4417697 3.07724397 2.4417697 1.19921875 5.1328125 C0.20921875 4.8028125 -0.78078125 4.4728125 -1.80078125 4.1328125 C-1.47078125 3.8028125 -1.14078125 3.4728125 -0.80078125 3.1328125 C-1.79078125 2.4728125 -2.78078125 1.8128125 -3.80078125 1.1328125 C-2.80078125 0.1328125 -2.80078125 0.1328125 0 0 Z " fill="#9A9287" transform="translate(146.80078125,191.8671875)"/>
<path d="M0 0 C-0.33 0.99 -0.66 1.98 -1 3 C-3.0625 3.6875 -3.0625 3.6875 -5 4 C-5.33 5.65 -5.66 7.3 -6 9 C-6.66 9 -7.32 9 -8 9 C-9.61949011 6.42786866 -10.04408751 5.32330841 -9.625 2.25 C-9.41875 1.5075 -9.2125 0.765 -9 0 C-5.67465243 -1.10844919 -3.37817425 -0.84454356 0 0 Z " fill="#A5A596" transform="translate(161,215)"/>
<path d="M0 0 C3.63 0.33 7.26 0.66 11 1 C11 1.33 11 1.66 11 2 C12.65 2.33 14.3 2.66 16 3 C15.67 3.99 15.34 4.98 15 6 C12.03 5.505 12.03 5.505 9 5 C9 4.34 9 3.68 9 3 C6.03 3 3.06 3 0 3 C0 2.01 0 1.02 0 0 Z " fill="#908475" transform="translate(184,170)"/>
<path d="M0 0 C7.42857143 -0.28571429 7.42857143 -0.28571429 11 2 C9.02 2.99 9.02 2.99 7 4 C8.98 4.66 10.96 5.32 13 6 C10.59454362 7.20272819 9.05003047 7.10071472 6.375 7.0625 C5.14910156 7.04896484 5.14910156 7.04896484 3.8984375 7.03515625 C2.95871094 7.01775391 2.95871094 7.01775391 2 7 C2.66 6.67 3.32 6.34 4 6 C3.72382467 4.05925139 3.72382467 4.05925139 3 2 C2.01 1.34 1.02 0.68 0 0 Z " fill="#52453D" transform="translate(161,185)"/>
<path d="M0 0 C-0.33 0.66 -0.66 1.32 -1 2 C-2.98 2 -4.96 2 -7 2 C-7 2.66 -7 3.32 -7 4 C-13.75 6.125 -13.75 6.125 -16 5 C-16 4.34 -16 3.68 -16 3 C-10.28264895 0.54970669 -6.20970773 -0.33266291 0 0 Z " fill="#AEA99A" transform="translate(170,168)"/>
<path d="M0 0 C1.65 0 3.3 0 5 0 C5 1.32 5 2.64 5 4 C0.37802694 6.21854707 -2.76824163 7.38281159 -8 7 C-5 5 -5 5 -3 5 C-3 4.34 -3 3.68 -3 3 C-2.34 3 -1.68 3 -1 3 C-0.67 2.01 -0.34 1.02 0 0 Z " fill="#A69B8C" transform="translate(194,276)"/>
<path d="M0 0 C2.95887459 -0.08069658 5.9155659 -0.14034665 8.875 -0.1875 C9.71675781 -0.21263672 10.55851563 -0.23777344 11.42578125 -0.26367188 C12.23144531 -0.27333984 13.03710938 -0.28300781 13.8671875 -0.29296875 C14.98262939 -0.31653442 14.98262939 -0.31653442 16.12060547 -0.34057617 C17.05090576 -0.17199097 17.05090576 -0.17199097 18 0 C18.66 0.99 19.32 1.98 20 3 C13.58227972 3.12058347 7.34942532 3.00784529 1 2 C0.67 1.34 0.34 0.68 0 0 Z " fill="#B2AB99" transform="translate(146,280)"/>
<path d="M0 0 C0.66 0 1.32 0 2 0 C1.67 1.98 1.34 3.96 1 6 C-3.62 6.33 -8.24 6.66 -13 7 C-9.70478482 4.80318988 -6.71995598 3.90043997 -2.9609375 2.78125 C-0.81111965 2.17673144 -0.81111965 2.17673144 0 0 Z " fill="#EBEBE3" transform="translate(212,172)"/>
<path d="M0 0 C3.9053137 -0.22316078 6.42711007 0.48152178 10 2 C11.65919896 2.36871088 13.3247643 2.71281674 15 3 C13.375 4.5625 13.375 4.5625 11 6 C7.75 5.6875 7.75 5.6875 5 5 C5 4.01 5 3.02 5 2 C3.02 2 1.04 2 -1 2 C-0.67 1.34 -0.34 0.68 0 0 Z " fill="#94887C" transform="translate(195,171)"/>
<path d="M0 0 C0.78375 0.185625 1.5675 0.37125 2.375 0.5625 C4.97089775 1.25962266 4.97089775 1.25962266 7 0 C7 1.98 7 3.96 7 6 C6.01 6.495 6.01 6.495 5 7 C5 6.01 5 5.02 5 4 C4.34 4 3.68 4 3 4 C2.87625 4.969375 2.7525 5.93875 2.625 6.9375 C2.41875 7.948125 2.2125 8.95875 2 10 C1.01 10.495 1.01 10.495 0 11 C0.20625 10.2575 0.4125 9.515 0.625 8.75 C1.05118649 5.62463243 0.47735351 4.67770324 -1 2 C-0.67 1.34 -0.34 0.68 0 0 Z " fill="#D2CEC2" transform="translate(203,189)"/>
<path d="M0 0 C0.33 0 0.66 0 1 0 C1.66 3.3 2.32 6.6 3 10 C-1.21629134 12.10814567 -3.39790775 12.17700355 -8 12 C-8 11.34 -8 10.68 -8 10 C-5.36 9.67 -2.72 9.34 0 9 C0 6.03 0 3.06 0 0 Z " fill="#CBC5BD" transform="translate(200,272)"/>
<path d="M0 0 C2.4375 0.8125 2.4375 0.8125 5 2 C5.33 2.99 5.66 3.98 6 5 C5.34 5 4.68 5 4 5 C4.33 6.32 4.66 7.64 5 9 C4.01 9.495 4.01 9.495 3 10 C2.71125 9.38125 2.4225 8.7625 2.125 8.125 C1.06279958 5.86674235 1.06279958 5.86674235 -1 4 C-0.625 1.875 -0.625 1.875 0 0 Z " fill="#C0B6AA" transform="translate(197,209)"/>
<path d="M0 0 C2.64 0 5.28 0 8 0 C7.835 0.763125 7.67 1.52625 7.5 2.3125 C6.90854604 5.03596236 6.90854604 5.03596236 7 8 C5 6.625 5 6.625 3 5 C3 4.34 3 3.68 3 3 C2.01 3 1.02 3 0 3 C0 2.01 0 1.02 0 0 Z " fill="#6A5E5D" transform="translate(138,185)"/>
<path d="M0 0 C6.70518586 -0.19818283 12.65176798 -0.30844801 19 2 C17 4 17 4 13.875 4.125 C12.92625 4.08375 11.9775 4.0425 11 4 C11 3.34 11 2.68 11 2 C7.37 2 3.74 2 0 2 C0 1.34 0 0.68 0 0 Z " fill="#C5BFB4" transform="translate(180,181)"/>
<path d="M0 0 C1.32 0 2.64 0 4 0 C4.28571429 8.57142857 4.28571429 8.57142857 2 12 C2 10.02 2 8.04 2 6 C1.01 5.67 0.02 5.34 -1 5 C-0.34 5 0.32 5 1 5 C0.34 3.68 -0.32 2.36 -1 1 C-0.67 0.67 -0.34 0.34 0 0 Z " fill="#9B9487" transform="translate(207,210)"/>
<path d="M0 0 C0.66 0.66 1.32 1.32 2 2 C2.66 2 3.32 2 4 2 C3.75 3.875 3.75 3.875 3 6 C0.9375 7.25 0.9375 7.25 -1 8 C-1.33 5.69 -1.66 3.38 -2 1 C-1.34 0.67 -0.68 0.34 0 0 Z " fill="#C2BBB0" transform="translate(194,215)"/>
<path d="M0 0 C1.32 0 2.64 0 4 0 C3.6875 3.375 3.6875 3.375 3 7 C2.01 7.66 1.02 8.32 0 9 C0 6.03 0 3.06 0 0 Z " fill="#C6C7BD" transform="translate(132,204)"/>
<path d="M0 0 C0 0.99 0 1.98 0 3 C-3.78187881 4.83691257 -5.94568308 5.15837626 -10 4 C-9.67 3.01 -9.34 2.02 -9 1 C-2.25 0 -2.25 0 0 0 Z " fill="#58423C" transform="translate(206,185)"/>
<path d="M0 0 C4.455 0.99 4.455 0.99 9 2 C8.34 2.66 7.68 3.32 7 4 C3.7421875 3.9765625 3.7421875 3.9765625 -0.125 3.625 C-1.40632812 3.51414062 -2.68765625 3.40328125 -4.0078125 3.2890625 C-4.99523437 3.19367188 -5.98265625 3.09828125 -7 3 C-7 2.67 -7 2.34 -7 2 C-3.535 1.505 -3.535 1.505 0 1 C0 0.67 0 0.34 0 0 Z " fill="#C8C6BE" transform="translate(144,281)"/>
<path d="M0 0 C1.53760842 3.07521683 0.36599236 5.34675118 -0.4375 8.625 C-0.72496094 9.81351563 -1.01242188 11.00203125 -1.30859375 12.2265625 C-1.53675781 13.14179688 -1.76492187 14.05703125 -2 15 C-4 13 -4 13 -4.08203125 10.9765625 C-3.18949343 3.18949343 -3.18949343 3.18949343 0 0 Z " fill="#C2C1B7" transform="translate(207,238)"/>
<path d="M0 0 C0 0.66 0 1.32 0 2 C-0.66 2 -1.32 2 -2 2 C-2 3.32 -2 4.64 -2 6 C-1.34 6 -0.68 6 0 6 C-0.33 6.99 -0.66 7.98 -1 9 C-1.66 9 -2.32 9 -3 9 C-3.33 8.01 -3.66 7.02 -4 6 C-4.99 5.67 -5.98 5.34 -7 5 C-7 4.34 -7 3.68 -7 3 C-2.61538462 0 -2.61538462 0 0 0 Z " fill="#ABA697" transform="translate(192,204)"/>
<path d="M0 0 C4.29 0.33 8.58 0.66 13 1 C13.33 1.99 13.66 2.98 14 4 C11.69 4 9.38 4 7 4 C7 3.34 7 2.68 7 2 C4.69 1.67 2.38 1.34 0 1 C0 0.67 0 0.34 0 0 Z " fill="#AAA89C" transform="translate(159,180)"/>
<path d="M0 0 C0.66 0 1.32 0 2 0 C4 3 4 3 3.625 6.1875 C3.41875 7.115625 3.2125 8.04375 3 9 C2.01 9 1.02 9 0 9 C0 6.03 0 3.06 0 0 Z " fill="#A0A18F" transform="translate(201,235)"/>
<path d="M0 0 C8.19256018 -0.4726477 8.19256018 -0.4726477 11.5625 1.5 C12.036875 1.995 12.51125 2.49 13 3 C8.07872966 3.16682272 4.49656104 3.24828052 0 1 C0 0.67 0 0.34 0 0 Z " fill="#9E9C90" transform="translate(183,168)"/>
<path d="M0 0 C0.33 0 0.66 0 1 0 C1.508783 1.55966218 2.00663469 3.12289241 2.5 4.6875 C2.7784375 5.55761719 3.056875 6.42773438 3.34375 7.32421875 C3.99850805 9.99391677 4.11831495 12.26396684 4 15 C3.34 15 2.68 15 2 15 C0.73694665 9.92523206 -0.27036084 5.27203646 0 0 Z " fill="#D6D7D1" transform="translate(132,221)"/>
<path d="M0 0 C2.97 0 5.94 0 9 0 C9 0.66 9 1.32 9 2 C7.35 2.66 5.7 3.32 4 4 C4 3.34 4 2.68 4 2 C2.02 2.33 0.04 2.66 -2 3 C-1.34 2.67 -0.68 2.34 0 2 C0 1.34 0 0.68 0 0 Z " fill="#775F57" transform="translate(202,183)"/>
<path d="M0 0 C0.99 0.33 1.98 0.66 3 1 C2.67 1.99 2.34 2.98 2 4 C1.01 4 0.02 4 -1 4 C-0.67 5.65 -0.34 7.3 0 9 C-0.99 9.495 -0.99 9.495 -2 10 C-2.79953138 6.71303767 -3.09658936 5.28976808 -2 2 C-1.34 2 -0.68 2 0 2 C0 1.34 0 0.68 0 0 Z " fill="#908A7E" transform="translate(174,198)"/>
<path d="M0 0 C0.33 0 0.66 0 1 0 C1.08086147 1.79093191 1.13912702 3.58289628 1.1875 5.375 C1.22230469 6.37273437 1.25710937 7.37046875 1.29296875 8.3984375 C1.19628906 9.25695312 1.09960938 10.11546875 1 11 C0.01 11.66 -0.98 12.32 -2 13 C-1.48041715 8.62065881 -0.94324258 4.31196609 0 0 Z " fill="#B2B1A5" transform="translate(207,227)"/>
<path d="M0 0 C2.97 0.495 2.97 0.495 6 1 C5.34 2.98 4.68 4.96 4 7 C3.34 6.67 2.68 6.34 2 6 C2.33 4.68 2.66 3.36 3 2 C2.34 2 1.68 2 1 2 C0.67 2.66 0.34 3.32 0 4 C0 2.68 0 1.36 0 0 Z " fill="#C0B3A7" transform="translate(202,207)"/>
<path d="M0 0 C1.37478516 0.01740234 1.37478516 0.01740234 2.77734375 0.03515625 C3.69644531 0.04417969 4.61554688 0.05320313 5.5625 0.0625 C6.27277344 0.07410156 6.98304688 0.08570313 7.71484375 0.09765625 C6.78671875 0.49984375 6.78671875 0.49984375 5.83984375 0.91015625 C3.41532045 2.05322473 3.41532045 2.05322473 1.71484375 5.09765625 C0.72484375 4.76765625 -0.26515625 4.43765625 -1.28515625 4.09765625 C-0.95515625 3.76765625 -0.62515625 3.43765625 -0.28515625 3.09765625 C-1.27515625 2.43765625 -2.26515625 1.77765625 -3.28515625 1.09765625 C-2.28515625 0.09765625 -2.28515625 0.09765625 0 0 Z " fill="#8B837E" transform="translate(146.28515625,191.90234375)"/>
<path d="M0 0 C1.2065625 0.0309375 1.2065625 0.0309375 2.4375 0.0625 C2.4375 0.7225 2.4375 1.3825 2.4375 2.0625 C-2.0175 3.5475 -2.0175 3.5475 -6.5625 5.0625 C-6.8925 4.4025 -7.2225 3.7425 -7.5625 3.0625 C-6.923125 2.753125 -6.28375 2.44375 -5.625 2.125 C-1.57454819 0.03840361 -1.57454819 0.03840361 0 0 Z " fill="#ADA8A0" transform="translate(155.5625,179.9375)"/>
<path d="M0 0 C0.66 0 1.32 0 2 0 C2 2.64 2 5.28 2 8 C0.68 7.67 -0.64 7.34 -2 7 C-1.34 4.69 -0.68 2.38 0 0 Z " fill="#928779" transform="translate(203,209)"/>
<path d="M0 0 C0.33 0.66 0.66 1.32 1 2 C1.78375 1.79375 2.5675 1.5875 3.375 1.375 C4.674375 1.189375 4.674375 1.189375 6 1 C6.66 1.66 7.32 2.32 8 3 C5.29120665 4.35439668 2.99066732 4.06501451 0 4 C-0.33 3.01 -0.66 2.02 -1 1 C-0.67 0.67 -0.34 0.34 0 0 Z " fill="#412F27" transform="translate(178,187)"/>
<path d="M0 0 C4.29 0 8.58 0 13 0 C13 0.99 13 1.98 13 3 C8.71 2.34 4.42 1.68 0 1 C0 0.67 0 0.34 0 0 Z " fill="#A39B8F" transform="translate(170,184)"/>
<path d="M0 0 C-0.66 0 -1.32 0 -2 0 C-2 0.99 -2 1.98 -2 3 C-5.75 4.125 -5.75 4.125 -8 3 C-8 2.34 -8 1.68 -8 1 C-3.375 -1.125 -3.375 -1.125 0 0 Z " fill="#BAAEA1" transform="translate(162,170)"/>
<path d="M0 0 C0.66 0 1.32 0 2 0 C2 0.66 2 1.32 2 2 C1.34 2 0.68 2 0 2 C-0.33 3.32 -0.66 4.64 -1 6 C-2.32 6.33 -3.64 6.66 -5 7 C-4.34 5.68 -3.68 4.36 -3 3 C-2.34 3.33 -1.68 3.66 -1 4 C-0.67 2.68 -0.34 1.36 0 0 Z " fill="#A89F90" transform="translate(206,213)"/>
<path d="M0 0 C0 0.99 0 1.98 0 3 C0.66 3.66 1.32 4.32 2 5 C2 6.32 2 7.64 2 9 C1.01 8.67 0.02 8.34 -1 8 C-1.625 5.125 -1.625 5.125 -2 2 C-1.34 1.34 -0.68 0.68 0 0 Z " fill="#878175" transform="translate(167,200)"/>
<path d="M0 0 C-0.33 1.65 -0.66 3.3 -1 5 C-2.9375 4.625 -2.9375 4.625 -5 4 C-5.33 3.34 -5.66 2.68 -6 2 C-2.25 0 -2.25 0 0 0 Z " fill="#BFAFA8" transform="translate(209,186)"/>
<path d="M0 0 C0.99 0.33 1.98 0.66 3 1 C3 2.32 3 3.64 3 5 C1.68 4.67 0.36 4.34 -1 4 C-1 4.66 -1 5.32 -1 6 C-1.66 6 -2.32 6 -3 6 C-3 5.01 -3 4.02 -3 3 C-2.01 3 -1.02 3 0 3 C0 2.01 0 1.02 0 0 Z " fill="#382C24" transform="translate(162,186)"/>
<path d="M0 0 C1.98 0.66 3.96 1.32 6 2 C5.01 2.495 5.01 2.495 4 3 C3.67 3.66 3.34 4.32 3 5 C2.01 5 1.02 5 0 5 C0 3.35 0 1.7 0 0 Z " fill="#B8B2B0" transform="translate(128,179)"/>
<path d="M0 0 C0.33 0 0.66 0 1 0 C1.20086443 3.71599191 1.1519437 4.77208445 -1 8 C-1.66 8 -2.32 8 -3 8 C-3 6.68 -3 5.36 -3 4 C-2.34 4 -1.68 4 -1 4 C-0.67 2.68 -0.34 1.36 0 0 Z " fill="#AFACA2" transform="translate(151,201)"/>
<path d="M0 0 C0.99 0.33 1.98 0.66 3 1 C3 1.99 3 2.98 3 4 C3.66 4.33 4.32 4.66 5 5 C4.67 5.66 4.34 6.32 4 7 C2.68 6.67 1.36 6.34 0 6 C0.33 5.01 0.66 4.02 1 3 C0.67 2.01 0.34 1.02 0 0 Z " fill="#99968A" transform="translate(157,198)"/>
<path d="M0 0 C0.33 0 0.66 0 1 0 C1.66 3.3 2.32 6.6 3 10 C2.01 10 1.02 10 0 10 C0 6.7 0 3.4 0 0 Z " fill="#D4D3CD" transform="translate(200,272)"/>
<path d="M0 0 C0.33 1.32 0.66 2.64 1 4 C-1.475 5.485 -1.475 5.485 -4 7 C-4 5.68 -4 4.36 -4 3 C-3.01 3.33 -2.02 3.66 -1 4 C-0.67 2.68 -0.34 1.36 0 0 Z " fill="#A6A696" transform="translate(169,225)"/>
<path d="M0 0 C0.99 0.66 1.98 1.32 3 2 C1.6875 3.5 1.6875 3.5 0 5 C-0.99 5 -1.98 5 -3 5 C-3 3.68 -3 2.36 -3 1 C-2.01 0.67 -1.02 0.34 0 0 Z " fill="#A4A192" transform="translate(184,214)"/>
<path d="M0 0 C1.32 0.33 2.64 0.66 4 1 C3.67 1.99 3.34 2.98 3 4 C1.35 4.33 -0.3 4.66 -2 5 C-2.33 4.34 -2.66 3.68 -3 3 C-2.01 3 -1.02 3 0 3 C0 2.01 0 1.02 0 0 Z " fill="#ADAB9E" transform="translate(177,193)"/>
<path d="M0 0 C1.98 0.66 3.96 1.32 6 2 C4.625 3.5 4.625 3.5 3 5 C2.34 5 1.68 5 1 5 C0.67 3.35 0.34 1.7 0 0 Z " fill="#5A4D49" transform="translate(155,184)"/>
<path d="M0 0 C0.33 1.32 0.66 2.64 1 4 C-1.64 4 -4.28 4 -7 4 C-7.33 3.34 -7.66 2.68 -8 2 C-5.36 1.34 -2.72 0.68 0 0 Z " fill="#B09C94" transform="translate(212,180)"/>
<path d="M0 0 C2.31 0 4.62 0 7 0 C6.67 0.99 6.34 1.98 6 3 C3.03 2.505 3.03 2.505 0 2 C0 1.34 0 0.68 0 0 Z " fill="#7F6C66" transform="translate(193,173)"/>
</svg>
