<?xml version="1.0" encoding="UTF-8"?>
<svg version="1.1" xmlns="http://www.w3.org/2000/svg" width="340" height="340">
<path d="M0 0 C112.2 0 224.4 0 340 0 C340 112.2 340 224.4 340 340 C227.8 340 115.6 340 0 340 C0 227.8 0 115.6 0 0 Z " fill="#DEE0E2" transform="translate(0,0)"/>
<path d="M0 0 C41.91 0 83.82 0 127 0 C127.495 8.91 127.495 8.91 128 18 C128.66728589 21.77211972 128.66728589 21.77211972 129.47265625 25.515625 C130.13990383 28.65910249 130.48826343 31.8102789 130.875 35 C131.71966752 41.15400619 133.32120473 46.41220048 136 52 C136.26941406 52.73605469 136.53882813 53.47210938 136.81640625 54.23046875 C137.87358169 56.23861427 137.87358169 56.23861427 140.27734375 56.57421875 C141.15519531 56.61160156 142.03304687 56.64898437 142.9375 56.6875 C145.95037669 56.84280292 148.11137941 57.03712647 151 58 C152.66169826 58.22736074 154.3298073 58.40956084 156 58.5625 C156.86625 58.64628906 157.7325 58.73007812 158.625 58.81640625 C167.77249398 59.31401298 176.65702853 58.81395444 185.75 57.75 C186.83410156 57.64042969 187.91820312 57.53085937 189.03515625 57.41796875 C195.25352033 56.69666889 200.08708083 56.01966114 205 52 C206.48421022 49.44169507 207.24988589 46.84955334 208 44 C208.21672363 43.27490234 208.43344727 42.54980469 208.65673828 41.80273438 C212.11628374 29.97216443 213.9500716 18.25411569 214.78222656 5.97265625 C215 4 215 4 216 0 C256.92 0 297.84 0 340 0 C340 39.6 340 79.2 340 120 C227.8 120 115.6 120 0 120 C0 80.4 0 40.8 0 0 Z " fill="#E9EBEA" transform="translate(0,220)"/>
<path d="M0 0 C0.70099823 -0.00100708 1.40199646 -0.00201416 2.12423706 -0.00305176 C10.4516305 0.00501915 18.70052032 0.14062038 26.9375 1.5 C27.61312988 1.60924805 28.28875977 1.71849609 28.98486328 1.83105469 C33.76373829 2.76982828 37.29549611 4.70884185 41.375 7.25 C41.045 8.9 40.715 10.55 40.375 12.25 C37.075 13.24 33.775 14.23 30.375 15.25 C34.95834984 14.69999802 39.02261551 13.76655324 43.375 12.25 C43.68046796 29.97419114 43.218338 46.33805561 38.5625 63.5 C38.32644043 64.39412598 38.09038086 65.28825195 37.84716797 66.20947266 C36.33424811 71.42351839 34.9200006 74.95130925 30.375 78.25 C24.33960401 81.06005651 18.07282946 81.8865413 11.5 82.4375 C10.18237671 82.55702026 10.18237671 82.55702026 8.83813477 82.67895508 C2.67035094 83.21019819 -3.43521295 83.56895843 -9.625 83.25 C-10.49769531 83.20875 -11.37039062 83.1675 -12.26953125 83.125 C-15.07657752 82.93224146 -17.83641456 82.62480987 -20.625 82.25 C-21.7490625 82.10046875 -22.873125 81.9509375 -24.03125 81.796875 C-32.34825402 80.3357797 -32.34825402 80.3357797 -35.453125 77.6953125 C-42.33774593 67.70017007 -42.70597568 53.46261431 -42.94140625 41.71875 C-42.96218735 40.84222778 -42.98296844 39.96570557 -43.00437927 39.06262207 C-43.06920883 36.29181958 -43.12844658 33.52093099 -43.1875 30.75 C-43.23074873 28.85936648 -43.27436493 26.96874132 -43.31835938 25.078125 C-43.42482085 20.46883584 -43.52627119 15.85946101 -43.625 11.25 C-42.305 10.59 -40.985 9.93 -39.625 9.25 C-39.625 8.59 -39.625 7.93 -39.625 7.25 C-33.97699888 5.4082605 -28.53992272 4.70224761 -22.625 4.25 C-24.935 3.92 -27.245 3.59 -29.625 3.25 C-23.80812505 -2.56687495 -7.83832598 0.00786064 0 0 Z " fill="#444445" transform="translate(171.625,196.75)"/>
<path d="M0 0 C0.70099823 -0.00100708 1.40199646 -0.00201416 2.12423706 -0.00305176 C10.4516305 0.00501915 18.70052032 0.14062038 26.9375 1.5 C27.61312988 1.60924805 28.28875977 1.71849609 28.98486328 1.83105469 C33.76373829 2.76982828 37.29549611 4.70884185 41.375 7.25 C41.045 8.9 40.715 10.55 40.375 12.25 C38.94254901 12.74405577 37.50354555 13.21910417 36.0625 13.6875 C34.86173828 14.08775391 34.86173828 14.08775391 33.63671875 14.49609375 C23.58483838 16.81946251 13.02747125 16.49728083 2.76147461 16.54516602 C1.05435889 16.55666229 -0.65272156 16.57707683 -2.35961914 16.60668945 C-14.08258437 16.80894591 -24.40165174 15.7089767 -35.625 12.25 C-31.09739812 9.23159875 -29.10131692 8.00660814 -23.625 8.25 C-23.295 6.93 -22.965 5.61 -22.625 4.25 C-24.935 3.92 -27.245 3.59 -29.625 3.25 C-23.80812505 -2.56687495 -7.83832598 0.00786064 0 0 Z " fill="#191B1E" transform="translate(171.625,196.75)"/>
<path d="M0 0 C5.445 1.485 5.445 1.485 11 3 C10.96519531 4.64484375 10.93039063 6.2896875 10.89453125 7.984375 C10.66558082 23.76297425 11.82583752 38.56062715 15 54 C14.01 54 13.02 54 12 54 C10.515 54.495 10.515 54.495 9 55 C6.26238552 53.58971376 5.14669414 52.27243197 3.6875 49.5625 C2.6713879 44.29719185 3.36620625 39.29303428 4 34 C3.34 34 2.68 34 2 34 C0.52793987 31.05587973 0.76192808 28.03714085 0.68359375 24.8046875 C0.66281265 24.09724396 0.64203156 23.38980042 0.62062073 22.66091919 C0.55518922 20.39904575 0.49627026 18.13705538 0.4375 15.875 C0.39430867 14.34243578 0.35069418 12.80988343 0.30664062 11.27734375 C0.19951445 7.51834927 0.0982291 3.75923708 0 0 Z " fill="#242528" transform="translate(128,208)"/>
<path d="M0 0 C0.30546796 17.72419114 -0.156662 34.08805561 -4.8125 51.25 C-5.16658936 52.59118896 -5.16658936 52.59118896 -5.52783203 53.95947266 C-7.04513929 59.18863888 -8.5751849 62.52683273 -13 66 C-14.485 66.495 -14.485 66.495 -16 67 C-15.67 66.01 -15.34 65.02 -15 64 C-14.34 64 -13.68 64 -13 64 C-12.87625 62.0509375 -12.87625 62.0509375 -12.75 60.0625 C-12.5254222 56.52539966 -11.55124157 53.9950331 -10 50.86328125 C-7.58512468 45.63159381 -7.33853497 40.82343247 -7.25 35.125 C-7.22035156 34.18914062 -7.19070312 33.25328125 -7.16015625 32.2890625 C-7.01931147 27.62106422 -6.96259763 22.98077335 -7.140625 18.3125 C-7.17775555 16.87501721 -7.21418999 15.4375163 -7.25 14 C-7.28351563 13.27554688 -7.31703125 12.55109375 -7.3515625 11.8046875 C-7.390625 9.6875 -7.390625 9.6875 -7 6 C-4.984375 4 -4.984375 4 -3 3 C-3.33 2.34 -3.66 1.68 -4 1 C-2 0 -2 0 0 0 Z " fill="#A2A1A2" transform="translate(215,209)"/>
<path d="M0 0 C1.6045556 0.14148989 3.20863767 0.28835686 4.8125 0.4375 C5.70582031 0.51871094 6.59914062 0.59992188 7.51953125 0.68359375 C10 1 10 1 13 2 C22.89110093 3.54072918 33.02355741 3.09304454 43 3 C42.67 3.66 42.34 4.32 42 5 C40.35 5 38.7 5 37 5 C36.67 5.66 36.34 6.32 36 7 C33.9375 7.625 33.9375 7.625 32 8 C31.67 7.01 31.34 6.02 31 5 C29.0509375 5.2784375 29.0509375 5.2784375 27.0625 5.5625 C24.84765625 5.87890625 24.84765625 5.87890625 23 6 C22.67 5.67 22.34 5.34 22 5 C20.31816052 4.76712992 18.6287584 4.58735834 16.9375 4.4375 C16.01839844 4.35371094 15.09929687 4.26992188 14.15234375 4.18359375 C13.08693359 4.09271484 13.08693359 4.09271484 12 4 C11.01 5.485 11.01 5.485 10 7 C9.34 5.68 8.68 4.36 8 3 C7.34 3 6.68 3 6 3 C6 4.98 6 6.96 6 9 C8.18537367 9.50921328 10.37342431 10.00694437 12.5625 10.5 C13.78066406 10.7784375 14.99882812 11.056875 16.25390625 11.34375 C19.92222707 11.98637554 23.28502603 12.11474823 27 12 C27 12.66 27 13.32 27 14 C30.63 14 34.26 14 38 14 C38 14.33 38 14.66 38 15 C11.91803977 15.89735473 11.91803977 15.89735473 5 11 C2.5722257 7.50937521 1.2279472 4.0616715 0 0 Z " fill="#A09A8D" transform="translate(138,276)"/>
<path d="M0 0 C1.79296875 1.1328125 1.79296875 1.1328125 2.79296875 4.1328125 C2.46296875 5.1228125 2.13296875 6.1128125 1.79296875 7.1328125 C-2.78284004 5.34408725 -7.22431593 3.31250437 -11.68359375 1.25390625 C-14.25208853 0.06435939 -14.25208853 0.06435939 -17.20703125 -0.8671875 C-17.20703125 0.1228125 -17.20703125 1.1128125 -17.20703125 2.1328125 C-20.17703125 1.8028125 -23.14703125 1.4728125 -26.20703125 1.1328125 C-25.87703125 -0.1871875 -25.54703125 -1.5071875 -25.20703125 -2.8671875 C-17.15422784 -5.5514553 -7.62435196 -3.15919314 0 0 Z " fill="#313335" transform="translate(210.20703125,201.8671875)"/>
<path d="M0 0 C1.589792 3.179584 0.94976048 6.53192612 0.75 10 C0.70625244 10.79003418 0.66250488 11.58006836 0.61743164 12.39404297 C0.05680185 21.03815221 -1.40172616 29.49597694 -3 38 C-3.33 38 -3.66 38 -4 38 C-4 31.66666667 -4 25.33333333 -4 19 C-4.06960937 17.1746875 -4.06960937 17.1746875 -4.140625 15.3125 C-4.17775555 13.87501721 -4.21418999 12.4375163 -4.25 11 C-4.28351563 10.27554688 -4.31703125 9.55109375 -4.3515625 8.8046875 C-4.390625 6.6875 -4.390625 6.6875 -4 3 C-1.984375 1 -1.984375 1 0 0 Z " fill="#7A7979" transform="translate(212,212)"/>
<path d="M0 0 C1.48697764 0.00503015 2.97395695 0.00959035 4.4609375 0.01367188 C8.05732706 0.02454568 11.65365237 0.0417248 15.25 0.0625 C15.25 0.3925 15.25 0.7225 15.25 1.0625 C11.95 1.3925 8.65 1.7225 5.25 2.0625 C5.25 2.3925 5.25 2.7225 5.25 3.0625 C-6.85811094 3.83401812 -18.66043064 4.26959986 -30.75 3.0625 C-24.71430355 -2.97319645 -8.41722273 -0.05012503 0 0 Z " fill="#2C2E30" transform="translate(172.75,196.9375)"/>
<path d="M0 0 C1.26328125 0.01804687 2.5265625 0.03609375 3.828125 0.0546875 C4.79234375 0.07789063 5.7565625 0.10109375 6.75 0.125 C3.89184349 2.98315651 0.96030676 2.92797332 -2.9375 3.5625 C-5.42757117 3.95593987 -5.42757117 3.95593987 -7.25 6.125 C-9.31298828 6.35205078 -9.31298828 6.35205078 -11.8203125 6.3203125 C-12.71621094 6.31386719 -13.61210937 6.30742187 -14.53515625 6.30078125 C-15.47230469 6.28402344 -16.40945312 6.26726562 -17.375 6.25 C-18.31988281 6.24097656 -19.26476562 6.23195313 -20.23828125 6.22265625 C-22.57577292 6.19904522 -24.91276123 6.16611516 -27.25 6.125 C-27.58 5.135 -27.91 4.145 -28.25 3.125 C-27.06921875 3.07601563 -25.8884375 3.02703125 -24.671875 2.9765625 C-23.11456063 2.90151121 -21.55727009 2.82596439 -20 2.75 C-19.22269531 2.7190625 -18.44539062 2.688125 -17.64453125 2.65625 C-11.29833067 2.33080382 -6.44102951 -0.11927832 0 0 Z " fill="#DCD8D2" transform="translate(187.25,287.875)"/>
<path d="M0 0 C0 0.33 0 0.66 0 1 C-2.31 1.33 -4.62 1.66 -7 2 C-7.33 3.32 -7.66 4.64 -8 6 C-8.99 6 -9.98 6 -11 6 C-10.67 6.66 -10.34 7.32 -10 8 C-9.91426606 10.25120742 -9.89287812 12.50499303 -9.90234375 14.7578125 C-9.90446617 15.75238968 -9.90446617 15.75238968 -9.90663147 16.76705933 C-9.91223246 18.88641863 -9.924785 21.00567259 -9.9375 23.125 C-9.94251488 24.56119639 -9.94707781 25.99739444 -9.95117188 27.43359375 C-9.96220218 30.95576345 -9.97946741 34.47787145 -10 38 C-12.8559222 35.1440778 -12.32417563 32.29864216 -12.3359375 28.47265625 C-12.3425943 27.72793564 -12.3492511 26.98321503 -12.35610962 26.21592712 C-12.36624041 24.63982618 -12.37092651 23.0636823 -12.37060547 21.48754883 C-12.37497741 19.0749651 -12.41128472 16.66421276 -12.44921875 14.25195312 C-12.45508712 12.72136043 -12.45905638 11.19075904 -12.4609375 9.66015625 C-12.47530853 8.93820572 -12.48967957 8.21625519 -12.50448608 7.47242737 C-12.47435464 4.17185026 -12.44104886 2.45945904 -10.10498047 0.02587891 C-6.53062524 -1.71611143 -3.83390034 -0.70288173 0 0 Z " fill="#97999B" transform="translate(139,202)"/>
<path d="M0 0 C2.2477975 2.05233685 3.0022242 3.00667261 4 6 C3.01 7.485 3.01 7.485 2 9 C1.14906968 12.14272165 0.38061009 15.28503188 -0.32421875 18.46289062 C-1.361366 22.71688076 -2.4732626 25.33130024 -6 28 C-8.75 28.25 -8.75 28.25 -11 28 C-10.195625 27.360625 -9.39125 26.72125 -8.5625 26.0625 C-6.7249496 24.59396498 -6.7249496 24.59396498 -5 23 C-4.75344883 19.76744024 -4.61578909 16.53572508 -4.4765625 13.296875 C-3.96918055 9.78679002 -2.9453326 7.9154725 -1 5 C-0.29329272 2.30745009 -0.29329272 2.30745009 0 0 Z " fill="#6D6C6B" transform="translate(204,249)"/>
<path d="M0 0 C0.33 0 0.66 0 1 0 C0.9396826 2.87714013 0.85254404 5.74930854 0.75 8.625 C0.72873047 9.83736328 0.72873047 9.83736328 0.70703125 11.07421875 C0.48781034 16.46705318 -0.3832672 19.74502024 -4 24 C-6.75 25.375 -6.75 25.375 -9 26 C-8.505 24.515 -8.505 24.515 -8 23 C-7.34 23 -6.68 23 -6 23 C-5.9175 21.700625 -5.835 20.40125 -5.75 19.0625 C-5.26795819 14.56108017 -3.87914923 11.06881961 -1.921875 7.01953125 C-0.87036329 4.71600771 -0.32375632 2.50911148 0 0 Z " fill="#878785" transform="translate(208,250)"/>
<path d="M0 0 C1.00675781 0.0721875 2.01351562 0.144375 3.05078125 0.21875 C14.04756732 0.96015091 24.98077888 1.10886168 36 1 C35.67 1.66 35.34 2.32 35 3 C33.35 3 31.7 3 30 3 C29.67 3.66 29.34 4.32 29 5 C26.9375 5.625 26.9375 5.625 25 6 C24.67 5.01 24.34 4.02 24 3 C22.0509375 3.2784375 22.0509375 3.2784375 20.0625 3.5625 C17.84765625 3.87890625 17.84765625 3.87890625 16 4 C15.67 3.67 15.34 3.34 15 3 C13.31816052 2.76712992 11.6287584 2.58735834 9.9375 2.4375 C8.55884766 2.31181641 8.55884766 2.31181641 7.15234375 2.18359375 C6.08693359 2.09271484 6.08693359 2.09271484 5 2 C4.01 3.485 4.01 3.485 3 5 C2.01 3.35 1.02 1.7 0 0 Z " fill="#AFA698" transform="translate(145,278)"/>
<path d="M0 0 C0 0.99 0 1.98 0 3 C-1.66298583 3.47513881 -3.32643116 3.94872976 -4.9921875 4.4140625 C-6.90695716 4.97284742 -8.79844577 5.60964263 -10.6875 6.25 C-14 7 -14 7 -16.4375 6.125 C-16.953125 5.75375 -17.46875 5.3825 -18 5 C-17.34 4.67 -16.68 4.34 -16 4 C-16 3.34 -16 2.68 -16 2 C-10.51324804 0.13216954 -5.77807024 -0.2358396 0 0 Z " fill="#333437" transform="translate(148,202)"/>
<path d="M0 0 C0.33 0.66 0.66 1.32 1 2 C1.66 2 2.32 2 3 2 C2.96519531 2.78503906 2.93039063 3.57007813 2.89453125 4.37890625 C2.72722183 10.87210527 3.2905084 15.03911849 6 21 C6.53812957 24.65728801 6.80647671 28.30971115 7 32 C-0.15058603 23.45125469 0.39119107 10.62960553 0 0 Z " fill="#818384" transform="translate(129,240)"/>
<path d="M0 0 C0 0.66 0 1.32 0 2 C-3.41751653 3.13917218 -6.03487937 3.11338481 -9.63671875 3.09765625 C-10.93544922 3.09443359 -12.23417969 3.09121094 -13.57226562 3.08789062 C-14.94401108 3.07953531 -16.31575587 3.07107037 -17.6875 3.0625 C-19.07096195 3.05748335 -20.45442563 3.05292073 -21.83789062 3.04882812 C-25.22530395 3.03702529 -28.61263033 3.02056019 -32 3 C-32 2.67 -32 2.34 -32 2 C-28.35475481 1.66002426 -24.70872831 1.32925063 -21.0625 1 C-19.53012695 0.85691406 -19.53012695 0.85691406 -17.96679688 0.7109375 C-11.94822031 0.17253448 -6.04236648 -0.10081112 0 0 Z " fill="#666463" transform="translate(200,212)"/>
<path d="M0 0 C2.64 0.66 5.28 1.32 8 2 C8 2.33 8 2.66 8 3 C6.35 3 4.7 3 3 3 C3.01160156 3.66902344 3.02320313 4.33804688 3.03515625 5.02734375 C3.11995022 14.05184469 2.59711025 23.00069546 2 32 C1.67 32 1.34 32 1 32 C0.67 21.44 0.34 10.88 0 0 Z " fill="#303233" transform="translate(128,208)"/>
<path d="M0 0 C5.23880078 0.55145271 9.97350697 1.42922093 15 3 C14.34 4.32 13.68 5.64 13 7 C11.68 7 10.36 7 9 7 C9 9.97 9 12.94 9 16 C8.67 16 8.34 16 8 16 C8 12.04 8 8.08 8 4 C5.36 3.01 2.72 2.02 0 1 C0 0.67 0 0.34 0 0 Z " fill="#595858" transform="translate(130,208)"/>
<path d="M0 0 C15.84 0.495 15.84 0.495 32 1 C28.44104288 2.77947856 27.43103689 3.25411729 23.76953125 3.265625 C22.96580078 3.26820313 22.16207031 3.27078125 21.33398438 3.2734375 C20.08584961 3.26183594 20.08584961 3.26183594 18.8125 3.25 C17.99974609 3.25773438 17.18699219 3.26546875 16.34960938 3.2734375 C10.66748588 3.25535596 5.48967774 2.44938718 0 1 C0 0.67 0 0.34 0 0 Z " fill="#2B2824" transform="translate(154,214)"/>
<path d="M0 0 C6.15222436 0.43173504 9.81917949 1.65405342 15 5 C14.67 6.65 14.34 8.3 14 10 C12 9 12 9 11 6 C8.44598152 4.75049948 8.44598152 4.75049948 5.4375 3.8125 C4.42558594 3.46832031 3.41367188 3.12414062 2.37109375 2.76953125 C1.58863281 2.51558594 0.80617187 2.26164063 0 2 C0 1.34 0 0.68 0 0 Z " fill="#585A5C" transform="translate(198,199)"/>
<path d="M0 0 C-0.33 0.99 -0.66 1.98 -1 3 C-4.16015625 3.94921875 -4.16015625 3.94921875 -8.0625 4.6875 C-9.35285156 4.93886719 -10.64320313 5.19023437 -11.97265625 5.44921875 C-12.97167969 5.63097656 -13.97070312 5.81273437 -15 6 C-14.67 5.01 -14.34 4.02 -14 3 C-13.34 3 -12.68 3 -12 3 C-12 2.34 -12 1.68 -12 1 C-7.93631321 0.22596442 -4.13574827 -0.0984702 0 0 Z " fill="#333233" transform="translate(203,214)"/>
<path d="M0 0 C0 0.33 0 0.66 0 1 C-2.46736396 1.50224998 -4.9355852 1.99857012 -7.40625 2.484375 C-9.31684228 2.86419154 -11.22251676 3.26895369 -13.125 3.6875 C-16.92383471 4.10041682 -20.22627754 3.58557762 -24 3 C-18.97775632 -2.02224368 -6.82919757 -0.1359796 0 0 Z " fill="#707274" transform="translate(166,197)"/>
<path d="M0 0 C0.33 0 0.66 0 1 0 C1.30745279 6.57948979 0.20431358 12.16179597 -1.5 18.5 C-1.73847656 19.4178125 -1.97695312 20.335625 -2.22265625 21.28125 C-2.80650919 23.52324531 -3.39907967 25.76253068 -4 28 C-4.33 28 -4.66 28 -5 28 C-5.53761545 21.27980692 -3.96400178 15.77660789 -1.97265625 9.3671875 C-1.07059696 6.24439589 -0.46396633 3.21357733 0 0 Z " fill="#B1B1B2" transform="translate(213,236)"/>
<path d="M0 0 C-0.14176421 2.70860124 -0.28828216 5.41680752 -0.4375 8.125 C-0.47681641 8.88554687 -0.51613281 9.64609375 -0.55664062 10.4296875 C-0.79509002 14.68509203 -1.20230237 18.80370826 -2 23 C-2.33 23 -2.66 23 -3 23 C-3.0269501 20.06243881 -3.04681474 17.12512445 -3.0625 14.1875 C-3.07087891 13.35412109 -3.07925781 12.52074219 -3.08789062 11.66210938 C-3.09111328 10.85966797 -3.09433594 10.05722656 -3.09765625 9.23046875 C-3.10289307 8.49207764 -3.10812988 7.75368652 -3.11352539 6.99291992 C-3 5 -3 5 -2 2 C-2.66 1.67 -3.32 1.34 -4 1 C-2 0 -2 0 0 0 Z " fill="#929091" transform="translate(215,209)"/>
<path d="M0 0 C1.35862973 3.90480249 0.89469712 7.7101776 0.5625 11.75 C0.51029297 12.44738281 0.45808594 13.14476562 0.40429688 13.86328125 C0.27525928 15.57596203 0.13840386 17.28805066 0 19 C-0.66 18.67 -1.32 18.34 -2 18 C-2.05382106 15.37472811 -2.09358313 12.75055287 -2.125 10.125 C-2.14175781 9.37863281 -2.15851563 8.63226563 -2.17578125 7.86328125 C-2.1933959 5.90805539 -2.10320189 3.95257979 -2 2 C-1.34 1.34 -0.68 0.68 0 0 Z " fill="#666664" transform="translate(210,213)"/>
<path d="M0 0 C4.08378283 0.74250597 8.01939223 1.82923301 12 3 C11.67 3.66 11.34 4.32 11 5 C7.7 5 4.4 5 1 5 C0.67 3.35 0.34 1.7 0 0 Z " fill="#D1CEC9" transform="translate(142,287)"/>
<path d="M0 0 C1.27230469 0.00902344 2.54460937 0.01804687 3.85546875 0.02734375 C5.31919922 0.04474609 5.31919922 0.04474609 6.8125 0.0625 C3.18247711 3.69252289 -1.67594956 3.11807854 -6.5625 3.125 C-8.10422526 3.10908248 -9.6459364 3.08991912 -11.1875 3.0625 C-9.07664535 -1.15920929 -4.12352068 -0.03783046 0 0 Z " fill="#CAC3BB" transform="translate(187.1875,287.9375)"/>
<path d="M0 0 C0.66 0.33 1.32 0.66 2 1 C2 2.32 2 3.64 2 5 C-7.22551253 9.59225513 -7.22551253 9.59225513 -13 9 C-10.57869669 6.57869669 -9.19888623 6.47159496 -5.875 5.875 C-4.50988281 5.62363281 -4.50988281 5.62363281 -3.1171875 5.3671875 C-2.06917969 5.18542969 -2.06917969 5.18542969 -1 5 C-0.67 3.35 -0.34 1.7 0 0 Z " fill="#BCBABC" transform="translate(213,204)"/>
<path d="M0 0 C0.99 0 1.98 0 3 0 C2.56802365 4.7517398 1.67230705 6.92000054 -2 10 C-1.125 2.25 -1.125 2.25 0 0 Z " fill="#9EA09F" transform="translate(205,264)"/>
<path d="M0 0 C2.31 0 4.62 0 7 0 C7 1.32 7 2.64 7 4 C4.36 4 1.72 4 -1 4 C-0.67 2.68 -0.34 1.36 0 0 Z " fill="#494B4F" transform="translate(185,199)"/>
<path d="M0 0 C2.64 0 5.28 0 8 0 C7.67 0.66 7.34 1.32 7 2 C5.35 2 3.7 2 2 2 C1.67 2.66 1.34 3.32 1 4 C-1.0625 4.625 -1.0625 4.625 -3 5 C-3.33 4.01 -3.66 3.02 -4 2 C-2.68 2 -1.36 2 0 2 C0 1.34 0 0.68 0 0 Z " fill="#C3BBAE" transform="translate(173,279)"/>
<path d="M0 0 C1.09570312 0.10183594 2.19140625 0.20367187 3.3203125 0.30859375 C4.16335937 0.39238281 5.00640625 0.47617188 5.875 0.5625 C5.545 1.2225 5.215 1.8825 4.875 2.5625 C3.45876784 2.61697047 2.04191809 2.65550508 0.625 2.6875 C-0.16390625 2.71070313 -0.9528125 2.73390625 -1.765625 2.7578125 C-4.33231941 2.5453378 -5.9166067 1.84904105 -8.125 0.5625 C-5.28943413 -0.85528293 -3.1341294 -0.30007622 0 0 Z " fill="#C0C2C4" transform="translate(144.125,199.4375)"/>
<path d="M0 0 C0.33 0.99 0.66 1.98 1 3 C0.01 4.485 0.01 4.485 -1 6 C-1.70164642 7.98799818 -2.37372872 9.98698517 -3 12 C-3.66 11.34 -4.32 10.68 -5 10 C-4.54857119 8.70590408 -4.08858979 7.41478941 -3.625 6.125 C-3.36976563 5.40570313 -3.11453125 4.68640625 -2.8515625 3.9453125 C-2 2 -2 2 0 0 Z " fill="#797979" transform="translate(207,252)"/>
<path d="M0 0 C1.134375 0.020625 2.26875 0.04125 3.4375 0.0625 C3.4375 0.7225 3.4375 1.3825 3.4375 2.0625 C4.4275 2.3925 5.4175 2.7225 6.4375 3.0625 C-0.99107143 3.34821429 -0.99107143 3.34821429 -4.5625 1.0625 C-3.5625 0.0625 -3.5625 0.0625 0 0 Z " fill="#514C48" transform="translate(177.5625,275.9375)"/>
<path d="M0 0 C0.33 0.66 0.66 1.32 1 2 C1.66 2 2.32 2 3 2 C3 3.98 3 5.96 3 8 C2.01 8 1.02 8 0 8 C0 5.36 0 2.72 0 0 Z " fill="#5B5D5F" transform="translate(129,240)"/>
<path d="M0 0 C2.31 0.33 4.62 0.66 7 1 C8 4 8 4 7 7 C5 6 5 6 4 3 C1.99983534 1.79117904 1.99983534 1.79117904 0 1 C0 0.67 0 0.34 0 0 Z " fill="#777779" transform="translate(205,202)"/>
<path d="M0 0 C0.66 0.33 1.32 0.66 2 1 C1.01 3.97 0.02 6.94 -1 10 C-1.33 10 -1.66 10 -2 10 C-2.33 8.02 -2.66 6.04 -3 4 C-2.34 4 -1.68 4 -1 4 C-0.67 2.68 -0.34 1.36 0 0 Z " fill="#5A5A5B" transform="translate(193,256)"/>
</svg>
