<?xml version="1.0" standalone="no"?>
<!DOCTYPE svg PUBLIC "-//W3C//DTD SVG 20010904//EN"
 "http://www.w3.org/TR/2001/REC-SVG-20010904/DTD/svg10.dtd">
<svg version="1.0" xmlns="http://www.w3.org/2000/svg"
 width="340.000000pt" height="340.000000pt" viewBox="0 0 340.000000 340.000000"
 preserveAspectRatio="xMidYMid meet">

<g transform="translate(0.000000,340.000000) scale(0.100000,-0.100000)"
fill="#000000" stroke="none">
<path d="M1440 1894 c0 -17 17 -18 23 -1 4 9 6 9 6 -1 1 -7 6 -10 13 -6 8 5 9
2 5 -10 -4 -10 -7 -25 -7 -33 0 -10 -6 -14 -19 -10 -17 4 -19 1 -14 -30 3 -19
1 -38 -4 -42 -6 -3 -7 -14 -2 -26 7 -19 8 -19 8 3 1 12 6 22 12 22 6 0 8 -10
5 -22 -3 -13 -3 -17 0 -10 3 6 16 12 30 12 21 0 23 -3 17 -32 -5 -26 -3 -30
10 -25 8 3 21 0 27 -7 17 -22 59 -26 70 -7 5 9 10 11 10 4 0 -6 -7 -18 -15
-27 -19 -19 -19 -36 0 -36 15 0 29 -9 58 -36 9 -9 17 -6 31 10 l18 21 -6 -22
c-6 -17 -3 -23 9 -23 11 0 16 -7 14 -22 -4 -28 8 -49 24 -43 7 3 19 0 27 -5
12 -7 13 -13 4 -28 -13 -20 3 -52 25 -52 6 0 11 -8 11 -19 0 -10 10 -26 23
-34 21 -15 21 -16 2 -18 -11 -1 -2 -5 20 -9 33 -6 25 -8 -45 -10 -122 -4 -145
-2 -240 27 -211 62 -337 113 -445 178 -33 20 -52 29 -43 20 22 -24 73 -54 193
-115 85 -44 106 -61 42 -35 -12 5 -17 3 -15 -6 3 -14 -1 -14 -97 -9 -22 2 -66
12 -97 22 -32 11 -64 18 -72 15 -9 -4 -18 -2 -21 3 -4 6 -15 10 -25 10 -11 0
-35 14 -53 30 l-35 30 -5 -26 c-3 -20 0 -28 14 -31 11 -3 19 -9 19 -14 0 -5 6
-9 13 -9 6 0 26 -9 42 -21 25 -17 26 -19 7 -14 -23 7 -24 5 -21 -47 1 -29 7
-60 13 -68 8 -12 8 -13 -4 -2 -21 18 -61 16 -54 -3 5 -11 -3 -17 -25 -21 -36
-8 -36 -7 -14 -45 21 -36 122 -79 241 -105 53 -11 82 -22 82 -31 0 -7 5 -13
11 -13 5 0 7 5 3 11 -5 8 6 10 37 6 24 -4 130 -14 234 -23 396 -34 816 9 967
99 45 27 53 37 53 62 0 24 -4 29 -20 27 -11 -2 -32 -4 -47 -5 -14 -1 -24 -6
-21 -10 3 -5 -25 -7 -61 -5 -44 2 -66 7 -66 16 0 10 -9 14 -30 14 -3 0 -16 -3
-30 -6 -22 -6 -21 -5 7 14 l32 21 22 -22 c19 -19 23 -20 31 -6 5 9 15 14 23
11 18 -7 70 32 55 41 -14 9 -3 25 13 19 8 -3 27 7 43 21 16 14 35 30 42 36 24
19 13 30 -25 24 l-38 -6 40 20 c46 22 40 28 -9 7 -18 -7 -53 -17 -77 -21 -24
-4 -77 -16 -118 -26 -41 -11 -104 -18 -140 -18 l-66 2 74 8 c41 5 75 10 77 12
4 4 -62 73 -85 89 -10 7 -23 27 -29 43 -6 19 -11 23 -11 12 -1 -17 -2 -17 -17
-3 -19 19 -15 60 7 64 8 1 31 -9 50 -22 18 -14 43 -30 54 -35 41 -20 77 -58
80 -84 2 -15 -2 -28 -8 -28 -7 -1 2 -4 18 -8 31 -7 172 23 190 40 6 6 5 26 -3
57 -35 129 -251 254 -582 338 -119 30 -164 39 -245 50 -11 1 -22 3 -25 4 -13
6 -37 5 -57 -2 -13 -4 -23 -4 -23 1 0 15 -33 22 -42 9 -6 -10 -8 -9 -8 4 0 12
-9 16 -35 16 -23 0 -35 -5 -35 -14z m91 -41 c13 -16 12 -17 -3 -4 -10 7 -18
15 -18 17 0 8 8 3 21 -13z m126 -245 c-3 -7 -5 -2 -5 12 0 14 2 19 5 13 2 -7
2 -19 0 -25z m33 -18 c0 -5 -2 -10 -4 -10 -3 0 -8 5 -11 10 -3 6 -1 10 4 10 6
0 11 -4 11 -10z m765 -220 c-3 -5 -14 -10 -23 -9 -14 0 -13 2 3 9 27 11 27 11
20 0z m-377 -37 c-10 -2 -26 -2 -35 0 -10 3 -2 5 17 5 19 0 27 -2 18 -5z"/>
<path d="M1404 1866 c11 -9 24 -16 30 -16 12 0 7 5 -24 19 -24 11 -24 11 -6
-3z"/>
<path d="M1015 1605 c11 -9 29 -21 40 -26 l20 -10 -20 16 c-11 9 -29 21 -40
26 l-20 10 20 -16z"/>
<path d="M2528 1466 c-3 -14 -2 -26 2 -26 12 0 19 26 10 39 -5 9 -9 4 -12 -13z"/>
<path d="M1508 1013 c6 -2 18 -2 25 0 6 3 1 5 -13 5 -14 0 -19 -2 -12 -5z"/>
<path d="M1638 1003 c12 -2 30 -2 40 0 9 3 -1 5 -23 4 -22 0 -30 -2 -17 -4z"/>
<path d="M1375 815 c19 -15 105 -45 130 -45 7 0 27 -7 45 -16 27 -14 54 -16
169 -11 192 8 282 25 334 62 21 15 17 16 -68 8 -139 -12 -525 -5 -600 12 -29
6 -29 6 -10 -10z m112 -11 c-3 -3 -12 -4 -19 -1 -8 3 -5 6 6 6 11 1 17 -2 13
-5z"/>
</g>
</svg>
