<?xml version="1.0" encoding="UTF-8"?>
<svg version="1.1" xmlns="http://www.w3.org/2000/svg" width="340" height="340">
<path d="M0 0 C112.2 0 224.4 0 340 0 C340 112.2 340 224.4 340 340 C227.8 340 115.6 340 0 340 C0 227.8 0 115.6 0 0 Z " fill="#DFE1E3" transform="translate(0,0)"/>
<path d="M0 0 C1.4185051 0.02751633 2.83704646 0.05321472 4.25561523 0.07722473 C7.94556253 0.14486649 11.63439224 0.23849893 15.3236084 0.33764648 C18.30265742 0.41333684 21.28192488 0.47042457 24.26139832 0.52649975 C61.10080285 1.22264847 61.10080285 1.22264847 77.6875 3.51953125 C78.61256348 3.64561768 79.53762695 3.7717041 80.49072266 3.90161133 C88.08970466 5.00370833 95.28499842 6.76049915 102.5625 9.20703125 C102.8925 10.52703125 103.2225 11.84703125 103.5625 13.20703125 C98.76377899 15.44643439 93.73394153 16.26311765 88.5625 17.20703125 C94.86517439 16.83926957 99.89501843 16.04077203 105.5625 13.20703125 C104.14789937 20.93375136 102.91159144 27.61324745 98.5625 34.20703125 C98.31886719 35.05523437 98.07523438 35.9034375 97.82421875 36.77734375 C96.5625 39.20703125 96.5625 39.20703125 93.7421875 40.3515625 C90.68229167 40.97005208 87.62239583 41.58854167 84.5625 42.20703125 C88.8525 41.54703125 93.1425 40.88703125 97.5625 40.20703125 C98.36865371 44.23779981 98.64622276 45.93936618 98.0625 49.70703125 C97.61146575 53.12689857 97.5868961 55.84661782 98.5625 59.20703125 C90.300541 64.76283991 90.300541 64.76283991 85.5625 65.20703125 C86.635 65.08328125 87.7075 64.95953125 88.8125 64.83203125 C92.0279107 64.29612947 93.76692877 63.65301637 96.5625 62.20703125 C97.8825 62.20703125 99.2025 62.20703125 100.5625 62.20703125 C100.8925 62.86703125 101.2225 63.52703125 101.5625 64.20703125 C101.8925 63.87703125 102.2225 63.54703125 102.5625 63.20703125 C105.28018674 63.10654032 107.97248907 63.07086878 110.69067383 63.07763672 C111.54270889 63.0758844 112.39474396 63.07413208 113.27259827 63.07232666 C116.10492965 63.06790562 118.93719917 63.07084779 121.76953125 63.07421875 C123.73150138 63.0735456 125.69347144 63.07257547 127.65544128 63.07131958 C131.77559195 63.06984211 135.89572098 63.07199803 140.01586914 63.07666016 C145.29875068 63.08234624 150.58158129 63.07908586 155.86446095 63.07308769 C159.91961551 63.06947381 163.97475802 63.07062468 168.02991295 63.07321548 C169.97757663 63.07388304 171.92524141 63.07306229 173.87290382 63.07073593 C176.59734621 63.06819712 179.32170632 63.07206793 182.04614258 63.07763672 C182.85305542 63.07561249 183.65996826 63.07358826 184.49133301 63.07150269 C188.08789402 63.08512482 191.04689947 63.32813112 194.5625 64.20703125 C194.5625 103.47703125 194.5625 142.74703125 194.5625 183.20703125 C82.3625 183.20703125 -29.8375 183.20703125 -145.4375 183.20703125 C-145.4375 64.20703125 -145.4375 64.20703125 -144.4375 63.20703125 C-141.6986158 63.11186914 -138.98502059 63.08148531 -136.24584961 63.09350586 C-135.38738937 63.09335983 -134.52892914 63.09321381 -133.64445496 63.09306335 C-130.79289262 63.09376278 -127.94139475 63.10155655 -125.08984375 63.109375 C-123.11829158 63.11123907 -121.14673895 63.11266303 -119.17518616 63.11366272 C-113.97523733 63.11748874 -108.77531625 63.12731973 -103.57537842 63.1383667 C-98.27356339 63.14857903 -92.9717439 63.15315996 -87.66992188 63.15820312 C-77.25910237 63.16894192 -66.84830349 63.18601934 -56.4375 63.20703125 C-56.458125 64.01140625 -56.47875 64.81578125 -56.5 65.64453125 C-56.73383621 68.1405801 -56.73383621 68.1405801 -55.4375 69.20703125 C-55.40840237 65.95705013 -55.39066839 62.70710268 -55.375 59.45703125 C-55.36243164 58.07644531 -55.36243164 58.07644531 -55.34960938 56.66796875 C-55.34477539 55.33378906 -55.34477539 55.33378906 -55.33984375 53.97265625 C-55.33198853 52.74724121 -55.33198853 52.74724121 -55.32397461 51.49707031 C-55.43495865 49.25829538 -55.85751251 47.36402569 -56.4375 45.20703125 C-56.5783287 43.18938929 -56.65742822 41.1668585 -56.6875 39.14453125 C-56.71328125 38.10167969 -56.7390625 37.05882812 -56.765625 35.984375 C-56.4375 33.20703125 -56.4375 33.20703125 -54.875 31.65625 C-54.400625 31.17800781 -53.92625 30.69976562 -53.4375 30.20703125 C-53.47795516 27.74250466 -53.47795516 27.74250466 -54.1875 25.08203125 C-55.25933464 20.11321756 -55.94006186 15.26431901 -56.4375 10.20703125 C-55.4475 10.86703125 -54.4575 11.52703125 -53.4375 12.20703125 C-53.4375 12.86703125 -53.4375 13.52703125 -53.4375 14.20703125 C-52.1175 14.20703125 -50.7975 14.20703125 -49.4375 14.20703125 C-49.4375 14.86703125 -49.4375 15.52703125 -49.4375 16.20703125 C-48.1175 15.87703125 -46.7975 15.54703125 -45.4375 15.20703125 C-46.4275 14.71203125 -46.4275 14.71203125 -47.4375 14.20703125 C-47.4375 13.54703125 -47.4375 12.88703125 -47.4375 12.20703125 C-48.4275 12.53703125 -49.4175 12.86703125 -50.4375 13.20703125 C-51.4275 12.21703125 -52.4175 11.22703125 -53.4375 10.20703125 C-51.77901823 9.19351461 -50.11084039 8.1958233 -48.4375 7.20703125 C-47.839375 6.85125 -47.24125 6.49546875 -46.625 6.12890625 C-43.89295063 4.97754259 -41.64889857 4.92974237 -38.6875 4.83203125 C-33.50371366 4.53454165 -28.93388383 3.61172338 -23.94921875 2.1809082 C-15.89681195 0.03621861 -8.33520456 -0.25040576 0 0 Z " fill="#E0E1DF" transform="translate(145.4375,156.79296875)"/>
<path d="M0 0 C1.4185051 0.02751633 2.83704646 0.05321472 4.25561523 0.07722473 C7.94556253 0.14486649 11.63439224 0.23849893 15.3236084 0.33764648 C18.30265742 0.41333684 21.28192488 0.47042457 24.26139832 0.52649975 C61.10080285 1.22264847 61.10080285 1.22264847 77.6875 3.51953125 C78.61256348 3.64561768 79.53762695 3.7717041 80.49072266 3.90161133 C88.08970466 5.00370833 95.28499842 6.76049915 102.5625 9.20703125 C102.8925 10.52703125 103.2225 11.84703125 103.5625 13.20703125 C98.76377899 15.44643439 93.73394153 16.26311765 88.5625 17.20703125 C94.86517439 16.83926957 99.89501843 16.04077203 105.5625 13.20703125 C104.14789937 20.93375136 102.91159144 27.61324745 98.5625 34.20703125 C98.31886719 35.05523437 98.07523438 35.9034375 97.82421875 36.77734375 C96.5625 39.20703125 96.5625 39.20703125 93.7421875 40.3515625 C90.68229167 40.97005208 87.62239583 41.58854167 84.5625 42.20703125 C88.8525 41.54703125 93.1425 40.88703125 97.5625 40.20703125 C98.36865371 44.23779981 98.64622276 45.93936618 98.0625 49.70703125 C97.61146575 53.12689857 97.5868961 55.84661782 98.5625 59.20703125 C90.300541 64.76283991 90.300541 64.76283991 85.5625 65.20703125 C87.1403125 64.99046875 87.1403125 64.99046875 88.75 64.76953125 C91.71710549 64.33176159 94.63044366 63.82898259 97.5625 63.20703125 C95.5393066 65.70627016 94.16665238 66.35547411 91.0625 67.51953125 C86.95235137 69.50121005 86.14229498 71.02522101 84.5625 75.20703125 C83.5725 75.20703125 82.5825 75.20703125 81.5625 75.20703125 C81.2325 73.88703125 80.9025 72.56703125 80.5625 71.20703125 C78.9579444 71.34852114 77.35386233 71.49538811 75.75 71.64453125 C74.41001953 71.76634766 74.41001953 71.76634766 73.04296875 71.890625 C70.43506441 72.14192892 70.43506441 72.14192892 67.5625 73.20703125 C67.2325 73.86703125 66.9025 74.52703125 66.5625 75.20703125 C63.6875 75.95703125 63.6875 75.95703125 60.5625 76.20703125 C59.0775 75.21703125 59.0775 75.21703125 57.5625 74.20703125 C57.2325 74.53703125 56.9025 74.86703125 56.5625 75.20703125 C55.03742454 75.33981703 53.50680925 75.4103219 51.9765625 75.453125 C51.04585938 75.48599609 50.11515625 75.51886719 49.15625 75.55273438 C47.18500564 75.61368733 45.21364548 75.67100873 43.2421875 75.72460938 C42.30890625 75.75876953 41.375625 75.79292969 40.4140625 75.828125 C39.12749756 75.86570923 39.12749756 75.86570923 37.81494141 75.90405273 C35.28210899 76.07702724 35.28210899 76.07702724 32.5625 78.20703125 C31.9025 77.54703125 31.2425 76.88703125 30.5625 76.20703125 C28.47916667 76.37369792 28.47916667 76.37369792 26.5625 77.20703125 C26.2325 77.86703125 25.9025 78.52703125 25.5625 79.20703125 C24.9025 79.20703125 24.2425 79.20703125 23.5625 79.20703125 C22.9025 78.54703125 22.2425 77.88703125 21.5625 77.20703125 C20.0775 77.70203125 20.0775 77.70203125 18.5625 78.20703125 C15.09993502 79.36121958 12.75383844 79.17050421 9.125 78.89453125 C7.99191406 78.81589844 6.85882813 78.73726563 5.69140625 78.65625 C2.79985836 78.24110892 1.08292012 77.57607764 -1.4375 76.20703125 C-3.50131575 76.53546509 -3.50131575 76.53546509 -5.4375 77.20703125 C-8.05863708 77.20703125 -9.94685112 76.8941068 -12.4375 76.20703125 C-12.4375 75.54703125 -12.4375 74.88703125 -12.4375 74.20703125 C-14.0153125 74.48546875 -14.0153125 74.48546875 -15.625 74.76953125 C-19.0885793 75.16699117 -21.1239606 74.9918169 -24.4375 74.20703125 C-26.1037553 74.17000335 -27.77151319 74.15943163 -29.4375 74.20703125 C-29.4375 73.54703125 -29.4375 72.88703125 -29.4375 72.20703125 C-30.55125 72.51640625 -30.55125 72.51640625 -31.6875 72.83203125 C-34.91257455 73.27181414 -35.63717319 72.68955721 -38.4375 71.20703125 C-40.76245277 70.81953912 -43.09601268 70.47720286 -45.4375 70.20703125 C-45.4375 69.21703125 -45.4375 68.22703125 -45.4375 67.20703125 C-46.7575 67.20703125 -48.0775 67.20703125 -49.4375 67.20703125 C-49.7675 68.85703125 -50.0975 70.50703125 -50.4375 72.20703125 C-49.7775 72.20703125 -49.1175 72.20703125 -48.4375 72.20703125 C-48.4375 74.51703125 -48.4375 76.82703125 -48.4375 79.20703125 C-49.0975 79.20703125 -49.7575 79.20703125 -50.4375 79.20703125 C-51.09107278 77.98196227 -51.73498233 76.75173609 -52.375 75.51953125 C-52.73464844 74.83503906 -53.09429687 74.15054688 -53.46484375 73.4453125 C-55.72054638 68.25447874 -55.53277122 63.19408007 -55.4375 57.64453125 C-55.36407437 53.34546073 -55.3394501 49.38531133 -56.4375 45.20703125 C-56.5783287 43.18938929 -56.65742822 41.1668585 -56.6875 39.14453125 C-56.71328125 38.10167969 -56.7390625 37.05882812 -56.765625 35.984375 C-56.4375 33.20703125 -56.4375 33.20703125 -54.875 31.65625 C-54.400625 31.17800781 -53.92625 30.69976562 -53.4375 30.20703125 C-53.47795516 27.74250466 -53.47795516 27.74250466 -54.1875 25.08203125 C-55.25933464 20.11321756 -55.94006186 15.26431901 -56.4375 10.20703125 C-54.9525 11.19703125 -54.9525 11.19703125 -53.4375 12.20703125 C-53.4375 12.86703125 -53.4375 13.52703125 -53.4375 14.20703125 C-52.1175 14.20703125 -50.7975 14.20703125 -49.4375 14.20703125 C-49.4375 14.86703125 -49.4375 15.52703125 -49.4375 16.20703125 C-48.1175 15.87703125 -46.7975 15.54703125 -45.4375 15.20703125 C-46.0975 14.87703125 -46.7575 14.54703125 -47.4375 14.20703125 C-47.4375 13.54703125 -47.4375 12.88703125 -47.4375 12.20703125 C-48.4275 12.53703125 -49.4175 12.86703125 -50.4375 13.20703125 C-51.4275 12.21703125 -52.4175 11.22703125 -53.4375 10.20703125 C-51.77901823 9.19351461 -50.11084039 8.1958233 -48.4375 7.20703125 C-47.5403125 6.67335937 -47.5403125 6.67335937 -46.625 6.12890625 C-43.89295063 4.97754259 -41.64889857 4.92974237 -38.6875 4.83203125 C-33.50371366 4.53454165 -28.93388383 3.61172338 -23.94921875 2.1809082 C-15.89681195 0.03621861 -8.33520456 -0.25040576 0 0 Z " fill="#848575" transform="translate(145.4375,156.79296875)"/>
<path d="M0 0 C1.4185051 0.02751633 2.83704646 0.05321472 4.25561523 0.07722473 C7.94556253 0.14486649 11.63439224 0.23849893 15.3236084 0.33764648 C18.30265742 0.41333684 21.28192488 0.47042457 24.26139832 0.52649975 C61.10080285 1.22264847 61.10080285 1.22264847 77.6875 3.51953125 C78.61256348 3.64561768 79.53762695 3.7717041 80.49072266 3.90161133 C88.08970466 5.00370833 95.28499842 6.76049915 102.5625 9.20703125 C102.8925 10.52703125 103.2225 11.84703125 103.5625 13.20703125 C98.76377899 15.44643439 93.73394153 16.26311765 88.5625 17.20703125 C94.86517439 16.83926957 99.89501843 16.04077203 105.5625 13.20703125 C104.14789937 20.93375136 102.91159144 27.61324745 98.5625 34.20703125 C98.253125 35.15578125 97.94375 36.10453125 97.625 37.08203125 C97.274375 37.78328125 96.92375 38.48453125 96.5625 39.20703125 C92.11128333 40.58151366 87.47260386 40.35153061 82.859375 40.33984375 C82.02214905 40.34080048 81.1849231 40.3417572 80.32232666 40.34274292 C78.55391362 40.34342186 76.78549806 40.34158754 75.01708984 40.33740234 C72.33555367 40.33207703 69.65418705 40.33734311 66.97265625 40.34375 C65.24739547 40.34308864 63.52213479 40.34180629 61.796875 40.33984375 C61.00593445 40.34186798 60.2149939 40.34389221 59.40008545 40.34597778 C54.05282716 40.32391546 48.86911098 39.87217405 43.5625 39.20703125 C43.5625 37.88703125 43.5625 36.56703125 43.5625 35.20703125 C42.0775 34.71203125 42.0775 34.71203125 40.5625 34.20703125 C40.5625 33.54703125 40.5625 32.88703125 40.5625 32.20703125 C39.9025 32.20703125 39.2425 32.20703125 38.5625 32.20703125 C38.0675 30.22703125 38.0675 30.22703125 37.5625 28.20703125 C39.83659841 25.69768128 41.60070108 24.29696174 45.02734375 23.9765625 C46.92359699 24.00581746 48.8196158 24.056129 50.71484375 24.125 C57.10628493 24.30911559 62.52886358 23.25886874 68.5625 21.20703125 C67.58531006 21.26761719 66.60812012 21.32820313 65.60131836 21.390625 C46.61267236 22.54840887 27.65180286 23.41593311 8.625 23.45703125 C7.82963837 23.46202637 7.03427673 23.46702148 6.21481323 23.47216797 C-7.50766443 23.54333619 -20.743198 22.22501663 -34.25 19.70703125 C-34.91580078 19.58972656 -35.58160156 19.47242188 -36.26757812 19.3515625 C-40.84673199 18.49383579 -43.58216609 16.77725386 -47.4375 14.20703125 C-47.4375 13.54703125 -47.4375 12.88703125 -47.4375 12.20703125 C-48.4275 12.53703125 -49.4175 12.86703125 -50.4375 13.20703125 C-51.4275 12.21703125 -52.4175 11.22703125 -53.4375 10.20703125 C-51.77901823 9.19351461 -50.11084039 8.1958233 -48.4375 7.20703125 C-47.839375 6.85125 -47.24125 6.49546875 -46.625 6.12890625 C-43.89295063 4.97754259 -41.64889857 4.92974237 -38.6875 4.83203125 C-33.50371366 4.53454165 -28.93388383 3.61172338 -23.94921875 2.1809082 C-15.89681195 0.03621861 -8.33520456 -0.25040576 0 0 Z " fill="#C4CBC0" transform="translate(145.4375,156.79296875)"/>
<path d="M0 0 C2.37548406 0.43499124 4.75044749 0.8724681 7.125 1.3125 C8.21119629 1.51335205 8.21119629 1.51335205 9.31933594 1.71826172 C15.02374853 2.78612576 20.67930045 4.01821051 26.328125 5.3515625 C37.35158755 7.29825908 48.52991181 7.1975017 59.6875 7.1875 C60.92851974 7.18858765 60.92851974 7.18858765 62.1946106 7.18969727 C82.16130889 7.18779275 102.07219249 6.16339657 122 5 C117.67568142 9.32431858 111.81914933 9.33826586 106 9.5625 C98.93895523 9.8084885 98.93895523 9.8084885 92 11 C89.7226499 13.81509993 89.7226499 13.81509993 90 17 C90.66 17 91.32 17 92 17 C93.625 18.25 93.625 18.25 95 20 C95 21.32 95 22.64 95 24 C110.84 24 126.68 24 143 24 C140.28771414 26.71228586 138.34507396 26.55514375 134.55859375 27.03515625 C133.25212891 27.20466797 131.94566406 27.37417969 130.59960938 27.54882812 C129.21225599 27.72018497 127.82488607 27.89140797 126.4375 28.0625 C125.07737585 28.23686659 123.71734832 28.4119887 122.35742188 28.58789062 C118.57333453 29.07344457 114.78799988 29.54573643 111 30 C110.35702469 30.09037537 109.71404938 30.18075073 109.05158997 30.27386475 C101.84784346 31.21482465 94.64777776 31.14517101 87.39453125 31.1328125 C85.98361698 31.13348813 84.57270282 31.1344603 83.16178894 31.13571167 C80.21421188 31.13717888 77.26666529 31.13506731 74.3190918 31.13037109 C70.58216043 31.12470079 66.84530135 31.1279419 63.10837269 31.13394356 C60.19546488 31.1375983 57.28257352 31.13638788 54.36966515 31.13381577 C52.99406615 31.13315862 51.61846555 31.13393136 50.24286842 31.13629532 C38.47105779 31.15207935 26.62948885 31.00230379 15.0625 28.625 C13.87785156 28.39039063 12.69320312 28.15578125 11.47265625 27.9140625 C0.47310274 25.01879195 0.47310274 25.01879195 -2 21 C-1.6875 18.3125 -1.6875 18.3125 -1 16 C8.41002278 15.81548975 8.41002278 15.81548975 13 17 C13 16.34 13 15.68 13 15 C12.01 14.67 11.02 14.34 10 14 C10.66 14 11.32 14 12 14 C12.33 13.01 12.66 12.02 13 11 C11.68 10.67 10.36 10.34 9 10 C8.979375 9.236875 8.95875 8.47375 8.9375 7.6875 C8.628125 6.800625 8.31875 5.91375 8 5 C4.545183 3.26931729 4.545183 3.26931729 1 2 C0.67 1.34 0.34 0.68 0 0 Z " fill="#6E6955" transform="translate(94,172)"/>
<path d="M0 0 C0.89015808 -0.0007251 1.78031616 -0.0014502 2.69744873 -0.00219727 C17.70605729 -0.00081542 32.61100929 0.43821121 47.5 2.5 C48.42506348 2.62608643 49.35012695 2.75217285 50.30322266 2.88208008 C57.90220466 3.98417708 65.09749842 5.7409679 72.375 8.1875 C72.87 10.1675 72.87 10.1675 73.375 12.1875 C69.06065004 14.17022888 64.72432277 14.9482147 60.0625 15.625 C59.20567627 15.74987793 58.34885254 15.87475586 57.46606445 16.00341797 C33.50806875 19.33826106 9.53831345 20.73077906 -14.625 21.1875 C-15.12 20.1975 -15.12 20.1975 -15.625 19.1875 C-16.800625 19.496875 -16.800625 19.496875 -18 19.8125 C-22.71629943 20.30039304 -27.13770062 19.76935374 -31.625 18.1875 C-32.285 17.1975 -32.945 16.2075 -33.625 15.1875 C-33.315625 14.671875 -33.00625 14.15625 -32.6875 13.625 C-31.33440713 10.52084577 -31.01140576 7.53634993 -30.625 4.1875 C-33.76399152 3.17853844 -35.48461049 3.35622042 -38.625 4.1875 C-40.171875 4.1565625 -40.171875 4.1565625 -41.75 4.125 C-44.75739112 3.85884345 -44.75739112 3.85884345 -46.625 6.1875 C-46.955 4.8675 -47.285 3.5475 -47.625 2.1875 C-31.73406907 0.4915051 -15.96873994 -0.01268843 0 0 Z " fill="#7C8B71" transform="translate(175.625,157.8125)"/>
<path d="M0 0 C3.04488842 0.46134673 5.33986539 1.16232377 8.140625 2.5 C12.30256893 4.31297832 16.191813 4.55266791 20.6875 4.6875 C21.47189453 4.72166016 22.25628906 4.75582031 23.06445312 4.79101562 C28.64815899 5.01509555 34.22520334 5.06166215 39.8125 4.9375 C42 5 42 5 44 6 C44 6.66 44 7.32 44 8 C45.32 7.67 46.64 7.34 48 7 C47.34 6.67 46.68 6.34 46 6 C46 5.01 46 4.02 46 3 C49.3 3.33 52.6 3.66 56 4 C56 5.32 56 6.64 56 8 C56.7734375 7.7215625 56.7734375 7.7215625 57.5625 7.4375 C60.85908739 6.84580483 63.72245735 7.432733 67 8 C67.33 7.34 67.66 6.68 68 6 C70.64 6 73.28 6 76 6 C76 5.34 76 4.68 76 4 C76.99 4 77.98 4 79 4 C79 4.66 79 5.32 79 6 C79.99 6 80.98 6 82 6 C82.42494508 9.65452773 82.32483435 11.49470212 80.3125 14.625 C66.6154105 26.36536243 39.43743677 24.270525 22.625 24.25 C21.81200439 24.24931519 20.99900879 24.24863037 20.16137695 24.2479248 C17.80795723 24.24138819 15.45488653 24.22496677 13.1015625 24.203125 C12.05417404 24.1965387 12.05417404 24.1965387 10.98562622 24.18981934 C6.24747026 24.12286504 1.68452654 23.65341125 -3 23 C-3 22.67 -3 22.34 -3 22 C-1.80455566 21.96241577 -1.80455566 21.96241577 -0.58496094 21.92407227 C3.02685222 21.80801211 6.63841102 21.68533069 10.25 21.5625 C11.50425781 21.52318359 12.75851563 21.48386719 14.05078125 21.44335938 C15.25605469 21.40146484 16.46132812 21.35957031 17.703125 21.31640625 C18.81333008 21.27974854 19.92353516 21.24309082 21.06738281 21.20532227 C23.53021849 21.03289096 25.64482965 20.70404561 28 20 C28 19.34 28 18.68 28 18 C26.35 17.67 24.7 17.34 23 17 C23 16.67 23 16.34 23 16 C24.65 16 26.3 16 28 16 C25.60490662 13.10067643 23.68754757 12.49831724 20 12 C20 11.34 20 10.68 20 10 C19.01 10 18.02 10 17 10 C17 9.34 17 8.68 17 8 C13.4527039 9.21177299 13.4527039 9.21177299 10.5625 11.5 C7.61877694 14.32597414 3.97499428 15 0 15 C2.31 12.36 4.62 9.72 7 7 C3.535 5.02 3.535 5.02 0 3 C0 2.01 0 1.02 0 0 Z " fill="#95968F" transform="translate(120,260)"/>
<path d="M0 0 C1.47171501 3.24792279 2.2795768 5.46180614 1.6875 9 C1.57921875 9.680625 1.4709375 10.36125 1.359375 11.0625 C0.47727273 15.81818182 0.47727273 15.81818182 0 18 C2.97 18 5.94 18 9 18 C8.67 18.66 8.34 19.32 8 20 C3.53999729 21.3625988 -1.08474406 21.14451241 -5.703125 21.1328125 C-6.54035095 21.13376923 -7.3775769 21.13472595 -8.24017334 21.13571167 C-10.00858638 21.13639061 -11.77700194 21.13455629 -13.54541016 21.13037109 C-16.22694633 21.12504578 -18.90831295 21.13031186 -21.58984375 21.13671875 C-23.31510453 21.13605739 -25.04036521 21.13477504 -26.765625 21.1328125 C-27.55656555 21.13483673 -28.3475061 21.13686096 -29.16241455 21.13894653 C-34.50967284 21.11688421 -39.69338902 20.6651428 -45 20 C-45 18.68 -45 17.36 -45 16 C-45.99 15.67 -46.98 15.34 -48 15 C-48 14.34 -48 13.68 -48 13 C-48.66 13 -49.32 13 -50 13 C-50.33 11.68 -50.66 10.36 -51 9 C-48.72590159 6.49065003 -46.96179892 5.08993049 -43.53515625 4.76953125 C-41.63115996 4.79890567 -39.72738177 4.84663278 -37.82421875 4.91015625 C-31.47427157 5.1121601 -26.26149659 4.1644392 -20.3125 1.9375 C-13.52295352 -0.48921532 -7.13188974 -0.37980478 0 0 Z " fill="#9FADA5" transform="translate(234,176)"/>
<path d="M0 0 C1.21210732 4.17503631 0.74803852 7.61930284 0.19140625 11.83984375 C-0.03451157 14.38948771 0.28773307 16.54663613 1 19 C0.01 19 -0.98 19 -2 19 C-4.74051107 19.92497626 -7.41798458 20.9785463 -10.11328125 22.02734375 C-15.43756903 23.82131893 -20.53039852 24.15729157 -26.125 24.1875 C-27.32382813 24.20167969 -28.52265625 24.21585938 -29.7578125 24.23046875 C-32.80284753 24.01401445 -34.45327005 23.60279273 -37 22 C-37 21.34 -37 20.68 -37 20 C-37.66 20 -38.32 20 -39 20 C-39.6875 17.1875 -39.6875 17.1875 -40 14 C-38.5625 12.25 -38.5625 12.25 -37 11 C-37 10.34 -37 9.68 -37 9 C-37.928125 9.350625 -38.85625 9.70125 -39.8125 10.0625 C-43 11 -43 11 -46 10 C-46 9.34 -46 8.68 -46 8 C-39.73 7.34 -33.46 6.68 -27 6 C-45.81 6.99 -45.81 6.99 -65 8 C-65 7.34 -65 6.68 -65 6 C-64.26064209 5.9498877 -63.52128418 5.89977539 -62.75952148 5.84814453 C-44.44020701 4.59354309 -44.44020701 4.59354309 -26.22265625 2.3671875 C-21.76314019 1.85907294 -17.37155328 1.97420585 -12.890625 2.0625 C-8.4241509 1.96592759 -4.35613395 0 0 0 Z " fill="#B7B8AB" transform="translate(243,197)"/>
<path d="M0 0 C11.88 1.98 11.88 1.98 24 4 C24 4.66 24 5.32 24 6 C24.99966797 5.96519531 24.99966797 5.96519531 26.01953125 5.9296875 C30.75983089 5.83687044 35.22252389 5.91911406 39.875 6.875 C58.40664547 10.57791312 77.49961854 10.39308519 96.3125 10.625 C98.91472496 10.66329426 101.5169388 10.70235205 104.11914062 10.7421875 C110.41265977 10.83690229 116.7062491 10.92228802 123 11 C123 11.33 123 11.66 123 12 C106.13799025 15.39132791 89.4225158 15.39758588 72.31121826 15.26428223 C69.38695525 15.24517847 66.46275591 15.24112833 63.5384388 15.2375679 C59.986536 15.23236343 56.434686 15.21790826 52.8828125 15.203125 C51.59601593 15.19887512 50.30921936 15.19462524 48.98342896 15.19024658 C37.96294804 15.10456516 26.88627442 14.84955474 16.0625 12.625 C14.28552734 12.27308594 14.28552734 12.27308594 12.47265625 11.9140625 C1.47310274 9.01879195 1.47310274 9.01879195 -1 5 C-0.67 3.35 -0.34 1.7 0 0 Z " fill="#363328" transform="translate(93,188)"/>
<path d="M0 0 C-4.32431858 4.32431858 -10.18085067 4.33826586 -16 4.5625 C-23.06104477 4.8084885 -23.06104477 4.8084885 -30 6 C-32.2773501 8.81509993 -32.2773501 8.81509993 -32 12 C-31.34 12 -30.68 12 -30 12 C-28.375 13.25 -28.375 13.25 -27 15 C-27 16.32 -27 17.64 -27 19 C-11.16 19 4.68 19 21 19 C17.51973966 22.48026034 12.41357428 21.94866482 7.66699219 22.04962158 C5.23453447 22.0370746 2.80649247 21.98335938 0.375 21.9140625 C-0.97109093 21.8828833 -0.97109093 21.8828833 -2.34437561 21.85107422 C-5.22979288 21.78231709 -8.11485696 21.7043848 -11 21.625 C-12.98363891 21.57326407 -14.96728151 21.52166956 -16.95092773 21.47021484 C-20.85267481 21.36739646 -24.7542466 21.2596932 -28.65576172 21.1484375 C-31.92026851 21.05588276 -35.18467601 20.97014102 -38.44970703 20.8984375 C-41.98781766 20.82043331 -45.52498964 20.726149 -49.0625 20.625 C-50.05830078 20.60646973 -51.05410156 20.58793945 -52.08007812 20.56884766 C-53.4190918 20.5231665 -53.4190918 20.5231665 -54.78515625 20.4765625 C-55.53676025 20.45674316 -56.28836426 20.43692383 -57.06274414 20.41650391 C-59.49356835 19.89388436 -60.42420119 18.87353612 -62 17 C-61.67 16.34 -61.34 15.68 -61 15 C-61.66 15 -62.32 15 -63 15 C-63 13.35 -63 11.7 -63 10 C-61.78376953 9.92652344 -61.78376953 9.92652344 -60.54296875 9.8515625 C-52.25219729 9.29176652 -43.92572568 8.64190856 -36 6 C-35.01 5.67 -34.02 5.34 -33 5 C-33 4.34 -33 3.68 -33 3 C-35.64 3 -38.28 3 -41 3 C-41 2.67 -41 2.34 -41 2 C-35.96469933 1.7133793 -30.92929904 1.42860124 -25.89379883 1.14550781 C-24.18185634 1.04900562 -22.46994183 0.95200567 -20.75805664 0.85449219 C-18.29320399 0.71417528 -15.82825527 0.57566631 -13.36328125 0.4375 C-12.22080681 0.37187866 -12.22080681 0.37187866 -11.05525208 0.30493164 C-7.36548271 0.09983699 -3.69570245 -0.05110738 0 0 Z " fill="#7C7969" transform="translate(216,177)"/>
<path d="M0 0 C3.56311404 0.11029647 7.12521145 0.24082717 10.6875 0.375 C11.69490234 0.4059375 12.70230469 0.436875 13.74023438 0.46875 C14.71669922 0.50742187 15.69316406 0.54609375 16.69921875 0.5859375 C17.59471436 0.6173584 18.49020996 0.6487793 19.4128418 0.68115234 C22 1 22 1 24.37426758 2.01147461 C27.78937257 3.29717987 30.66774788 3.24214478 34.3125 3.23046875 C35.00384033 3.23001053 35.69518066 3.22955231 36.4074707 3.2290802 C37.86313605 3.22607118 39.31879855 3.21822552 40.77441406 3.20581055 C42.99295563 3.18755796 45.21107864 3.18530113 47.4296875 3.18554688 C55.77487352 3.24105984 55.77487352 3.24105984 64 2 C63.86328125 3.83984375 63.86328125 3.83984375 63 6 C60.48046875 7.37890625 60.48046875 7.37890625 57.1875 8.5625 C55.60001953 9.15224609 55.60001953 9.15224609 53.98046875 9.75390625 C52.65750035 10.18138888 51.33006896 10.5951502 50 11 C49.12778809 11.2683667 48.25557617 11.5367334 47.35693359 11.81323242 C39.55301562 14.00440707 32.32296646 14.36558014 24.25 14.1875 C22.47109375 14.16719727 22.47109375 14.16719727 20.65625 14.14648438 C17.77033307 14.11157409 14.88542736 14.06254539 12 14 C12 13.34 12 12.68 12 12 C10.35 11.67 8.7 11.34 7 11 C7 10.67 7 10.34 7 10 C8.65 10 10.3 10 12 10 C9.60490662 7.10067643 7.68754757 6.49831724 4 6 C4 5.34 4 4.68 4 4 C3.01 4 2.02 4 1 4 C0.67 2.68 0.34 1.36 0 0 Z " fill="#5E6255" transform="translate(136,266)"/>
<path d="M0 0 C0.43828125 0.39832031 0.8765625 0.79664063 1.328125 1.20703125 C7.1021571 6.0304605 12.69552683 7.59955618 20 9 C20.78560806 9.16525177 21.57121613 9.33050354 22.38063049 9.50076294 C41.91306456 13.22353475 62.50693776 12.25780201 82.31170654 12.1373291 C86.12770271 12.11642634 89.94372805 12.10764306 93.75976562 12.09765625 C101.17325297 12.07656056 108.58660204 12.042685 116 12 C91.99099382 24.46477978 40.02990313 19.41980589 15 12 C9.01627563 9.70650352 4.06397532 7.01223623 0 2 C0 1.34 0 0.68 0 0 Z " fill="#3E3F31" transform="translate(92,213)"/>
<path d="M0 0 C1.2375 0.45375 2.475 0.9075 3.75 1.375 C21.40407873 7.21379047 41.00284341 6.22314699 59.375 6.5625 C61.57552733 6.60579066 63.77604827 6.64940791 65.9765625 6.69335938 C71.31764042 6.79933661 76.6587831 6.90128861 82 7 C82 7.66 82 8.32 82 9 C83.65 9 85.3 9 87 9 C86.67 9.66 86.34 10.32 86 11 C85.01 11 84.02 11 83 11 C83 11.66 83 12.32 83 13 C82.149823 12.75987183 82.149823 12.75987183 81.2824707 12.51489258 C77.29035811 11.61432937 73.26493897 11.73185213 69.1875 11.6875 C68.31029297 11.65849609 67.43308594 11.62949219 66.52929688 11.59960938 C60.46638086 11.54065806 56.99823681 12.54282938 52 16 C51.7525 15.360625 51.505 14.72125 51.25 14.0625 C50.19790552 11.89426151 50.19790552 11.89426151 48.25 11.1875 C45.87605491 10.89561468 45.87605491 10.89561468 43.0625 11.5 C39.94474654 12.00902097 38.04260938 11.64054934 35 11 C32.76832815 11.36856864 32.76832815 11.36856864 31 12 C31 11.34 31 10.68 31 10 C29.02 10.33 27.04 10.66 25 11 C25 10.34 25 9.68 25 9 C24.07058594 8.96261719 23.14117187 8.92523438 22.18359375 8.88671875 C12.7837091 8.38682916 6.94505723 7.05594551 -1 2 C-0.67 1.34 -0.34 0.68 0 0 Z " fill="#685D46" transform="translate(96,196)"/>
<path d="M0 0 C3.15876741 0.64173604 5.52199596 1.78455728 8.3125 3.375 C20.29915232 9.42302851 34.69907508 9.7454773 47.875 10.6875 C48.72063507 10.75103668 49.56627014 10.81457336 50.43753052 10.8800354 C64.64092009 11.94168463 78.75420275 12.4046512 93 12 C93 12.66 93 13.32 93 14 C92.05125 14.309375 91.1025 14.61875 90.125 14.9375 C87.13919592 15.87394742 87.13919592 15.87394742 85 17 C84.01 16.01 84.01 16.01 83 15 C80.91666667 15.16666667 80.91666667 15.16666667 79 16 C78.67 16.66 78.34 17.32 78 18 C77.34 18 76.68 18 76 18 C75.01 17.01 75.01 17.01 74 16 C72.515 16.495 72.515 16.495 71 17 C67.53743502 18.15418833 65.19133844 17.96347296 61.5625 17.6875 C60.42941406 17.60886719 59.29632813 17.53023437 58.12890625 17.44921875 C55.23735836 17.03407767 53.52042012 16.36904639 51 15 C48.93618425 15.32843384 48.93618425 15.32843384 47 16 C44.37886292 16 42.49064888 15.68707555 40 15 C40 14.34 40 13.68 40 13 C38.948125 13.185625 37.89625 13.37125 36.8125 13.5625 C33.3489207 13.95995992 31.3135394 13.78478565 28 13 C26.3337447 12.9629721 24.66598681 12.95240038 23 13 C23 12.34 23 11.68 23 11 C22.2575 11.20625 21.515 11.4125 20.75 11.625 C17.52492545 12.06478289 16.80032681 11.48252596 14 10 C11.67504723 9.61250787 9.34148732 9.27017161 7 9 C7 8.01 7 7.02 7 6 C6.01 6 5.02 6 4 6 C1.8125 4.125 1.8125 4.125 0 2 C0 1.34 0 0.68 0 0 Z " fill="#69695B" transform="translate(93,218)"/>
<path d="M0 0 C2.06426897 4.12853795 -0.67229656 9.79650165 -2 14 C-3.17779753 16.49467078 -4.51045112 18.66637342 -6 21 C-6.495 22.485 -6.495 22.485 -7 24 C-13.75 25.125 -13.75 25.125 -16 24 C-16.0272415 22.58344207 -16.04650467 21.16672955 -16.0625 19.75 C-16.07410156 18.96109375 -16.08570313 18.1721875 -16.09765625 17.359375 C-16 15 -16 15 -15.43359375 13.015625 C-14.88194704 10.45121329 -15.43658407 8.53758987 -16 6 C-16.61818604 6.06058594 -17.23637207 6.12117187 -17.87329102 6.18359375 C-29.94676572 7.34892217 -41.86435131 8.34508954 -54 8 C-54 7.67 -54 7.34 -54 7 C-49.34267729 6.39777985 -44.68379046 5.81043965 -40.02294922 5.23608398 C-38.44172223 5.0391953 -36.86097174 4.83843572 -35.28076172 4.63354492 C-19.28907788 2.56504439 -19.28907788 2.56504439 -12.00732422 3.84741211 C-7.61885414 4.18100415 -3.83581923 1.91790962 0 0 Z " fill="#C8D0CA" transform="translate(250,170)"/>
<path d="M0 0 C7.26 0.99 14.52 1.98 22 3 C22 3.66 22 4.32 22 5 C22.99966797 4.96519531 22.99966797 4.96519531 24.01953125 4.9296875 C28.75983089 4.83687044 33.22252389 4.91911406 37.875 5.875 C56.40664547 9.57791312 75.49961854 9.39308519 94.3125 9.625 C96.91472496 9.66329426 99.5169388 9.70235205 102.11914062 9.7421875 C108.41265977 9.83690229 114.7062491 9.92228802 121 10 C121 10.33 121 10.66 121 11 C113.10804198 12.78082944 105.87237722 13.17099825 97.8125 12.75 C96.64066162 12.6977124 95.46882324 12.6454248 94.26147461 12.59155273 C91.64326875 12.47221532 89.02578031 12.34782633 86.40820312 12.21630859 C82.40361285 12.01653492 78.39822327 11.84002405 74.39241028 11.66671753 C70.83079375 11.51136949 67.26954283 11.34857113 63.70834351 11.18395996 C61.96528196 11.10394306 60.22213828 11.02569279 58.47891235 10.94934082 C49.44672862 10.54835066 40.6462249 9.93849143 31.71899414 8.41674805 C28.14842525 7.86947669 24.79779966 7.80206465 21.1875 7.875 C20.00542969 7.89304688 18.82335937 7.91109375 17.60546875 7.9296875 C16.74566406 7.95289063 15.88585937 7.97609375 15 8 C15 7.34 15 6.68 15 6 C13.453125 6.3403125 13.453125 6.3403125 11.875 6.6875 C7.44681723 7.04461151 5.6468534 6.45950578 2 4 C1.34 2.68 0.68 1.36 0 0 Z " fill="#4C4A3B" transform="translate(95,189)"/>
<path d="M0 0 C0.33 0 0.66 0 1 0 C1 3.63 1 7.26 1 11 C2.27875 10.79375 3.5575 10.5875 4.875 10.375 C7.0546875 10.0234375 7.0546875 10.0234375 9 10 C11 12 11 12 11.125 15.625 C11.08375 16.73875 11.0425 17.8525 11 19 C11.804375 19.226875 12.60875 19.45375 13.4375 19.6875 C16 21 16 21 16.9375 23.5 C16.958125 24.325 16.97875 25.15 17 26 C15 28 15 28 11.625 28.3125 C7.9140389 27.99258956 6.62756052 27.5224581 4 25 C4.49831724 28.68754757 5.10067643 30.60490662 8 33 C7.34 34.98 6.68 36.96 6 39 C6.66 39 7.32 39 8 39 C8 41.31 8 43.62 8 46 C7.34 46 6.68 46 6 46 C5.34642722 44.77493102 4.70251767 43.54470484 4.0625 42.3125 C3.70285156 41.62800781 3.34320313 40.94351563 2.97265625 40.23828125 C0.71695362 35.04744749 0.90472878 29.98704882 1 24.4375 C1.07347671 20.13543848 1.08139299 16.18310355 0 12 C-0.06743348 9.91765408 -0.08514472 7.83331443 -0.0625 5.75 C-0.04896484 4.13351563 -0.04896484 4.13351563 -0.03515625 2.484375 C-0.02355469 1.66453125 -0.01195313 0.8446875 0 0 Z " fill="#99A095" transform="translate(89,190)"/>
<path d="M0 0 C0.99 0.495 0.99 0.495 2 1 C-0.52932024 2.58985844 -2.7600875 3.92574137 -5.625 4.8125 C-8.93342865 6.46671433 -9.62272786 8.66555166 -11 12 C-11.99 12 -12.98 12 -14 12 C-14.495 10.02 -14.495 10.02 -15 8 C-16.6045556 8.14148989 -18.20863767 8.28835686 -19.8125 8.4375 C-21.15248047 8.55931641 -21.15248047 8.55931641 -22.51953125 8.68359375 C-25.12743559 8.93489767 -25.12743559 8.93489767 -28 10 C-28.33 10.66 -28.66 11.32 -29 12 C-31.875 12.75 -31.875 12.75 -35 13 C-35.99 12.34 -36.98 11.68 -38 11 C-38.33 11.33 -38.66 11.66 -39 12 C-41.6773138 12.09981214 -44.32304175 12.13879875 -47 12.125 C-48.12535156 12.13080078 -48.12535156 12.13080078 -49.2734375 12.13671875 C-54.87338947 12.12661053 -54.87338947 12.12661053 -56 11 C-57.78071246 10.91273777 -59.5648314 10.89300959 -61.34765625 10.90234375 C-62.42724609 10.90556641 -63.50683594 10.90878906 -64.61914062 10.91210938 C-66.32360352 10.92467773 -66.32360352 10.92467773 -68.0625 10.9375 C-69.20267578 10.94201172 -70.34285156 10.94652344 -71.51757812 10.95117188 C-74.34510351 10.96300253 -77.1725264 10.9794859 -80 11 C-80 10.67 -80 10.34 -80 10 C-78.9162207 9.93268677 -78.9162207 9.93268677 -77.81054688 9.86401367 C-47.45418401 8.1005233 -47.45418401 8.1005233 -17.625 2.5546875 C-14.33192187 1.85882873 -11.28453723 1.88358659 -7.9375 2.03125 C-5.08885026 1.98530404 -2.65211522 0.97028606 0 0 Z " fill="#A4A596" transform="translate(241,220)"/>
<path d="M0 0 C7.04919913 0.4185462 13.98293179 0.96962065 20.96875 2 C32.09263398 3.49378541 43.29470012 3.46149357 54.5 3.625 C56.69142004 3.66328091 58.88282667 3.70233807 61.07421875 3.7421875 C66.38269135 3.83705853 71.69124816 3.92240758 77 4 C77 4.33 77 4.66 77 5 C75.10314453 5.19916016 75.10314453 5.19916016 73.16796875 5.40234375 C71.50779375 5.58055463 69.84763852 5.75894963 68.1875 5.9375 C66.93743164 6.06801758 66.93743164 6.06801758 65.66210938 6.20117188 C64.85966797 6.28818359 64.05722656 6.37519531 63.23046875 6.46484375 C62.49207764 6.543396 61.75368652 6.62194824 60.99291992 6.70288086 C58.79730622 6.97151996 58.79730622 6.97151996 56 8 C56.495 8.99 56.495 8.99 57 10 C55.35 10 53.7 10 52 10 C52 9.34 52 8.68 52 8 C51.01 8.66 50.02 9.32 49 10 C46.39531285 10.17094165 43.91307164 10.23499903 41.3125 10.1875 C40.59513672 10.18105469 39.87777344 10.17460937 39.13867188 10.16796875 C34.34871248 10.09835989 29.72107397 9.78684566 25 9 C24.67 7.68 24.34 6.36 24 5 C23.27296875 4.96261719 22.5459375 4.92523438 21.796875 4.88671875 C14.24994883 4.39326589 7.27375594 3.05058013 0 1 C0 0.67 0 0.34 0 0 Z " fill="#635A43" transform="translate(106,176)"/>
<path d="M0 0 C1.485 0.99 1.485 0.99 3 2 C3 2.66 3 3.32 3 4 C4.32 4.33 5.64 4.66 7 5 C7 5.66 7 6.32 7 7 C10.465 8.485 10.465 8.485 14 10 C14 11.65 14 13.3 14 15 C16.97 15.495 16.97 15.495 20 16 C19.01 16.33 18.02 16.66 17 17 C17.33 18.65 17.66 20.3 18 22 C13.38 22 8.76 22 4 22 C4.87313739 26.36568695 5.65102489 28.42547265 8 32 C6.75 33.5625 6.75 33.5625 5 35 C3.68 34.67 2.36 34.34 1 34 C1 29.71 1 25.42 1 21 C1.66 20.67 2.32 20.34 3 20 C2.86722656 19.31035156 2.73445313 18.62070313 2.59765625 17.91015625 C1.47696987 11.94679588 0.59395227 6.03851471 0 0 Z " fill="#939082" transform="translate(89,167)"/>
<path d="M0 0 C5.28 0.99 10.56 1.98 16 3 C15.34 3.66 14.68 4.32 14 5 C16.64 5.66 19.28 6.32 22 7 C21.01 7.33 20.02 7.66 19 8 C19.33 9.32 19.66 10.64 20 12 C21.98 12 23.96 12 26 12 C26.33 12.66 26.66 13.32 27 14 C26.01 14.495 26.01 14.495 25 15 C26.32 15.33 27.64 15.66 29 16 C28.01 18.475 28.01 18.475 27 21 C18.26046032 19.98074847 9.59367299 18.94183957 1 17 C1 16.67 1 16.34 1 16 C5.16138263 15.91840426 8.9472484 16.01751476 13 17 C13 16.34 13 15.68 13 15 C12.01 14.67 11.02 14.34 10 14 C10.66 14 11.32 14 12 14 C12.33 13.01 12.66 12.02 13 11 C11.68 10.67 10.36 10.34 9 10 C8.979375 9.236875 8.95875 8.47375 8.9375 7.6875 C8.628125 6.800625 8.31875 5.91375 8 5 C4.545183 3.26931729 4.545183 3.26931729 1 2 C0.67 1.34 0.34 0.68 0 0 Z " fill="#7B7461" transform="translate(94,172)"/>
<path d="M0 0 C-2.91765 1.9451 -4.62537285 2.45276317 -8 3 C-7.505 4.485 -7.505 4.485 -7 6 C-12.625 8.125 -12.625 8.125 -16 7 C-16.33 8.32 -16.66 9.64 -17 11 C-17.66 11 -18.32 11 -19 11 C-19 10.34 -19 9.68 -19 9 C-21.64 9.33 -24.28 9.66 -27 10 C-27 8.68 -27 7.36 -27 6 C-27.928125 6.350625 -28.85625 6.70125 -29.8125 7.0625 C-33 8 -33 8 -36 7 C-36 6.34 -36 5.68 -36 5 C-29.73 4.34 -23.46 3.68 -17 3 C-35.81 3.99 -35.81 3.99 -55 5 C-55 4.34 -55 3.68 -55 3 C-54.26064209 2.9498877 -53.52128418 2.89977539 -52.75952148 2.84814453 C-49.31848213 2.61204988 -45.87793279 2.36977833 -42.4375 2.125 C-41.1985498 2.03694092 -39.95959961 1.94888184 -38.68310547 1.8581543 C-32.28129118 1.38374387 -25.9677464 0.7970657 -19.625 -0.1875 C-12.95220788 -1.18493938 -6.67656567 -0.83316334 0 0 Z " fill="#A5A08D" transform="translate(233,200)"/>
<path d="M0 0 C2.10409639 -0.02701408 4.20829178 -0.04640223 6.3125 -0.0625 C7.48425781 -0.07410156 8.65601562 -0.08570313 9.86328125 -0.09765625 C13 0 13 0 16 1 C18.64472001 1.0683611 21.2733238 0.99803551 23.91796875 0.9375 C27 1 27 1 30.6730957 1.4934082 C34.89954224 2.03667371 39.05516748 2.16136893 43.3125 2.16796875 C44.47048096 2.17296135 44.47048096 2.17296135 45.65185547 2.17805481 C47.27880261 2.18308675 48.90575993 2.1854643 50.53271484 2.18530273 C52.96600365 2.18746972 55.39882351 2.2056115 57.83203125 2.22460938 C66.88693956 2.25601169 75.62094239 1.75591895 84.58203125 0.4309082 C87.76707615 0.02936504 90.7945919 -0.07761947 94 0 C93.26074219 1.953125 93.26074219 1.953125 92 4 C90.15332031 4.609375 90.15332031 4.609375 87.828125 4.75 C86.93158203 4.80542969 86.03503906 4.86085938 85.11132812 4.91796875 C78.98978109 5.07936547 72.8727507 5.06253782 66.75 5 C64.09891084 4.97320843 61.44808685 4.95340727 58.796875 4.9375 C57.05422363 4.92009766 57.05422363 4.92009766 55.27636719 4.90234375 C52.0082761 4.92573027 52.0082761 4.92573027 48.85888672 5.52514648 C46.17907799 5.97025562 44.13814586 5.98660905 41.4609375 5.66015625 C40.22778809 5.51984985 40.22778809 5.51984985 38.96972656 5.37670898 C37.68533691 5.22117554 37.68533691 5.22117554 36.375 5.0625 C29.69921935 4.31623357 23.20204292 3.85400614 16.4765625 3.99609375 C12.91917264 4.00170478 9.52180646 3.48576641 6 3 C4.0003188 2.96429141 1.99937529 2.95001562 0 3 C0 2.01 0 1.02 0 0 Z " fill="#BDBDB9" transform="translate(90,281)"/>
<path d="M0 0 C0.99 0 1.98 0 3 0 C2.86328125 1.83984375 2.86328125 1.83984375 2 4 C-0.51953125 5.37890625 -0.51953125 5.37890625 -3.8125 6.5625 C-5.39998047 7.15224609 -5.39998047 7.15224609 -7.01953125 7.75390625 C-8.34249965 8.18138888 -9.66993104 8.5951502 -11 9 C-11.87221191 9.2683667 -12.74442383 9.5367334 -13.64306641 9.81323242 C-21.44698438 12.00440707 -28.67703354 12.36558014 -36.75 12.1875 C-38.52890625 12.16719727 -38.52890625 12.16719727 -40.34375 12.14648438 C-43.22966693 12.11157409 -46.11457264 12.06254539 -49 12 C-49 11.34 -49 10.68 -49 10 C-50.65 9.67 -52.3 9.34 -54 9 C-54 8.67 -54 8.34 -54 8 C-52.35 8 -50.7 8 -49 8 C-49 7.34 -49 6.68 -49 6 C-48.38898438 6.0721875 -47.77796875 6.144375 -47.1484375 6.21875 C-30.81780806 7.87481383 -15.29422499 8.6703785 0 2 C0 1.34 0 0.68 0 0 Z " fill="#6C6E67" transform="translate(197,268)"/>
<path d="M0 0 C0.66 0 1.32 0 2 0 C2.25 6.625 2.25 6.625 0 10 C1.77411927 11.77411927 4.34646036 11.70877728 6.75 12.125 C7.79671875 12.31320313 8.8434375 12.50140625 9.921875 12.6953125 C12.91593188 12.99167854 15.10909838 12.76020005 18 12 C18 12.66 18 13.32 18 14 C19.04978027 13.9592334 20.09956055 13.9184668 21.18115234 13.87646484 C25.06835178 13.72822586 28.95592147 13.59349736 32.84375 13.46289062 C34.52780183 13.4044166 36.21172983 13.34225699 37.89550781 13.27636719 C40.31292171 13.1824041 42.73046813 13.10161512 45.1484375 13.0234375 C45.9036972 12.99124115 46.65895691 12.9590448 47.43710327 12.9258728 C49.29079856 12.87249896 51.14696827 12.92714126 53 13 C53.99 13.99 53.99 13.99 55 15 C41.31065772 15.81814639 27.62484629 16.1531069 13.91311646 16.23217773 C12.13725612 16.24406225 10.36142302 16.26115492 8.58566284 16.28344727 C6.06214609 16.31334375 3.53929883 16.32336128 1.015625 16.328125 C-0.13144173 16.34658478 -0.13144173 16.34658478 -1.30168152 16.36541748 C-6.49454035 16.34367286 -6.49454035 16.34367286 -8.98925781 14.64746094 C-10.38156023 12.37807527 -10.21137195 10.60692076 -10 8 C-9.01 8.495 -9.01 8.495 -8 9 C-8.33 9.99 -8.66 10.98 -9 12 C-8.34 12 -7.68 12 -7 12 C-7 11.01 -7 10.02 -7 9 C-6.01 9 -5.02 9 -4 9 C-3.79503906 8.43410156 -3.59007812 7.86820313 -3.37890625 7.28515625 C-3.10949219 6.55167969 -2.84007812 5.81820312 -2.5625 5.0625 C-2.29566406 4.33160156 -2.02882812 3.60070312 -1.75390625 2.84765625 C-1 1 -1 1 0 0 Z " fill="#B2BBAA" transform="translate(143,164)"/>
<path d="M0 0 C3.04488842 0.46134673 5.33986539 1.16232377 8.140625 2.5 C12.30256893 4.31297832 16.191813 4.55266791 20.6875 4.6875 C21.47189453 4.72166016 22.25628906 4.75582031 23.06445312 4.79101562 C28.64815899 5.01509555 34.22520334 5.06166215 39.8125 4.9375 C42 5 42 5 44 6 C44 6.66 44 7.32 44 8 C54.23 8.33 64.46 8.66 75 9 C75 9.33 75 9.66 75 10 C70.53427636 10.04958948 66.06870039 10.085809 61.6027832 10.10986328 C60.08485114 10.11989545 58.56693827 10.13352438 57.04907227 10.15087891 C54.8620936 10.17525035 52.67537136 10.18651095 50.48828125 10.1953125 C49.17384033 10.20578613 47.85939941 10.21625977 46.50512695 10.22705078 C43.14230033 10.00921776 41.03659468 9.35421009 38 8 C35.33166839 7.73233902 32.73547166 7.53925658 30.0625 7.4375 C25.31001669 7.22894098 20.68363607 6.8868857 16 6 C15.67 6.99 15.34 7.98 15 9 C13.0625 10.0625 13.0625 10.0625 11 11 C10.34 11.66 9.68 12.32 9 13 C5.81720186 14.21894397 3.42085146 15 0 15 C2.31 12.36 4.62 9.72 7 7 C3.535 5.02 3.535 5.02 0 3 C0 2.01 0 1.02 0 0 Z " fill="#7E8275" transform="translate(120,260)"/>
<path d="M0 0 C-4.32431858 4.32431858 -10.18085067 4.33826586 -16 4.5625 C-23.06104477 4.8084885 -23.06104477 4.8084885 -30 6 C-32.2773501 8.81509993 -32.2773501 8.81509993 -32 12 C-31.34 12 -30.68 12 -30 12 C-28.375 13.25 -28.375 13.25 -27 15 C-27 16.32 -27 17.64 -27 19 C-28.65 19 -30.3 19 -32 19 C-32 18.01 -32 17.02 -32 16 C-34.31 15.67 -36.62 15.34 -39 15 C-39.33 13.68 -39.66 12.36 -40 11 C-38.68 11 -37.36 11 -36 11 C-36 9.02 -36 7.04 -36 5 C-35.01 5 -34.02 5 -33 5 C-33 4.34 -33 3.68 -33 3 C-35.64 3 -38.28 3 -41 3 C-41 2.67 -41 2.34 -41 2 C-35.96469933 1.7133793 -30.92929904 1.42860124 -25.89379883 1.14550781 C-24.18185634 1.04900562 -22.46994183 0.95200567 -20.75805664 0.85449219 C-18.29320399 0.71417528 -15.82825527 0.57566631 -13.36328125 0.4375 C-12.22080681 0.37187866 -12.22080681 0.37187866 -11.05525208 0.30493164 C-7.36548271 0.09983699 -3.69570245 -0.05110738 0 0 Z " fill="#878577" transform="translate(216,177)"/>
<path d="M0 0 C1.43791516 0.14168137 2.8753237 0.28851043 4.3125 0.4375 C5.11300781 0.51871094 5.91351563 0.59992188 6.73828125 0.68359375 C9 1 9 1 12 2 C14.72883073 2.15370348 17.43697142 2.25728265 20.16796875 2.31640625 C20.96278152 2.33718735 21.7575943 2.35796844 22.57649231 2.37937927 C25.11340763 2.44472087 27.65042573 2.50368808 30.1875 2.5625 C31.90821372 2.60569986 33.62891708 2.64931463 35.34960938 2.69335938 C39.56630113 2.80038648 43.7830962 2.90169724 48 3 C48 3.66 48 4.32 48 5 C42.4547886 7.33287691 37.34644593 7.30727573 31.4375 7.25 C30.45966553 7.24468262 29.48183105 7.23936523 28.47436523 7.23388672 C18.68736682 7.1059521 9.34584776 6.04283416 0 3 C0 2.01 0 1.02 0 0 Z " fill="#4A4C41" transform="translate(140,269)"/>
<path d="M0 0 C10.48165738 0.67585123 20.89044309 1.70108692 31.32421875 2.89453125 C47.20210816 4.65874118 63.04154795 5.20937313 79 5.5625 C80.85417333 5.60583546 82.70834008 5.64945365 84.5625 5.69335938 C89.04159772 5.79882056 93.52076613 5.90049702 98 6 C98 6.33 98 6.66 98 7 C90.48253395 7.05167771 82.96511534 7.08613197 75.44750977 7.10986328 C72.90224497 7.11978011 70.35699111 7.13331764 67.81176758 7.15087891 C54.61835522 7.23947776 41.49879404 7.15878127 28.33984375 6.1171875 C27.35383682 6.03920929 26.3678299 5.96123108 25.35194397 5.88088989 C16.76147605 5.11943015 8.10656413 4.06734859 0 1 C0 0.67 0 0.34 0 0 Z " fill="#6C6E5F" transform="translate(100,219)"/>
<path d="M0 0 C3.3 0.33 6.6 0.66 10 1 C10 2.32 10 3.64 10 5 C10.7734375 4.7215625 10.7734375 4.7215625 11.5625 4.4375 C14.85908739 3.84580483 17.72245735 4.432733 21 5 C21.33 4.34 21.66 3.68 22 3 C24.64 3 27.28 3 30 3 C30 2.34 30 1.68 30 1 C30.99 1 31.98 1 33 1 C33 1.66 33 2.32 33 3 C33.99 3 34.98 3 36 3 C36.42494508 6.65452773 36.32483435 8.49470212 34.3125 11.625 C27.01093093 18.01902941 15.23872422 18.667073 6 19 C6 18.67 6 18.34 6 18 C6.57443848 17.86948242 7.14887695 17.73896484 7.74072266 17.60449219 C10.37192699 16.99904481 12.99830484 16.37470775 15.625 15.75 C16.52863281 15.54503906 17.43226563 15.34007812 18.36328125 15.12890625 C23.7012957 13.84310715 27.70776658 12.46680392 32 9 C33.38868516 6.89960669 33.38868516 6.89960669 34 5 C33.01 5.33 32.02 5.66 31 6 C26.90017758 6.26005601 22.79468599 6.23142595 18.6875 6.25 C17.55892578 6.270625 16.43035156 6.29125 15.26757812 6.3125 C9.36716176 6.34028301 4.96924557 6.34214746 0 3 C0 2.01 0 1.02 0 0 Z " fill="#A2A49C" transform="translate(166,263)"/>
<path d="M0 0 C14.52 0 29.04 0 44 0 C44 0.66 44 1.32 44 2 C43.05125 2.309375 42.1025 2.61875 41.125 2.9375 C38.13919592 3.87394742 38.13919592 3.87394742 36 5 C35.34 4.34 34.68 3.68 34 3 C31.91666667 3.16666667 31.91666667 3.16666667 30 4 C29.67 4.66 29.34 5.32 29 6 C28.34 6 27.68 6 27 6 C26.34 5.34 25.68 4.68 25 4 C24.01 4.33 23.02 4.66 22 5 C18.53743502 6.15418833 16.19133844 5.96347296 12.5625 5.6875 C11.42941406 5.60886719 10.29632813 5.53023437 9.12890625 5.44921875 C6.21757527 5.0312374 4.42437471 4.61809064 2 3 C1.34 2.01 0.68 1.02 0 0 Z " fill="#757667" transform="translate(142,230)"/>
<path d="M0 0 C0 0.66 0 1.32 0 2 C1.65 2 3.3 2 5 2 C4.67 2.66 4.34 3.32 4 4 C3.01 4 2.02 4 1 4 C1 4.66 1 5.32 1 6 C0.43321533 5.83991455 -0.13356934 5.6798291 -0.7175293 5.51489258 C-4.70964189 4.61432937 -8.73506103 4.73185213 -12.8125 4.6875 C-13.68970703 4.65849609 -14.56691406 4.62949219 -15.47070312 4.59960938 C-21.53361914 4.54065806 -25.00176319 5.54282938 -30 9 C-30.66 7.68 -31.32 6.36 -32 5 C-32.99 5 -33.98 5 -35 5 C-35 4.34 -35 3.68 -35 3 C-29.555 2.505 -29.555 2.505 -24 2 C-24 1.67 -24 1.34 -24 1 C-15.9874678 -0.03387512 -8.07094823 -0.10466648 0 0 Z " fill="#766A54" transform="translate(178,203)"/>
<path d="M0 0 C8.57142857 1 8.57142857 1 12 2 C12 2.99 12 3.98 12 5 C29.49 5 46.98 5 65 5 C61.49710746 8.50289254 56.33830203 7.95236863 51.56399536 8.04962158 C48.99018244 8.03707246 46.42055172 7.98356895 43.84765625 7.9140625 C42.43739418 7.88220352 42.43739418 7.88220352 40.99864197 7.84970093 C39.02286972 7.80373105 37.04716367 7.75483039 35.0715332 7.703125 C32.07450979 7.62531182 29.07738603 7.5580246 26.08007812 7.4921875 C24.14842244 7.44593745 22.21678112 7.3990824 20.28515625 7.3515625 C19.4025563 7.33171295 18.51995636 7.3118634 17.61061096 7.29141235 C11.70372538 7.13058711 5.87130899 6.66365815 0 6 C0.185625 5.38125 0.37125 4.7625 0.5625 4.125 C1.23686176 1.95839822 1.23686176 1.95839822 0 0 Z " fill="#807F70" transform="translate(172,191)"/>
<path d="M0 0 C0.66 0.33 1.32 0.66 2 1 C-0.52932024 2.58985844 -2.7600875 3.92574137 -5.625 4.8125 C-8.93342865 6.46671433 -9.62272786 8.66555166 -11 12 C-11.99 12 -12.98 12 -14 12 C-14.33 10.68 -14.66 9.36 -15 8 C-16.918125 8.0309375 -16.918125 8.0309375 -18.875 8.0625 C-22.75 8.125 -22.75 8.125 -25 7 C-27.33425788 7.3267961 -29.66742506 7.66140041 -32 8 C-34.67408961 8.08400282 -37.32356868 8.04695494 -40 8 C-36.72926177 5.81950785 -34.90753175 5.52199219 -31.0625 5 C-26.61174637 4.3712506 -22.1790204 3.70504525 -17.75 2.9375 C-14.14995024 2.32716044 -10.56948098 1.81301984 -6.9375 1.4375 C-3.10258195 1.15059903 -3.10258195 1.15059903 0 0 Z " fill="#C6C7BB" transform="translate(241,220)"/>
<path d="M0 0 C1.485 0.99 1.485 0.99 3 2 C3 2.66 3 3.32 3 4 C4.32 4.33 5.64 4.66 7 5 C7 5.66 7 6.32 7 7 C10.465 8.485 10.465 8.485 14 10 C14 11.65 14 13.3 14 15 C16.97 15.495 16.97 15.495 20 16 C16.55549263 18.29633824 14.06187717 18.54016485 10 19 C9.34 17.35 8.68 15.7 8 14 C7.01 14 6.02 14 5 14 C4.89042969 13.36191406 4.78085938 12.72382813 4.66796875 12.06640625 C4.50941406 11.24011719 4.35085937 10.41382813 4.1875 9.5625 C3.96126953 8.32693359 3.96126953 8.32693359 3.73046875 7.06640625 C3.48941406 6.38449219 3.24835938 5.70257813 3 5 C2.01 4.67 1.02 4.34 0 4 C0 2.68 0 1.36 0 0 Z " fill="#8E8370" transform="translate(89,167)"/>
<path d="M0 0 C1.2375 0.45375 2.475 0.9075 3.75 1.375 C13.88939658 4.72843537 24.39822045 5.40404198 35 6 C35 6.33 35 6.66 35 7 C36.98 7.33 38.96 7.66 41 8 C41 8.33 41 8.66 41 9 C33.51249543 9.10529303 26.04171038 9.0531777 18.5625 8.6875 C17.28503906 8.62949219 16.00757812 8.57148438 14.69140625 8.51171875 C8.76061093 7.68956617 4.04403011 5.20983734 -1 2 C-0.67 1.34 -0.34 0.68 0 0 Z " fill="#594E3C" transform="translate(96,196)"/>
<path d="M0 0 C7.14741237 0.42437761 14.21587966 0.98578851 21.3125 1.9375 C32.49870374 3.40617236 43.75201584 4.16312845 55 5 C55 5.33 55 5.66 55 6 C16.6873297 6.97411444 16.6873297 6.97411444 2 2 C1.34 1.34 0.68 0.68 0 0 Z " fill="#493F2C" transform="translate(106,176)"/>
<path d="M0 0 C17.16 0 34.32 0 52 0 C52 0.33 52 0.66 52 1 C40.91331161 3.02562659 30.23136083 3.21552718 19 3 C19 2.67 19 2.34 19 2 C12.73 1.67 6.46 1.34 0 1 C0 0.67 0 0.34 0 0 Z " fill="#3B3B2E" transform="translate(142,227)"/>
<path d="M0 0 C0.495 1.485 0.495 1.485 1 3 C-10.2985882 10.78347187 -25.85740692 8.11304334 -39 8 C-39 5.37886292 -38.68707555 3.49064888 -38 1 C-38 1.66 -38 2.32 -38 3 C-37.34 3 -36.68 3 -36 3 C-36 3.66 -36 4.32 -36 5 C-23.82528937 8.75762674 -11.01732723 5.36541231 0 0 Z " fill="#8B8F81" transform="translate(242,214)"/>
<path d="M0 0 C10.23 0.33 20.46 0.66 31 1 C29 3 29 3 26.93722534 3.24050903 C26.08895172 3.23606781 25.2406781 3.23162659 24.36669922 3.22705078 C23.40585419 3.22689972 22.44500916 3.22674866 21.45504761 3.22659302 C20.41542877 3.21627045 19.37580994 3.20594788 18.3046875 3.1953125 C17.24210724 3.1924826 16.17952698 3.18965271 15.08474731 3.18673706 C11.68138501 3.17551639 8.27828314 3.15040837 4.875 3.125 C2.57161838 3.11497264 0.26823264 3.10584637 -2.03515625 3.09765625 C-7.69019345 3.07557093 -13.34507813 3.04207489 -19 3 C-19 2.67 -19 2.34 -19 2 C-12.73 1.67 -6.46 1.34 0 1 C0 0.67 0 0.34 0 0 Z " fill="#2B281B" transform="translate(167,200)"/>
<path d="M0 0 C3.2635617 0.66771722 5.87668432 1.87943719 8.8125 3.4375 C12.84682928 5.5054673 16.59903651 6.94759569 21 8 C21 9.32 21 10.64 21 12 C15.125 11.125 15.125 11.125 14 10 C11.67182036 9.63239269 9.3381615 9.29758419 7 9 C7 8.01 7 7.02 7 6 C6.01 6 5.02 6 4 6 C1.8125 4.125 1.8125 4.125 0 2 C0 1.34 0 0.68 0 0 Z " fill="#707265" transform="translate(93,218)"/>
<path d="M0 0 C3.56311404 0.11029647 7.12521145 0.24082717 10.6875 0.375 C11.69490234 0.4059375 12.70230469 0.436875 13.74023438 0.46875 C14.71669922 0.50742187 15.69316406 0.54609375 16.69921875 0.5859375 C17.59471436 0.6173584 18.49020996 0.6487793 19.4128418 0.68115234 C22.21592507 1.02661113 24.43264531 1.84681468 27 3 C27 3.33 27 3.66 27 4 C18.42 4 9.84 4 1 4 C0.67 2.68 0.34 1.36 0 0 Z " fill="#6A6E60" transform="translate(136,266)"/>
<path d="M0 0 C-3 2 -3 2 -5.625 3 C-8.15139938 3.76047262 -8.15139938 3.76047262 -9 6 C-11.9375 6.75 -11.9375 6.75 -15 7 C-15.66 6.34 -16.32 5.68 -17 5 C-19.9093558 4.85482256 -22.719946 4.81369204 -25.625 4.875 C-26.42679688 4.88402344 -27.22859375 4.89304688 -28.0546875 4.90234375 C-30.03658523 4.92593777 -32.01832981 4.96180935 -34 5 C-34 4.67 -34 4.34 -34 4 C-29.96211828 3.42594063 -25.92362408 2.85642268 -21.88452148 2.29101562 C-20.51195193 2.09823809 -19.13955273 1.90424339 -17.76733398 1.70898438 C-15.78935783 1.42774874 -13.81069971 1.15132278 -11.83203125 0.875 C-10.64327393 0.70742187 -9.4545166 0.53984375 -8.22973633 0.3671875 C-5.44493345 0.05058432 -2.79770544 -0.07380591 0 0 Z " fill="#838577" transform="translate(221,226)"/>
<path d="M0 0 C0.33 0.66 0.66 1.32 1 2 C2.64363134 2.72159424 4.31050386 3.39351421 6 4 C6 6.83967231 5.59732819 9.23735711 5 12 C5.66 12 6.32 12 7 12 C7 14.31 7 16.62 7 19 C6.34 19 5.68 19 5 19 C1.26918654 12.62151248 0.27037625 7.35423405 0 0 Z " fill="#A7AAA3" transform="translate(90,217)"/>
<path d="M0 0 C1.28583984 0.00451172 2.57167969 0.00902344 3.89648438 0.01367188 C7.03520653 0.02533999 10.17382728 0.04170985 13.3125 0.0625 C13.3125 0.3925 13.3125 0.7225 13.3125 1.0625 C4.62573592 3.13403682 -3.49214672 3.14799006 -12.375 2.6875 C-13.66083984 2.63078125 -14.94667969 2.5740625 -16.27148438 2.515625 C-19.41083606 2.37557957 -22.54920846 2.22432365 -25.6875 2.0625 C-25.6875 1.7325 -25.6875 1.4025 -25.6875 1.0625 C-17.10824698 0.07944905 -8.62886443 -0.05815202 0 0 Z " fill="#433F31" transform="translate(202.6875,198.9375)"/>
<path d="M0 0 C4.9723422 1.49170266 9.41845739 3.60457417 14 6 C10.68172315 10.48943338 8.66138462 12.76926421 3 14 C2.01 14 1.02 14 0 14 C2.31 11.36 4.62 8.72 7 6 C3.535 4.02 3.535 4.02 0 2 C0 1.34 0 0.68 0 0 Z " fill="#9C9D93" transform="translate(120,261)"/>
<path d="M0 0 C0.495 0.99 0.495 0.99 1 2 C-12.01742061 3.21618838 -24.91695093 4.37739565 -38 4 C-38 3.67 -38 3.34 -38 3 C-33.23222587 2.40269582 -28.46340284 1.81498679 -23.69335938 1.23608398 C-22.07129152 1.03786366 -20.44953969 0.837039 -18.828125 0.63354492 C-16.49557719 0.34126182 -14.16204802 0.05840678 -11.828125 -0.22265625 C-11.10506165 -0.31531265 -10.38199829 -0.40796906 -9.63702393 -0.50343323 C-3.00163456 -1.28515049 -3.00163456 -1.28515049 0 0 Z " fill="#C2C9BE" transform="translate(234,174)"/>
<path d="M0 0 C0.99 0.33 1.98 0.66 3 1 C2.67 3.64 2.34 6.28 2 9 C0.576875 9.12375 0.576875 9.12375 -0.875 9.25 C-1.90625 9.4975 -2.9375 9.745 -4 10 C-4.66 11.32 -5.32 12.64 -6 14 C-9.96 14 -13.92 14 -18 14 C-14.1276599 12.06382995 -11.21420115 11.41218423 -7.0234375 10.7578125 C-4.34861658 9.75604559 -4.15682952 8.52129512 -3 6 C-2.01 5.67 -1.02 5.34 0 5 C0 3.35 0 1.7 0 0 Z " fill="#BBBFB5" transform="translate(202,267)"/>
<path d="M0 0 C10.23 0.33 20.46 0.66 31 1 C31.495 1.99 31.495 1.99 32 3 C24.19744856 4.21074074 16.84402334 3.72526532 9 3 C8.67 3.66 8.34 4.32 8 5 C7.34 5 6.68 5 6 5 C6 4.01 6 3.02 6 2 C3.69 2 1.38 2 -1 2 C-0.67 1.34 -0.34 0.68 0 0 Z " fill="#65694B" transform="translate(183,159)"/>
<path d="M0 0 C3.3 0.33 6.6 0.66 10 1 C10 2.32 10 3.64 10 5 C10.50015625 4.82597656 11.0003125 4.65195312 11.515625 4.47265625 C14.96486922 3.81643211 18.27822172 4.15201351 21.75 4.4375 C22.44738281 4.48970703 23.14476562 4.54191406 23.86328125 4.59570312 C25.57596203 4.72474072 27.28805066 4.86159614 29 5 C29 5.33 29 5.66 29 6 C25.29181703 6.08756305 21.58390237 6.14058015 17.875 6.1875 C16.30492187 6.22520508 16.30492187 6.22520508 14.703125 6.26367188 C8.94528536 6.31833491 4.86485368 6.20676341 0 3 C0 2.01 0 1.02 0 0 Z " fill="#939889" transform="translate(166,263)"/>
<path d="M0 0 C9.14504844 -0.40411834 17.17634256 0.57385524 26 3 C26 3.33 26 3.66 26 4 C14.49415576 4.17258766 14.49415576 4.17258766 9.625 3.5 C6.35622589 3.04913461 3.29260329 2.91768492 0 3 C0 2.01 0 1.02 0 0 Z " fill="#CBCCC7" transform="translate(90,281)"/>
<path d="M0 0 C-2.52932024 1.58985844 -4.7600875 2.92574137 -7.625 3.8125 C-10.93342865 5.46671433 -11.62272786 7.66555166 -13 11 C-13.99 11 -14.98 11 -16 11 C-16.66666667 8.33333333 -17.33333333 5.66666667 -18 3 C-17.02160156 2.81824219 -17.02160156 2.81824219 -16.0234375 2.6328125 C-12.07661596 1.87604731 -8.3124057 1.10599479 -4.5 -0.1875 C-2 -1 -2 -1 0 0 Z " fill="#B7BCB3" transform="translate(243,221)"/>
<path d="M0 0 C3.96 0 7.92 0 12 0 C11.67 1.65 11.34 3.3 11 5 C7.01803543 6.05404945 4.01804691 5.84098656 0 5 C0 4.34 0 3.68 0 3 C-0.66 2.67 -1.32 2.34 -2 2 C-1.34 2 -0.68 2 0 2 C0 1.34 0 0.68 0 0 Z " fill="#726E5C" transform="translate(111,187)"/>
<path d="M0 0 C-4.37583551 4.37583551 -10.39813193 4.36777503 -16.25 4.625 C-16.96929687 4.66367188 -17.68859375 4.70234375 -18.4296875 4.7421875 C-20.95386966 4.87454162 -23.47190703 5 -26 5 C-26 4.34 -26 3.68 -26 3 C-17.50941649 0.50276956 -8.83082789 -0.09830235 0 0 Z " fill="#86887C" transform="translate(216,177)"/>
<path d="M0 0 C-0.7109375 1.94921875 -0.7109375 1.94921875 -2 4 C-7.7942384 5.77704337 -14.12180507 4.97969915 -20 4 C-20 3.67 -20 3.34 -20 3 C-17.79344925 2.49219106 -15.58466395 1.99408635 -13.375 1.5 C-11.53035156 1.08234375 -11.53035156 1.08234375 -9.6484375 0.65625 C-6.32847772 0.05908379 -3.36091549 -0.12409534 0 0 Z " fill="#CCCCC9" transform="translate(184,281)"/>
<path d="M0 0 C7.26 0.99 14.52 1.98 22 3 C22 3.66 22 4.32 22 5 C8.16455012 5.56174007 8.16455012 5.56174007 2 2 C1.34 1.34 0.68 0.68 0 0 Z " fill="#595646" transform="translate(95,189)"/>
<path d="M0 0 C2.62506802 -0.02690844 5.24986173 -0.04679404 7.875 -0.0625 C8.62136719 -0.07087891 9.36773437 -0.07925781 10.13671875 -0.08789062 C15.7734375 -0.11328125 15.7734375 -0.11328125 18 1 C20.37123246 1.23029956 22.74741943 1.41119942 25.125 1.5625 C26.40632813 1.64628906 27.68765625 1.73007813 29.0078125 1.81640625 C30.48894531 1.90728516 30.48894531 1.90728516 32 2 C32 2.33 32 2.66 32 3 C27.79172527 3.05828635 23.58355511 3.093693 19.375 3.125 C17.59029297 3.15013672 17.59029297 3.15013672 15.76953125 3.17578125 C14.03896484 3.18544922 14.03896484 3.18544922 12.2734375 3.1953125 C10.68668213 3.21102295 10.68668213 3.21102295 9.06787109 3.22705078 C5.76636112 2.98270857 3.08587237 2.16882977 0 1 C0 0.67 0 0.34 0 0 Z " fill="#91978C" transform="translate(192,194)"/>
<path d="M0 0 C1.03350586 -0.00676758 1.03350586 -0.00676758 2.08789062 -0.01367188 C5.78845749 -0.00292483 9.21484538 0.24479712 12.8125 1.125 C12.4825 1.785 12.1525 2.445 11.8125 3.125 C6.64279757 3.21534431 1.88831935 3.17002163 -3.1875 2.125 C-4.52811543 2.42771961 -5.86155895 2.76337971 -7.1875 3.125 C-8.734375 3.0940625 -8.734375 3.0940625 -10.3125 3.0625 C-13.31989112 2.79634345 -13.31989112 2.79634345 -15.1875 5.125 C-15.5175 3.805 -15.8475 2.485 -16.1875 1.125 C-10.78617195 0.22477866 -5.47056679 0.0149333 0 0 Z " fill="#9A9B87" transform="translate(144.1875,158.875)"/>
<path d="M0 0 C-9.66968909 2.85918472 -17.85201709 4.76820914 -28 3 C-28 2.67 -28 2.34 -28 2 C-24.08488185 1.46705432 -20.16774466 0.95075145 -16.25 0.4375 C-15.13882813 0.28603516 -14.02765625 0.13457031 -12.8828125 -0.02148438 C-11.81289062 -0.16005859 -10.74296875 -0.29863281 -9.640625 -0.44140625 C-8.65610352 -0.57232666 -7.67158203 -0.70324707 -6.65722656 -0.83813477 C-4.14200979 -0.99134946 -2.37853466 -0.77228356 0 0 Z " fill="#6B6E5F" transform="translate(229,222)"/>
<path d="M0 0 C0.66 0.33 1.32 0.66 2 1 C2 2.65 2 4.3 2 6 C4.97 6.495 4.97 6.495 8 7 C4.55549263 9.29633824 2.06187717 9.54016485 -2 10 C-2.66 8.35 -3.32 6.7 -4 5 C-3.34 4.67 -2.68 4.34 -2 4 C-2.33 3.34 -2.66 2.68 -3 2 C-2.01 2 -1.02 2 0 2 C0 1.34 0 0.68 0 0 Z " fill="#897E6C" transform="translate(101,176)"/>
<path d="M0 0 C1.794375 0.7115625 1.794375 0.7115625 3.625 1.4375 C9.0761942 3.30100728 14.43301853 3.48962565 20.15625 3.69140625 C21.56390625 3.84416016 21.56390625 3.84416016 23 4 C23.33 4.66 23.66 5.32 24 6 C19.545 6.495 19.545 6.495 15 7 C15 6.34 15 5.68 15 5 C13.453125 5.3403125 13.453125 5.3403125 11.875 5.6875 C7.4601524 6.0435361 5.66673694 5.38764266 2 3 C1.34 2.01 0.68 1.02 0 0 Z " fill="#444134" transform="translate(95,190)"/>
<path d="M0 0 C-0.33 0.99 -0.66 1.98 -1 3 C-1.79664063 3.06058594 -2.59328125 3.12117187 -3.4140625 3.18359375 C-11.24332697 3.79667866 -11.24332697 3.79667866 -19 5 C-19.33 4.01 -19.66 3.02 -20 2 C-17.41703099 1.66361334 -14.83368737 1.3307835 -12.25 1 C-11.15558594 0.85691406 -11.15558594 0.85691406 -10.0390625 0.7109375 C-6.65143196 0.27978452 -3.42145141 0 0 0 Z " fill="#9D9581" transform="translate(217,203)"/>
<path d="M0 0 C1.9606842 0.61758554 3.91849063 1.24431345 5.875 1.875 C6.96554688 2.22304687 8.05609375 2.57109375 9.1796875 2.9296875 C12 4 12 4 14 6 C15.31747324 6.69748583 16.64914193 7.36959957 18 8 C10.44885303 8.46231512 5.26814075 5.98881684 -1 2 C-0.67 1.34 -0.34 0.68 0 0 Z " fill="#6E6653" transform="translate(96,196)"/>
<path d="M0 0 C6.03465948 0.10503363 11.97492313 0.51631066 17.96875 1.23046875 C16.97875 2.71546875 16.97875 2.71546875 15.96875 4.23046875 C12.84375 4.41796875 12.84375 4.41796875 9.96875 4.23046875 C9.96875 3.57046875 9.96875 2.91046875 9.96875 2.23046875 C5.34875 2.23046875 0.72875 2.23046875 -4.03125 2.23046875 C-2.03125 0.23046875 -2.03125 0.23046875 0 0 Z " fill="#818166" transform="translate(156.03125,157.76953125)"/>
<path d="M0 0 C0.99 0 1.98 0 3 0 C2.890625 1.828125 2.890625 1.828125 2 4 C-0.765625 5.484375 -0.765625 5.484375 -4.25 6.75 C-5.95929688 7.39195312 -5.95929688 7.39195312 -7.703125 8.046875 C-10.69295698 8.91123401 -12.92067816 9.20837516 -16 9 C-13.35410993 5.66636955 -10.31501097 4.96173582 -6.3125 3.8125 C-5.13300781 3.46832031 -3.95351562 3.12414062 -2.73828125 2.76953125 C-1.83464844 2.51558594 -0.93101562 2.26164062 0 2 C0 1.34 0 0.68 0 0 Z " fill="#72756B" transform="translate(197,268)"/>
<path d="M0 0 C-6.84762745 3.85472849 -15.35239579 3.12334845 -23 3 C-23 3.66 -23 4.32 -23 5 C-23.99 5.33 -24.98 5.66 -26 6 C-26.33 5.01 -26.66 4.02 -27 3 C-18.58741505 -0.50524373 -8.97444543 -0.14957409 0 0 Z " fill="#8A8068" transform="translate(220,202)"/>
<path d="M0 0 C3.01628117 0.4570123 5.25004494 1.12502247 8 2.5 C12.5353372 4.58162927 17.28852446 4.50462751 22.20703125 4.69140625 C25 5 25 5 27 7 C21.555 6.505 21.555 6.505 16 6 C15.67 6.99 15.34 7.98 15 9 C14.071875 8.4121875 14.071875 8.4121875 13.125 7.8125 C8.85181081 5.33405027 4.43238425 3.17746255 0 1 C0 0.67 0 0.34 0 0 Z " fill="#787B6D" transform="translate(120,260)"/>
<path d="M0 0 C7.59 0 15.18 0 23 0 C22.01 0.66 21.02 1.32 20 2 C20.33 2.66 20.66 3.32 21 4 C19.35 4 17.7 4 16 4 C16 3.34 16 2.68 16 2 C15.01257813 2.02320313 14.02515625 2.04640625 13.0078125 2.0703125 C11.72648438 2.08835938 10.44515625 2.10640625 9.125 2.125 C7.21074219 2.15980469 7.21074219 2.15980469 5.2578125 2.1953125 C2 2 2 2 0 0 Z " fill="#645C45" transform="translate(142,182)"/>
<path d="M0 0 C0.66 0 1.32 0 2 0 C2.25 6.625 2.25 6.625 0 10 C0 10.99 0 11.98 0 13 C-1.32 12.34 -2.64 11.68 -4 11 C-3.71758359 9.53984709 -3.42373386 8.08190207 -3.125 6.625 C-2.96257812 5.81289062 -2.80015625 5.00078125 -2.6328125 4.1640625 C-2 2 -2 2 0 0 Z " fill="#93A895" transform="translate(143,164)"/>
<path d="M0 0 C0.66 0 1.32 0 2 0 C2.66666667 2 3.33333333 4 4 6 C4.391875 7.051875 4.78375 8.10375 5.1875 9.1875 C6 12 6 12 5 15 C4.34 15 3.68 15 3 15 C2.49363393 13.25183142 1.99515381 11.50137737 1.5 9.75 C1.2215625 8.77546875 0.943125 7.8009375 0.65625 6.796875 C0 4 0 4 0 0 Z " fill="#9F9C90" transform="translate(90,172)"/>
<path d="M0 0 C0.33 0.66 0.66 1.32 1 2 C0.05125 2.309375 -0.8975 2.61875 -1.875 2.9375 C-4.86080408 3.87394742 -4.86080408 3.87394742 -7 5 C-7.66 4.34 -8.32 3.68 -9 3 C-11.08333333 3.16666667 -11.08333333 3.16666667 -13 4 C-13.33 4.66 -13.66 5.32 -14 6 C-14.66 6 -15.32 6 -16 6 C-16.33 5.01 -16.66 4.02 -17 3 C-16.67 2.34 -16.34 1.68 -16 1 C-13.28553021 0.68758545 -10.66090639 0.48663408 -7.9375 0.375 C-7.17888672 0.33632812 -6.42027344 0.29765625 -5.63867188 0.2578125 C-3.75952805 0.16326438 -1.87979664 0.08053244 0 0 Z " fill="#7F8273" transform="translate(185,230)"/>
<path d="M0 0 C-4.01910088 2.00955044 -6.45905316 3.12379855 -11.0078125 3.09765625 C-11.99394531 3.09443359 -12.98007813 3.09121094 -13.99609375 3.08789062 C-15.02863281 3.07951172 -16.06117188 3.07113281 -17.125 3.0625 C-18.68541016 3.05573242 -18.68541016 3.05573242 -20.27734375 3.04882812 C-22.85161962 3.03701952 -25.42578146 3.02055075 -28 3 C-28 2.67 -28 2.34 -28 2 C-26.35451172 1.90912109 -26.35451172 1.90912109 -24.67578125 1.81640625 C-23.22134346 1.73195502 -21.76691695 1.64730934 -20.3125 1.5625 C-19.59126953 1.52318359 -18.87003906 1.48386719 -18.12695312 1.44335938 C-11.99032247 1.0790845 -6.17137613 -0.12100738 0 0 Z " fill="#57584F" transform="translate(188,273)"/>
<path d="M0 0 C6.27 0 12.54 0 19 0 C19 0.99 19 1.98 19 3 C12.4294834 3.24794402 6.43028541 2.32388229 0 1 C0 0.67 0 0.34 0 0 Z " fill="#838676" transform="translate(145,233)"/>
<path d="M0 0 C6.40353322 -0.2361959 11.84629161 0.176679 18 2 C18 2.33 18 2.66 18 3 C5.33029613 3.3690205 5.33029613 3.3690205 0 1 C0 0.67 0 0.34 0 0 Z " fill="#565244" transform="translate(118,194)"/>
<path d="M0 0 C0.99 0 1.98 0 3 0 C3 0.66 3 1.32 3 2 C3.99 2 4.98 2 6 2 C6 3.98 6 5.96 6 8 C5.67 6.68 5.34 5.36 5 4 C4.175 4.185625 3.35 4.37125 2.5 4.5625 C-1.61926719 5.0774084 -4.90823355 4.63492928 -9 4 C-8.67 3.34 -8.34 2.68 -8 2 C-5.36 2 -2.72 2 0 2 C0 1.34 0 0.68 0 0 Z " fill="#ACB2A6" transform="translate(196,264)"/>
<path d="M0 0 C0.99 0 1.98 0 3 0 C3.33 1.32 3.66 2.64 4 4 C4.66 4 5.32 4 6 4 C6 6.31 6 8.62 6 11 C5.34 11 4.68 11 4 11 C3.32591692 9.73308493 2.66099503 8.46129251 2 7.1875 C1.62875 6.47980469 1.2575 5.77210938 0.875 5.04296875 C0 3 0 3 0 0 Z " fill="#B2B2AD" transform="translate(91,225)"/>
<path d="M0 0 C0.33 0 0.66 0 1 0 C1 3.63 1 7.26 1 11 C1.99 11.33 2.98 11.66 4 12 C4.125 15.375 4.125 15.375 4 19 C3.34 19.66 2.68 20.32 2 21 C0.09879901 13.87049629 -0.22424141 7.36259293 0 0 Z " fill="#B0B2AC" transform="translate(89,190)"/>
<path d="M0 0 C6.93 0.33 13.86 0.66 21 1 C21 1.33 21 1.66 21 2 C17.87549468 2.19645093 14.75038555 2.38063489 11.625 2.5625 C10.29082031 2.64661133 10.29082031 2.64661133 8.9296875 2.73242188 C7.65351562 2.80493164 7.65351562 2.80493164 6.3515625 2.87890625 C5.56604004 2.9260376 4.78051758 2.97316895 3.97119141 3.02172852 C2 3 2 3 0 2 C0 1.34 0 0.68 0 0 Z " fill="#323123" transform="translate(120,225)"/>
<path d="M0 0 C0.8971875 0.309375 0.8971875 0.309375 1.8125 0.625 C1.8125 1.615 1.8125 2.605 1.8125 3.625 C-1.55847383 5.12321059 -3.39192119 5.625 -7.1875 5.625 C-5.69046729 2.17030914 -4.27938051 -0.73360809 0 0 Z " fill="#929784" transform="translate(247.1875,166.375)"/>
<path d="M0 0 C0.99 0.33 1.98 0.66 3 1 C-2.35022874 5.72079006 -6.87265814 7.33939723 -14 7 C-11.79168118 4.79168118 -10.50342124 4.3885542 -7.5625 3.5 C-4.53797225 2.58317446 -2.68542804 1.79028536 0 0 Z " fill="#ECEFE3" transform="translate(243,216)"/>
<path d="M0 0 C0.33 0.66 0.66 1.32 1 2 C1.66 2 2.32 2 3 2 C3 2.66 3 3.32 3 4 C3.86625 4.185625 3.86625 4.185625 4.75 4.375 C7 5 7 5 11 7 C7.37 7 3.74 7 0 7 C0 4.66666667 0 2.33333333 0 0 Z " fill="#9B9C8F" transform="translate(203,215)"/>
<path d="M0 0 C0 0.66 0 1.32 0 2 C1.65 2 3.3 2 5 2 C4.67 2.66 4.34 3.32 4 4 C3.01 4 2.02 4 1 4 C1 4.66 1 5.32 1 6 C-1.64 5.34 -4.28 4.68 -7 4 C-5.53303752 1.06607504 -3.25996861 0 0 0 Z " fill="#786D55" transform="translate(178,203)"/>
<path d="M0 0 C-5.36000789 2.25684543 -9.1977825 3.36263859 -15 3 C-14.67 2.34 -14.34 1.68 -14 1 C-11.85546875 0.33203125 -11.85546875 0.33203125 -9.1875 -0.1875 C-8.31480469 -0.36667969 -7.44210938 -0.54585937 -6.54296875 -0.73046875 C-4.02642222 -0.99719949 -2.38332645 -0.78333107 0 0 Z " fill="#E6EDE4" transform="translate(248,172)"/>
<path d="M0 0 C5.28 0.99 10.56 1.98 16 3 C11.81930278 5.09034861 11.15602159 5.21343141 6.875 4.3125 C6.00617188 4.14363281 5.13734375 3.97476563 4.2421875 3.80078125 C2 3 2 3 0 0 Z " fill="#726957" transform="translate(94,172)"/>
<path d="M0 0 C2.97 0.495 2.97 0.495 6 1 C6.33 2.65 6.66 4.3 7 6 C5.02 6 3.04 6 1 6 C0.67 4.02 0.34 2.04 0 0 Z " fill="#7A715D" transform="translate(102,176)"/>
<path d="M0 0 C0.50789063 0.40992188 1.01578125 0.81984375 1.5390625 1.2421875 C5.5640887 4.39286344 8.95184246 6.73796061 14 8 C11.50113636 8.92550505 10.17248976 9.04422814 7.5625 8.375 C4.42059827 6.68910151 2.3407571 4.67515097 0 2 C0 1.34 0 0.68 0 0 Z " fill="#484D41" transform="translate(92,213)"/>
<path d="M0 0 C1.8253125 0.2784375 1.8253125 0.2784375 3.6875 0.5625 C7.02977939 0.98993182 9.71968417 0.92258883 13 0 C13 0.99 13 1.98 13 3 C9.37 3 5.74 3 2 3 C2 2.34 2 1.68 2 1 C1.34 0.67 0.68 0.34 0 0 Z " fill="#9EAC9C" transform="translate(148,176)"/>
<path d="M0 0 C5.43087408 -0.11083416 10.66645094 -0.11115605 16 1 C16.33 1.66 16.66 2.32 17 3 C15.68 3.33 14.36 3.66 13 4 C13 3.34 13 2.68 13 2 C11.02 2.33 9.04 2.66 7 3 C7 2.34 7 1.68 7 1 C4.69 1 2.38 1 0 1 C0 0.67 0 0.34 0 0 Z " fill="#726B54" transform="translate(114,204)"/>
<path d="M0 0 C0.33 0.99 0.66 1.98 1 3 C-3.40914783 4.10228696 -7.48382401 4.07654536 -12 4 C-12 3.34 -12 2.68 -12 2 C-10.7625 1.67 -9.525 1.34 -8.25 1 C-7.55390625 0.814375 -6.8578125 0.62875 -6.140625 0.4375 C-4 0 -4 0 0 0 Z " fill="#949588" transform="translate(202,178)"/>
<path d="M0 0 C3.3 0.33 6.6 0.66 10 1 C3.75 4.125 3.75 4.125 -1.125 3.5625 C-2.03507813 3.46066406 -2.94515625 3.35882813 -3.8828125 3.25390625 C-4.58148438 3.17011719 -5.28015625 3.08632812 -6 3 C-6 2.67 -6 2.34 -6 2 C-4.02 1.67 -2.04 1.34 0 1 C0 0.67 0 0.34 0 0 Z " fill="#727661" transform="translate(214,160)"/>
<path d="M0 0 C2.64 0 5.28 0 8 0 C8.33 0.99 8.66 1.98 9 3 C6.69 3.33 4.38 3.66 2 4 C1.34 2.68 0.68 1.36 0 0 Z " fill="#5D5F4B" transform="translate(128,228)"/>
<path d="M0 0 C2.64 0.33 5.28 0.66 8 1 C8 1.66 8 2.32 8 3 C9.32 3.33 10.64 3.66 12 4 C11.67 4.66 11.34 5.32 11 6 C10.67 5.67 10.34 5.34 10 5 C7.67182036 4.63239269 5.3381615 4.29758419 3 4 C3 3.01 3 2.02 3 1 C2.01 0.67 1.02 0.34 0 0 Z " fill="#8C8D81" transform="translate(97,223)"/>
<path d="M0 0 C0.33 0.66 0.66 1.32 1 2 C2.89533342 2.46523063 2.89533342 2.46523063 5.0625 2.625 C6.361875 2.74875 7.66125 2.8725 9 3 C9 3.33 9 3.66 9 4 C3.63904667 5.12862175 -1.55306686 5.09688221 -7 5 C-7 4.67 -7 4.34 -7 4 C-5.02 3.67 -3.04 3.34 -1 3 C-0.67 2.01 -0.34 1.02 0 0 Z " fill="#9EA293" transform="translate(221,216)"/>
<path d="M0 0 C-0.99 1.485 -0.99 1.485 -2 3 C-4.8203125 3.29296875 -4.8203125 3.29296875 -8.125 3.1875 C-9.76855469 3.14689453 -9.76855469 3.14689453 -11.4453125 3.10546875 C-12.28835937 3.07066406 -13.13140625 3.03585937 -14 3 C-9.11521152 0.50693368 -5.53108342 -0.12570644 0 0 Z " fill="#CACCC5" transform="translate(198,278)"/>
<path d="M0 0 C-5.23420787 3.27137992 -8.16605611 3.10643764 -14 2 C-14 1.67 -14 1.34 -14 1 C-12.23103898 0.63659714 -10.45973374 0.28459117 -8.6875 -0.0625 C-7.70136719 -0.25972656 -6.71523437 -0.45695312 -5.69921875 -0.66015625 C-3 -1 -3 -1 0 0 Z " fill="#515549" transform="translate(198,270)"/>
<path d="M0 0 C0.66 0 1.32 0 2 0 C3.4606285 2.64738916 4 3.89448334 4 7 C2.68 6.67 1.36 6.34 0 6 C-0.38218767 4.34385343 -0.71395102 2.67542976 -1 1 C-0.67 0.67 -0.34 0.34 0 0 Z " fill="#2A291D" transform="translate(93,188)"/>
<path d="M0 0 C3.3 0.33 6.6 0.66 10 1 C10 1.99 10 2.98 10 4 C6.04 3.67 2.08 3.34 -2 3 C-1.34 2.01 -0.68 1.02 0 0 Z " fill="#7B7661" transform="translate(125,188)"/>
<path d="M0 0 C1.67422986 0.29299023 3.34178227 0.62690101 5 1 C5.66 0.67 6.32 0.34 7 0 C8.33333333 1.33333333 9.66666667 2.66666667 11 4 C6.07872966 4.16682272 2.49656104 4.24828052 -2 2 C-1.34 1.34 -0.68 0.68 0 0 Z " fill="#EDECE2" transform="translate(107,172)"/>
<path d="M0 0 C-3.43952821 2.11663275 -6.03423009 2 -10 2 C-10.66 2.66 -11.32 3.32 -12 4 C-12.33 2.68 -12.66 1.36 -13 0 C-4.57142857 -1.28571429 -4.57142857 -1.28571429 0 0 Z " fill="#A9A99B" transform="translate(141,160)"/>
<path d="M0 0 C6.93 0.495 6.93 0.495 14 1 C8.97600188 3.51199906 7.37626894 3.04056818 2 2 C1.34 1.34 0.68 0.68 0 0 Z " fill="#5E5645" transform="translate(106,176)"/>
<path d="M0 0 C1.98 0 3.96 0 6 0 C6 0.66 6 1.32 6 2 C7.65 2.33 9.3 2.66 11 3 C11 3.33 11 3.66 11 4 C8.69 4 6.38 4 4 4 C4 3.34 4 2.68 4 2 C2.68 2 1.36 2 0 2 C0 1.34 0 0.68 0 0 Z " fill="#DAD9CB" transform="translate(92,169)"/>
<path d="M0 0 C3.181798 1.06059933 6.0173094 2.47551369 9 4 C5.7169902 5.6415049 2.57454967 4.51888624 -1 4 C-0.67 2.68 -0.34 1.36 0 0 Z " fill="#8C8F79" transform="translate(231,162)"/>
<path d="M0 0 C0 0.66 0 1.32 0 2 C-4.33273814 2.92844389 -7.66726186 2.92844389 -12 2 C-12 1.67 -12 1.34 -12 1 C-7.93631321 0.22596442 -4.13574827 -0.0984702 0 0 Z " fill="#C2C3BE" transform="translate(184,281)"/>
<path d="M0 0 C4.05281712 1.22527029 7.44360764 2.69880494 11 5 C9.4375 5.75 9.4375 5.75 7 6 C4.49713591 4.86915563 2.32992278 3.47860484 0 2 C0 1.34 0 0.68 0 0 Z " fill="#B5B7AB" transform="translate(120,261)"/>
<path d="M0 0 C1.32 0 2.64 0 4 0 C4.99 2.31 5.98 4.62 7 7 C6.01 7 5.02 7 4 7 C2.02 3.535 2.02 3.535 0 0 Z " fill="#A3A59D" transform="translate(96,237)"/>
<path d="M0 0 C0 0.99 0 1.98 0 3 C-1.65 3.33 -3.3 3.66 -5 4 C-4.67 3.01 -4.34 2.02 -4 1 C-4.99 0.67 -5.98 0.34 -7 0 C-4.3333581 -1.33332095 -2.83319697 -0.67102033 0 0 Z " fill="#837D6B" transform="translate(111,186)"/>
<path d="M0 0 C2.64 0 5.28 0 8 0 C8.33 0.66 8.66 1.32 9 2 C6 4 6 4 3.9375 3.8125 C2 3 2 3 0 0 Z " fill="#877F6E" transform="translate(112,184)"/>
<path d="M0 0 C-0.33 0.66 -0.66 1.32 -1 2 C-4.0625 2.625 -4.0625 2.625 -7 3 C-7.66 2.01 -8.32 1.02 -9 0 C-3.375 -1.125 -3.375 -1.125 0 0 Z " fill="#A3AEA1" transform="translate(213,230)"/>
<path d="M0 0 C1.485 0.99 1.485 0.99 3 2 C3 2.66 3 3.32 3 4 C4.32 4.33 5.64 4.66 7 5 C5.68 5.99 4.36 6.98 3 8 C3 7.01 3 6.02 3 5 C2.01 4.67 1.02 4.34 0 4 C0 2.68 0 1.36 0 0 Z " fill="#938B7D" transform="translate(89,167)"/>
<path d="M0 0 C0.33 0.99 0.66 1.98 1 3 C-3.1077065 4.58706842 -4.59232396 5.10191901 -9 4 C-6.03 2.68 -3.06 1.36 0 0 Z " fill="#747669" transform="translate(242,214)"/>
<path d="M0 0 C-1.485 1.98 -1.485 1.98 -3 4 C-4.9375 3.625 -4.9375 3.625 -7 3 C-7.33 2.34 -7.66 1.68 -8 1 C-5.07175348 0.02391783 -3.04386724 -0.08226668 0 0 Z " fill="#746F5B" transform="translate(183,181)"/>
<path d="M0 0 C0.66 0.66 1.32 1.32 2 2 C1.625 5.625 1.625 5.625 1 9 C-0.32 9.33 -1.64 9.66 -3 10 C-2.690625 9.46375 -2.38125 8.9275 -2.0625 8.375 C-0.82172561 5.6015043 -0.4090325 2.99957163 0 0 Z " fill="#CBCFC5" transform="translate(203,267)"/>
<path d="M0 0 C2.31 0.33 4.62 0.66 7 1 C6.67 1.99 6.34 2.98 6 4 C4.35 4 2.7 4 1 4 C0.67 2.68 0.34 1.36 0 0 Z " fill="#AFB2A5" transform="translate(217,224)"/>
<path d="M0 0 C2.16874252 0.50603992 3.99967627 0.99983813 6 2 C6 2.99 6 3.98 6 5 C3.5625 4.1875 3.5625 4.1875 1 3 C0.67 2.01 0.34 1.02 0 0 Z " fill="#7A7E70" transform="translate(93,218)"/>
<path d="M0 0 C0.99 0 1.98 0 3 0 C3.33 0.99 3.66 1.98 4 3 C3.34 3 2.68 3 2 3 C2.33 3.99 2.66 4.98 3 6 C2.01 6.495 2.01 6.495 1 7 C1 6.01 1 5.02 1 4 C0.34 3.67 -0.32 3.34 -1 3 C-0.67 2.01 -0.34 1.02 0 0 Z " fill="#7C7B68" transform="translate(118,205)"/>
<path d="M0 0 C0.66 0.33 1.32 0.66 2 1 C2 2.65 2 4.3 2 6 C2.66 6.33 3.32 6.66 4 7 C2.35 6.67 0.7 6.34 -1 6 C-0.67 4.02 -0.34 2.04 0 0 Z " fill="#8D8F83" transform="translate(100,203)"/>
</svg>
