<?xml version="1.0" standalone="no"?>
<!DOCTYPE svg PUBLIC "-//W3C//DTD SVG 20010904//EN"
 "http://www.w3.org/TR/2001/REC-SVG-20010904/DTD/svg10.dtd">
<svg version="1.0" xmlns="http://www.w3.org/2000/svg"
 width="340.000000pt" height="340.000000pt" viewBox="0 0 340.000000 340.000000"
 preserveAspectRatio="xMidYMid meet">

<g transform="translate(0.000000,340.000000) scale(0.100000,-0.100000)"
fill="#000000" stroke="none">
<path d="M971 1676 c-1 -76 -2 -78 -19 -63 -10 10 -22 17 -25 17 -12 0 -7 -92
8 -165 8 -38 15 -79 15 -90 -1 -19 -2 -19 -14 -3 -17 23 -26 12 -25 -31 1 -41
26 -146 28 -118 2 28 19 11 19 -19 0 -19 -3 -23 -10 -13 -7 10 -8 8 -3 -6 8
-21 7 -86 0 -94 -3 -2 -9 7 -15 20 -8 18 -9 6 -5 -51 7 -99 48 -186 124 -258
55 -53 55 -54 36 -70 -11 -10 -33 -33 -48 -54 l-28 -36 33 -10 c130 -40 638
-51 862 -18 151 22 264 57 297 92 21 24 22 26 4 19 -11 -4 -43 -13 -72 -20
-45 -11 -52 -11 -57 2 -5 12 -1 14 14 10 13 -3 18 -1 13 6 -4 7 0 8 13 4 18
-7 18 -7 0 8 -11 8 -14 15 -7 15 7 0 9 5 5 13 -6 9 -5 9 8 0 8 -7 18 -10 22
-6 4 4 14 8 23 8 8 0 23 11 32 25 9 13 11 21 4 17 -20 -12 -25 11 -8 42 8 17
15 41 15 55 0 14 8 29 18 35 12 7 5 8 -27 4 -32 -4 -42 -3 -37 5 4 7 9 20 11
31 3 17 -1 18 -34 14 -21 -3 -41 -1 -44 4 -4 6 31 15 84 23 188 25 284 58 264
90 -6 9 -13 6 -25 -10 -19 -25 -20 -26 -129 -42 -66 -9 -79 -8 -108 7 -31 17
-47 55 -23 55 5 0 9 -5 7 -12 -1 -6 6 -13 15 -16 14 -3 16 3 13 32 -3 40 1 44
22 19 11 -13 13 -14 10 -3 -2 8 3 20 11 26 10 7 -18 10 -97 8 -61 -1 -111 2
-111 5 0 4 61 13 136 20 75 8 149 17 163 21 25 8 25 8 -6 9 -17 1 -43 5 -57
11 -17 6 -26 6 -26 0 0 -6 -4 -10 -10 -10 -5 0 -10 9 -10 20 0 11 -5 20 -11
20 -6 0 1 14 15 31 31 36 32 44 9 46 -223 21 -235 31 -40 32 104 1 176 5 173
10 -3 5 -24 7 -45 5 -27 -2 -46 2 -63 15 -12 9 -31 20 -40 24 -11 4 -15 12
-12 22 6 14 8 14 18 0 8 -11 15 -12 26 -4 12 9 11 10 -4 5 -19 -7 -19 -6 -1
14 16 18 16 20 2 20 -21 0 -22 9 -2 24 11 8 -67 11 -302 11 -343 0 -480 11
-654 50 -180 40 -301 102 -312 158 -2 12 -5 -14 -6 -57z m-14 -238 c-3 -8 -6
-5 -6 6 -1 11 2 17 5 13 3 -3 4 -12 1 -19z m981 -255 c-27 -2 -69 -2 -95 0
-27 2 -5 3 47 3 52 0 74 -1 48 -3z m130 -190 c-10 -2 -28 -2 -40 0 -13 2 -5 4
17 4 22 1 32 -1 23 -4z m-125 -10 c-7 -2 -21 -2 -30 0 -10 3 -4 5 12 5 17 0
24 -2 18 -5z m247 -98 c-7 -8 -19 -15 -26 -15 -12 0 -11 5 2 26 11 17 20 22
27 15 7 -7 6 -15 -3 -26z m-35 15 c3 -5 -1 -10 -10 -10 -9 0 -13 5 -10 10 3 6
8 10 10 10 2 0 7 -4 10 -10z m29 -52 c-3 -4 -9 -8 -15 -8 -5 0 -9 4 -9 8 0 5
7 9 15 9 8 0 12 -4 9 -9z m-5 -42 c9 -10 7 -17 -6 -27 -16 -13 -17 -12 -4 4 9
11 10 17 2 17 -6 0 -11 5 -11 10 0 14 5 13 19 -4z m-32 -33 c-3 -3 -13 1 -21
10 -8 8 -12 17 -9 20 3 3 12 -1 20 -9 9 -8 13 -18 10 -21z"/>
<path d="M2176 893 c-6 -14 -5 -15 5 -6 7 7 10 15 7 18 -3 3 -9 -2 -12 -12z"/>
<path d="M2388 1393 c7 -3 16 -2 19 1 4 3 -2 6 -13 5 -11 0 -14 -3 -6 -6z"/>
<path d="M2242 1307 c-23 -24 -28 -37 -14 -37 4 0 16 14 25 30 22 36 18 38
-11 7z"/>
<path d="M2206 1000 c-11 -3 -21 -17 -23 -29 -2 -15 1 -21 9 -18 7 2 12 12 12
21 -2 13 1 14 12 5 18 -15 29 -6 17 14 -5 9 -15 12 -27 7z"/>
<path d="M2258 1003 c6 -2 18 -2 25 0 6 3 1 5 -13 5 -14 0 -19 -2 -12 -5z"/>
</g>
</svg>
